<?xml version="1.0" encoding="UTF-8" standalone="no"?>
<!-- Generator: Adobe Illustrator 26.2.1, SVG Export Plug-In . SVG Version: 6.00 Build 0)  -->

<svg
   version="1.1"
   id="Calque_1"
   x="0px"
   y="0px"
   viewBox="0 0 1691.8976 612.78456"
   xml:space="preserve"
   sodipodi:docname="logo-N7.svg"
   inkscape:version="1.2 (dc2aeda, 2022-05-15)"
   width="1691.8977"
   height="612.78455"
   xmlns:inkscape="http://www.inkscape.org/namespaces/inkscape"
   xmlns:sodipodi="http://sodipodi.sourceforge.net/DTD/sodipodi-0.dtd"
   xmlns="http://www.w3.org/2000/svg"
   xmlns:svg="http://www.w3.org/2000/svg"><defs
   id="defs331" /><sodipodi:namedview
   id="namedview329"
   pagecolor="#ffffff"
   bordercolor="#000000"
   borderopacity="0.25"
   inkscape:showpageshadow="2"
   inkscape:pageopacity="0.0"
   inkscape:pagecheckerboard="0"
   inkscape:deskcolor="#d1d1d1"
   showgrid="false"
   inkscape:zoom="0.30119655"
   inkscape:cx="961.16639"
   inkscape:cy="69.721914"
   inkscape:window-width="1463"
   inkscape:window-height="916"
   inkscape:window-x="0"
   inkscape:window-y="38"
   inkscape:window-maximized="0"
   inkscape:current-layer="Calque_1" />
<style
   type="text/css"
   id="style182">
	.st0{fill:#FFFFFF;}
	.st1{fill:#1E1E1C;}
	.st2{fill:#253473;}
	.st3{fill:#E20E17;}
	.st4{fill:#9C9B9B;}
	.st5{fill:#2B2D46;}
	.st6{fill:#0047BA;}
</style>



<g
   id="g326"
   inkscape:export-filename="logo-N7.svg"
   inkscape:export-xdpi="96"
   inkscape:export-ydpi="96"
   transform="matrix(1.2881744,0,0,1.2881744,-1128.5696,-105.6303)">
	<path
   class="st5"
   d="m 1542.9,203.4 h -89.8 c -29.9,0 -54.2,24.3 -54.2,54.2 v 299.3 h 69 V 267.5 h 76 c 45.8,0 61.5,23.7 61.5,55.5 0,32.3 -15.6,56.1 -61.5,56.1 H 1496 v 63.6 h 46.9 c 91.7,0 132.6,-50.7 132.6,-119.7 0.1,-69 -40.9,-119.6 -132.6,-119.6"
   id="path296" />
	<rect
   x="876.09998"
   y="202.5"
   class="st5"
   width="64.199997"
   height="354.39999"
   id="rect298" />
	<path
   class="st6"
   d="m 876.2,161.2 h 64.2 V 83.7 c -35.4,0 -64.2,28.7 -64.2,64.2 z"
   id="path300" />
	<path
   class="st5"
   d="M 1241.5,332.3 1070.9,209 v 0.1 c -6.7,-4.2 -14.7,-6.6 -23.2,-6.6 -24.4,0 -44.2,19.8 -44.2,44.2 V 556.9 H 1068 V 289.7 l 173.5,125.5 z"
   id="path302" />
	<path
   class="st6"
   d="m 1094,426.9 170.6,123.2 V 550 c 6.7,4.2 14.7,6.6 23.2,6.6 24.4,0 44.2,-19.8 44.2,-44.2 V 202.2 h -64.5 V 469.4 L 1094,344 Z"
   id="path304" />
	<polygon
   class="st5"
   points="1024.9,102.5 1024.9,161.5 1045,161.5 1045,102.5 1066.4,102.5 1066.4,84 1003.5,84 1003.5,102.5 "
   id="polygon306" />
	<path
   class="st5"
   d="m 1118.4,82 c -24.3,0 -41.2,16.6 -41.2,40.3 0,23.6 17.3,40.7 41.2,40.7 24,0 41.5,-17.1 41.5,-40.7 0,-23.7 -17,-40.3 -41.5,-40.3 m 0.1,62.2 c -11.8,0 -20.1,-9 -20.1,-21.9 0,-12.8 8.3,-21.7 20.1,-21.7 11.9,0 20.2,8.9 20.2,21.7 0.1,12.9 -8.3,21.9 -20.2,21.9"
   id="path308" />
	<path
   class="st5"
   d="m 1229.3,131.3 c 0,5.9 -2.1,12.9 -11.8,12.9 -9.8,0 -11.8,-7 -11.8,-12.9 V 83.8 h -20.1 v 48 c 0,18.4 13.1,31.2 31.9,31.2 18.8,0 31.9,-12.8 31.9,-31.2 v -48 h -20.1 z"
   id="path310" />
	<polygon
   class="st5"
   points="1325.9,161.2 1325.9,142.5 1296.3,142.5 1296.3,83.8 1276.2,83.8 1276.2,161.2 "
   id="polygon312" />
	<path
   class="st5"
   d="m 1380.8,82 c -24.3,0 -41.2,16.6 -41.2,40.3 0,23.6 17.3,40.7 41.2,40.7 24,0 41.5,-17.1 41.5,-40.7 0,-23.7 -17.1,-40.3 -41.5,-40.3 m 0.1,62.2 c -11.8,0 -20.1,-9 -20.1,-21.9 0,-12.8 8.3,-21.7 20.1,-21.7 11.9,0 20.2,8.9 20.2,21.7 0,12.9 -8.3,21.9 -20.2,21.9"
   id="path314" />
	<path
   class="st5"
   d="m 1487.8,131.3 c 0,5.9 -2.1,12.9 -11.8,12.9 -9.8,0 -11.8,-7 -11.8,-12.9 V 83.8 H 1444 v 48 c 0,18.4 13.1,31.2 31.9,31.2 18.8,0 31.9,-12.8 31.9,-31.2 v -48 h -20.1 z"
   id="path316" />
	<path
   class="st5"
   d="m 1563.1,100 c 3.6,0 7.8,1.9 9.8,4.5 l 2.8,3.6 13.7,-15 -2.7,-2.6 c -5.7,-5.3 -14.2,-8.5 -22.9,-8.5 -14.1,0 -29.4,7.6 -29.4,24.3 0,17.1 14.2,21.6 20.3,23.5 l 0.8,0.2 c 9,2.8 12.6,4.3 12.6,8.2 0,6.2 -7.3,6.5 -8.8,6.5 -4.5,0 -9.6,-2.5 -12.2,-6.1 l -2.6,-3.5 -14.7,13.7 2.4,2.8 c 6,7.1 16.1,11.3 26.9,11.3 17.5,0 29.3,-10.5 29.3,-26.1 0,-16.9 -15,-21.6 -23.1,-24.1 -8.7,-2.7 -10.6,-4 -10.6,-7.1 -0.1,-5.5 8.1,-5.6 8.4,-5.6"
   id="path318" />
	<polygon
   class="st5"
   points="1617.7,161.2 1673.4,161.2 1673.4,142.5 1637.8,142.5 1637.8,130.5 1669.8,130.5 1669.8,112.4 1637.8,112.4 1637.8,102.3 1671.6,102.3 1671.6,83.8 1617.7,83.8 "
   id="polygon320" />
	<path
   class="st6"
   d="m 2142.9,245 c -28.5,0 -56.6,0 -85.4,0 0,-14.4 0.2,-42.8 0.2,-42.8 h 5.4 c 0,0 76.8,0 115.2,-0.1 6.1,0 9.2,0.8 9.9,8.3 4.3,40.7 -2.5,80.1 -13.2,118.9 -7,25.4 -17.6,49.8 -25.1,75.1 -8,27.1 -15.4,54.5 -20.7,82.3 -4.4,23.1 -5.5,46.9 -8.1,71 -13.8,0 -28.4,0 -44.6,0 0,-6.3 -0.5,-12.8 0.1,-19.1 1.7,-17.1 2.9,-34.3 6,-51.1 4.3,-23.4 8.8,-46.9 15.6,-69.7 8.3,-27.7 19.4,-54.6 28.7,-82 9.3,-27.6 15,-56.1 16.6,-85.2 0,-1.6 -0.4,-3.2 -0.6,-5.6 z"
   id="path322" />
	<path
   class="st6"
   d="m 1858.4,331.3 98.1,208.9 v 0 c 4.1,10 14.5,17.5 25.1,17.5 25.5,0 25.5,0 25.5,-17.5 v 0 -3.5 0 L 2007,225.2 c 0,0 0,0 0,0.1 v -0.1 c 0,-12.9 -12.7,-23.1 -28.4,-23.3 -20.3,-0.2 -19.8,0 -19.8,23.4 0,0.1 0,-0.1 0,0 v 0 169.2 c 0,5.3 0,22 0,32.2 l -98.2,-206.1 v 0 c -4,-9.5 -13.8,-18.8 -25.5,-18.8 -25.8,0.1 -25.8,0.1 -25.8,18.9 v 0 l 0.1,313.4 v 0 c 0,0 0,0 0,0.1 0,12.9 12.7,23.3 28.4,23.3 20.3,0 20.3,0 20.3,-23.3"
   id="path324" />
</g>
</svg>
