<?xml version="1.0" encoding="UTF-8" standalone="no"?>
<!-- Generator: Adobe Illustrator 19.2.1, SVG Export Plug-In . SVG Version: 6.00 Build 0)  -->

<svg
   version="1.1"
   id="layer"
   x="0px"
   y="0px"
   viewBox="0 0 605.11371 176.5452"
   xml:space="preserve"
   sodipodi:docname="logo-Inria.svg"
   inkscape:export-filename="inria.svg"
   inkscape:export-xdpi="44.17178"
   inkscape:export-ydpi="44.17178"
   width="605.11371"
   height="176.5452"
   inkscape:version="1.2 (dc2aeda, 2022-05-15)"
   xmlns:inkscape="http://www.inkscape.org/namespaces/inkscape"
   xmlns:sodipodi="http://sodipodi.sourceforge.net/DTD/sodipodi-0.dtd"
   xmlns="http://www.w3.org/2000/svg"
   xmlns:svg="http://www.w3.org/2000/svg"><defs
   id="defs10" /><sodipodi:namedview
   id="namedview8"
   pagecolor="#ffffff"
   bordercolor="#000000"
   borderopacity="0.25"
   inkscape:showpageshadow="2"
   inkscape:pageopacity="0.0"
   inkscape:pagecheckerboard="0"
   inkscape:deskcolor="#d1d1d1"
   showgrid="false"
   inkscape:zoom="0.71744142"
   inkscape:cx="303.16064"
   inkscape:cy="142.17189"
   inkscape:window-width="1463"
   inkscape:window-height="916"
   inkscape:window-x="0"
   inkscape:window-y="38"
   inkscape:window-maximized="0"
   inkscape:current-layer="layer" />
<style
   type="text/css"
   id="style2">
	.st0{fill:#E63312;}
</style>
<g
   id="Calque_2"
   inkscape:export-filename="./Calque_2.svg"
   inkscape:export-xdpi="95.940788"
   inkscape:export-ydpi="95.940788"
   transform="translate(-22.60009,-46.184674)">
	<g
   id="Calque_1-2"
   transform="matrix(1.0082075,0,0,1.0082075,0.97025953,-187.61058)">
		<path
   id="path4603"
   class="st0"
   d="m 141.8,254.5 c 8.8,-5.4 17,-11.9 24.2,-19.2 5.9,-6 -20.2,-3.3 -26.4,2.1 -7.2,6 -13.9,12.5 -20,19.6 -3.8,4.2 14,2.3 22.2,-2.5 z m 476.9,135.3 c 4.6,2.8 4.4,-11.7 -4.9,-17.5 -33.4,-20.8 -124.9,15.5 -159.5,19.6 -6.5,0.8 -8.9,-0.9 -7.3,-5.3 2.9,-8.5 14.5,-24.1 16.9,-29.5 2.4,-5.4 1.9,-22.8 -24.2,-22.8 -21.4,0 -41,9.9 -54.7,22.4 -13.1,11.2 -38.6,33.3 -54.2,33.3 -16.2,0 31.2,-48.9 33.9,-51.4 7,-6.6 -15.2,-5 -24.5,2.1 -3.7,2.8 -18.7,18.8 -28,34.3 -27,18.7 -53.9,23 -41.1,7.5 6.8,-8.3 18.3,-19.3 26.2,-28.1 11,-12.2 9,-20.3 -15.3,-20.3 -32.6,0 -36,2.8 -54.5,24.4 -3.4,4 -1.7,14.1 1.9,10.6 22.1,-21.8 21.6,-20.1 50.8,-20.1 -4.7,5 -13.1,10 -27.3,28 -12.7,16.1 -4.4,29.1 13.6,29.1 10,0 24.8,-4.7 38.4,-14.2 -1.6,8.5 1.7,14.4 14.5,14.4 14.8,0 31.8,-8.8 45.8,-18.6 -1.8,10.6 3.7,18.6 19.4,18.6 12.1,0 26.1,-4.7 40.7,-17.3 0,9.6 6.7,17.3 19.4,17.3 30.7,-0.2 137.1,-38.8 174,-16.5 z m -225.9,2.5 c -20.2,0 20.2,-46.2 46.6,-46.2 15.9,-0.1 -27,46.2 -46.5,46.2 z m -16.1,-71.4 c 11.2,-7.2 21.7,-15.4 31.3,-24.6 5.9,-6 -20.2,-3.3 -26.4,2.1 -8.6,7.3 -16.8,15.2 -24.3,23.6 -3.7,4.2 11.4,3.8 19.6,-1.1 z m -159.3,49.2 c -7.9,7.7 -25.2,20.7 -40.4,20.7 -11.2,0 11.1,-20 22.1,-36.2 10.6,-15.5 1.9,-20.1 -6.8,-20.1 -21.6,0 -42.6,15.1 -56.9,25.8 4.2,-5.8 11,-13.2 18.2,-22.6 4,-5.3 -19.8,-3.4 -25.9,4.6 -1.9,2.5 -4.1,5.4 -6.4,8.5 -20.6,24.7 -51.8,41.4 -67.1,41.4 -8.5,0 -11.6,-5.9 -6.4,-16.9 12.7,-26.7 56.8,-77.5 80.8,-99.8 10.9,-10.2 -21.8,-6 -29.3,1.5 -33.1,33.4 -66.5,70.6 -75.9,99.6 -5.2,16 -0.4,30.4 19.5,30.4 16.3,0 34.5,-8.1 49.9,-17.7 l -10,13.6 c -4.3,5.9 17.7,3.7 22.3,-2.1 17.4,-22.3 59.3,-49.7 70.9,-49.7 10.6,0 -25.9,27.4 -25.6,44.1 0.4,22 51.4,8.5 68.7,-14.1 2.9,-3.6 0.8,-13.4 -1.7,-11 z" />
	</g>
</g>
</svg>
