<?xml version="1.0" encoding="UTF-8" standalone="no"?>
<svg
   width="300.22656"
   height="199.63281"
   viewBox="0 0 300.22656 199.63281"
   version="1.1"
   id="svg749"
   sodipodi:docname="logo-julia.svg"
   inkscape:version="1.2 (dc2aeda, 2022-05-15)"
   xmlns:inkscape="http://www.inkscape.org/namespaces/inkscape"
   xmlns:sodipodi="http://sodipodi.sourceforge.net/DTD/sodipodi-0.dtd"
   xmlns="http://www.w3.org/2000/svg"
   xmlns:svg="http://www.w3.org/2000/svg">
  <defs
     id="defs753" />
  <sodipodi:namedview
     id="namedview751"
     pagecolor="#ffffff"
     bordercolor="#000000"
     borderopacity="0.25"
     inkscape:showpageshadow="2"
     inkscape:pageopacity="0.0"
     inkscape:pagecheckerboard="0"
     inkscape:deskcolor="#d1d1d1"
     showgrid="false"
     inkscape:zoom="0.90769231"
     inkscape:cx="19.830508"
     inkscape:cy="92.542373"
     inkscape:window-width="1463"
     inkscape:window-height="456"
     inkscape:window-x="0"
     inkscape:window-y="38"
     inkscape:window-maximized="0"
     inkscape:current-layer="svg749" />
  <path
     fill="none"
     stroke-width="1"
     stroke-linecap="butt"
     stroke-linejoin="miter"
     stroke="#ffffff"
     stroke-opacity="1"
     stroke-miterlimit="10"
     d="m 58.488282,163.64062 c 0,7.53516 -0.847656,13.62109 -2.542969,18.25391 -1.695313,4.63671 -4.105469,8.23437 -7.234375,10.79687 -3.125,2.5625 -6.875,4.27735 -11.246094,5.14453 -4.371094,0.86328 -9.234375,1.29688 -14.582031,1.29688 -7.238281,0 -12.777344,-1.12891 -16.617187,-3.39063 C 2.421876,193.48046 0.5,190.76954 0.5,187.60156 c 0,-2.63672 1.070313,-4.85938 3.21875,-6.66797 2.148438,-1.8086 5.03125,-2.71094 8.648438,-2.71094 2.714844,0 4.882812,0.73438 6.5,2.20313 1.621094,1.46875 2.960938,2.92187 4.015625,4.35156 1.203125,1.58203 2.222656,2.63672 3.050781,3.16406 0.828125,0.52735 1.582032,0.79297 2.261719,0.79297 1.429687,0 2.523437,-0.84766 3.277344,-2.54297 0.753906,-1.69531 1.128906,-4.99219 1.128906,-9.89062 V 83.378905 l 25.886719,-7.12109 z M 95.355468,78.742185 v 59.800775 c 0,1.66016 0.32031,3.22266 0.96094,4.69141 0.64062,1.46875 1.52734,2.73438 2.65625,3.78906 1.132812,1.05469 2.449222,1.90236 3.957032,2.54297 1.50781,0.64063 3.12891,0.96094 4.86328,0.96094 1.95703,0 4.18359,-1.09766 6.89453,-2.9961 4.29297,-3.00781 6.89453,-5.07421 6.89453,-7.51953 V 78.742185 h 25.77344 v 84.898435 h -25.77344 v -7.91406 c -3.39062,2.86328 -7.00781,5.16015 -10.85156,6.89453 -3.84375,1.73437 -7.57422,2.60156 -11.191412,2.60156 -4.21874,0 -8.14062,-0.69922 -11.75781,-2.09375 -3.61718,-1.39453 -6.78125,-3.29687 -9.49218,-5.70703 -2.71485,-2.41016 -4.84375,-5.23828 -6.39063,-8.48047 -1.542969,-3.23828 -2.316406,-6.70703 -2.316406,-10.39844 V 78.742185 Z M 183.5,163.64062 H 157.83985 V 44.605469 L 183.5,37.484375 Z m 10.71875,-80.261715 25.77344,-7.12109 v 87.382805 h -25.77344 z m 79.625,36.398435 c -2.48828,1.0586 -4.99609,2.28125 -7.51953,3.67579 -2.52344,1.39453 -4.82422,2.92187 -6.89453,4.57812 -2.07422,1.65625 -3.75,3.42968 -5.03125,5.3125 -1.28125,1.88282 -1.92188,3.84375 -1.92188,5.8789 0,1.58203 0.20704,3.10938 0.6211,4.57813 0.41406,1.46875 1,2.73046 1.7539,3.78515 0.75391,1.05469 1.58204,1.90235 2.48829,2.54297 0.90234,0.64063 1.88281,0.96094 2.9375,0.96094 2.10937,0 4.23828,-0.64063 6.38671,-1.92188 2.14844,-1.28125 4.53907,-2.89843 7.17969,-4.85937 z m 25.88281,43.86328 h -25.88281 v -6.78516 c -1.43359,1.20704 -2.82812,2.32033 -4.18359,3.33594 -1.35547,1.01563 -2.88281,1.90235 -4.57813,2.65625 -1.69531,0.75391 -3.59765,1.33594 -5.71093,1.75391 -2.10938,0.41406 -4.59766,0.62109 -7.45704,0.62109 -3.92187,0 -7.44531,-0.5664 -10.57031,-1.69531 -3.1289,-1.13281 -5.78515,-2.67578 -7.96875,-4.63672 -2.1875,-1.95703 -3.86328,-4.27734 -5.03125,-6.95312 -1.16797,-2.67188 -1.7539,-5.59375 -1.7539,-8.75782 0,-3.24218 0.62109,-6.17968 1.86718,-8.82031 1.24219,-2.63672 2.9375,-5.00781 5.08594,-7.12109 2.14844,-2.10937 4.65234,-3.99219 7.51563,-5.65235 2.86328,-1.65625 5.9375,-3.18359 9.21484,-4.57812 3.27734,-1.39453 6.6875,-2.67188 10.23047,-3.83985 3.53906,-1.16797 7.04687,-2.28125 10.51172,-3.33593 l 2.82812,-0.67969 v -8.36328 c 0,-5.425775 -1.03906,-9.269525 -3.10937,-11.531245 -2.07422,-2.26172 -4.84375,-3.39063 -8.3086,-3.39063 -4.07031,0 -6.89843,0.98047 -8.48047,2.9375 -1.58203,1.96094 -2.375,4.33203 -2.375,7.1211 0,1.58203 -0.16796,3.1289 -0.50781,4.636705 -0.33594,1.50782 -0.92187,2.82422 -1.75,3.95704 -0.82812,1.1289 -2.01562,2.03515 -3.5625,2.71093 -1.54297,0.67969 -3.48437,1.01953 -5.82031,1.01953 -3.61719,0 -6.55469,-1.03906 -8.81641,-3.10937 -2.26172,-2.07422 -3.39062,-4.69141 -3.39062,-7.859375 0,-2.9375 0.99609,-5.66796 2.99219,-8.1914 2,-2.52734 4.6914,-4.69531 8.08593,-6.5 3.39063,-1.8125 7.3086,-3.24219 11.75391,-4.29688 4.44531,-1.05468 9.15625,-1.58203 14.12891,-1.58203 6.10546,0 11.36328,0.54688 15.77343,1.63672 4.40625,1.09375 8.04297,2.65625 10.90625,4.69141 2.86328,2.03515 4.97266,4.48437 6.32813,7.34765 1.35937,2.86328 2.03515,6.07032 2.03515,9.60938 z M 63.570313,54.417969 c 0,9.667966 -7.835937,17.499996 -17.5,17.499996 -9.664063,0 -17.5,-7.83203 -17.5,-17.499996 0,-9.664063 7.835937,-17.5 17.5,-17.5 9.664063,0 17.5,7.835937 17.5,17.5 z M 246.91797,18 c 0,9.664063 -7.83594,17.5 -17.5,17.5 -9.66797,0 -17.5,-7.835937 -17.5,-17.5 0,-9.664063 7.83203,-17.5 17.5,-17.5 9.66406,0 17.5,7.835937 17.5,17.5 z m 21.01953,36.417969 c 0,9.667966 -7.83594,17.499996 -17.5,17.499996 -9.66406,0 -17.5,-7.83203 -17.5,-17.499996 0,-9.664063 7.83594,-17.5 17.5,-17.5 9.66406,0 17.5,7.835937 17.5,17.5 z m -42.04687,0 c 0,9.667966 -7.83594,17.499996 -17.5,17.499996 -9.66797,0 -17.5,-7.83203 -17.5,-17.499996 0,-9.664063 7.83203,-17.5 17.5,-17.5 9.66406,0 17.5,7.835937 17.5,17.5 z m 0,0"
     id="path737" />
  <path
     fill-rule="nonzero"
     fill="#000000"
     fill-opacity="1"
     d="m 58.488282,163.64062 c 0,7.53516 -0.847656,13.62109 -2.542969,18.25391 -1.695313,4.63671 -4.105469,8.23437 -7.234375,10.79687 -3.125,2.5625 -6.875,4.27735 -11.246094,5.14453 -4.371094,0.86328 -9.234375,1.29688 -14.582031,1.29688 -7.238281,0 -12.777344,-1.12891 -16.617187,-3.39063 C 2.421876,193.48046 0.5,190.76954 0.5,187.60156 c 0,-2.63672 1.070313,-4.85938 3.21875,-6.66797 2.148438,-1.8086 5.03125,-2.71094 8.648438,-2.71094 2.714844,0 4.882812,0.73438 6.5,2.20313 1.621094,1.46875 2.960938,2.92187 4.015625,4.35156 1.203125,1.58203 2.222656,2.63672 3.050781,3.16406 0.828125,0.52735 1.582032,0.79297 2.261719,0.79297 1.429687,0 2.523437,-0.84766 3.277344,-2.54297 0.753906,-1.69531 1.128906,-4.99219 1.128906,-9.89062 V 83.378905 l 25.886719,-7.12109 z M 95.355468,78.742185 v 59.800775 c 0,1.66016 0.32031,3.22266 0.96094,4.69141 0.64062,1.46875 1.52734,2.73438 2.65625,3.78906 1.132812,1.05469 2.449222,1.90236 3.957032,2.54297 1.50781,0.64063 3.12891,0.96094 4.86328,0.96094 1.95703,0 4.18359,-1.09766 6.89453,-2.9961 4.29297,-3.00781 6.89453,-5.07421 6.89453,-7.51953 V 78.742185 h 25.77344 v 84.898435 h -25.77344 v -7.91406 c -3.39062,2.86328 -7.00781,5.16015 -10.85156,6.89453 -3.84375,1.73437 -7.57422,2.60156 -11.191412,2.60156 -4.21874,0 -8.14062,-0.69922 -11.75781,-2.09375 -3.61718,-1.39453 -6.78125,-3.29687 -9.49218,-5.70703 -2.71485,-2.41016 -4.84375,-5.23828 -6.39063,-8.48047 -1.542969,-3.23828 -2.316406,-6.70703 -2.316406,-10.39844 V 78.742185 Z M 183.5,163.64062 H 157.83985 V 44.605469 L 183.5,37.484375 Z m 10.71875,-80.261715 25.77344,-7.12109 v 87.382805 h -25.77344 z m 79.625,36.398435 c -2.48828,1.0586 -4.99609,2.28125 -7.51953,3.67579 -2.52344,1.39453 -4.82422,2.92187 -6.89453,4.57812 -2.07422,1.65625 -3.75,3.42968 -5.03125,5.3125 -1.28125,1.88282 -1.92188,3.84375 -1.92188,5.8789 0,1.58203 0.20704,3.10938 0.6211,4.57813 0.41406,1.46875 1,2.73046 1.7539,3.78515 0.75391,1.05469 1.58204,1.90235 2.48829,2.54297 0.90234,0.64063 1.88281,0.96094 2.9375,0.96094 2.10937,0 4.23828,-0.64063 6.38671,-1.92188 2.14844,-1.28125 4.53907,-2.89843 7.17969,-4.85937 z m 25.88281,43.86328 h -25.88281 v -6.78516 c -1.43359,1.20704 -2.82812,2.32033 -4.18359,3.33594 -1.35547,1.01563 -2.88281,1.90235 -4.57813,2.65625 -1.69531,0.75391 -3.59765,1.33594 -5.71093,1.75391 -2.10938,0.41406 -4.59766,0.62109 -7.45704,0.62109 -3.92187,0 -7.44531,-0.5664 -10.57031,-1.69531 -3.1289,-1.13281 -5.78515,-2.67578 -7.96875,-4.63672 -2.1875,-1.95703 -3.86328,-4.27734 -5.03125,-6.95312 -1.16797,-2.67188 -1.7539,-5.59375 -1.7539,-8.75782 0,-3.24218 0.62109,-6.17968 1.86718,-8.82031 1.24219,-2.63672 2.9375,-5.00781 5.08594,-7.12109 2.14844,-2.10937 4.65234,-3.99219 7.51563,-5.65235 2.86328,-1.65625 5.9375,-3.18359 9.21484,-4.57812 3.27734,-1.39453 6.6875,-2.67188 10.23047,-3.83985 3.53906,-1.16797 7.04687,-2.28125 10.51172,-3.33593 l 2.82812,-0.67969 v -8.36328 c 0,-5.425775 -1.03906,-9.269525 -3.10937,-11.531245 -2.07422,-2.26172 -4.84375,-3.39063 -8.3086,-3.39063 -4.07031,0 -6.89843,0.98047 -8.48047,2.9375 -1.58203,1.96094 -2.375,4.33203 -2.375,7.1211 0,1.58203 -0.16796,3.1289 -0.50781,4.636705 -0.33594,1.50782 -0.92187,2.82422 -1.75,3.95704 -0.82812,1.1289 -2.01562,2.03515 -3.5625,2.71093 -1.54297,0.67969 -3.48437,1.01953 -5.82031,1.01953 -3.61719,0 -6.55469,-1.03906 -8.81641,-3.10937 -2.26172,-2.07422 -3.39062,-4.69141 -3.39062,-7.859375 0,-2.9375 0.99609,-5.66796 2.99219,-8.1914 2,-2.52734 4.6914,-4.69531 8.08593,-6.5 3.39063,-1.8125 7.3086,-3.24219 11.75391,-4.29688 4.44531,-1.05468 9.15625,-1.58203 14.12891,-1.58203 6.10546,0 11.36328,0.54688 15.77343,1.63672 4.40625,1.09375 8.04297,2.65625 10.90625,4.69141 2.86328,2.03515 4.97266,4.48437 6.32813,7.34765 1.35937,2.86328 2.03515,6.07032 2.03515,9.60938 z m 0,0"
     id="path739" />
  <path
     fill-rule="nonzero"
     fill="#4063d8"
     fill-opacity="1"
     d="m 63.570313,54.417969 c 0,9.667966 -7.835937,17.499996 -17.5,17.499996 -9.664063,0 -17.5,-7.83203 -17.5,-17.499996 0,-9.664063 7.835937,-17.5 17.5,-17.5 9.664063,0 17.5,7.835937 17.5,17.5 z m 0,0"
     id="path741" />
  <path
     fill-rule="nonzero"
     fill="#389826"
     fill-opacity="1"
     d="m 246.91797,18 c 0,9.664063 -7.83594,17.5 -17.5,17.5 -9.66797,0 -17.5,-7.835937 -17.5,-17.5 0,-9.664063 7.83203,-17.5 17.5,-17.5 9.66406,0 17.5,7.835937 17.5,17.5 z m 0,0"
     id="path743" />
  <path
     fill-rule="nonzero"
     fill="#9558b2"
     fill-opacity="1"
     d="m 267.9375,54.417969 c 0,9.667966 -7.83594,17.499996 -17.5,17.499996 -9.66406,0 -17.5,-7.83203 -17.5,-17.499996 0,-9.664063 7.83594,-17.5 17.5,-17.5 9.66406,0 17.5,7.835937 17.5,17.5 z m 0,0"
     id="path745" />
  <path
     fill-rule="nonzero"
     fill="#cb3c33"
     fill-opacity="1"
     d="m 225.89063,54.417969 c 0,9.667966 -7.83594,17.499996 -17.5,17.499996 -9.66797,0 -17.5,-7.83203 -17.5,-17.499996 0,-9.664063 7.83203,-17.5 17.5,-17.5 9.66406,0 17.5,7.835937 17.5,17.5 z m 0,0"
     id="path747" />
</svg>
