<?xml version="1.0" encoding="UTF-8" standalone="no"?>
<svg
   version="1.1"
   id="Calque_1"
   x="0px"
   y="0px"
   width="503.39401"
   height="503.396"
   viewBox="0 0 503.39401 503.396"
   enable-background="new 0 0 600 600"
   xml:space="preserve"
   sodipodi:docname="logo-IRIT.svg"
   inkscape:version="1.2 (dc2aeda, 2022-05-15)"
   xmlns:inkscape="http://www.inkscape.org/namespaces/inkscape"
   xmlns:sodipodi="http://sodipodi.sourceforge.net/DTD/sodipodi-0.dtd"
   xmlns="http://www.w3.org/2000/svg"
   xmlns:svg="http://www.w3.org/2000/svg"><defs
   id="defs209" /><sodipodi:namedview
   id="namedview207"
   pagecolor="#ffffff"
   bordercolor="#000000"
   borderopacity="0.25"
   inkscape:showpageshadow="2"
   inkscape:pageopacity="0.0"
   inkscape:pagecheckerboard="0"
   inkscape:deskcolor="#d1d1d1"
   showgrid="false"
   inkscape:zoom="0.51677721"
   inkscape:cx="-28.058513"
   inkscape:cy="299.93583"
   inkscape:window-width="1463"
   inkscape:window-height="916"
   inkscape:window-x="0"
   inkscape:window-y="38"
   inkscape:window-maximized="0"
   inkscape:current-layer="Calque_1" />
 
	 
 
		<g
   id="g204"
   transform="translate(-47.992,-48)">
			<path
   fill="#f84b0f"
   d="M 47.992,299.696 C 47.992,160.686 160.683,48 299.69,48 c 139.019,0 251.696,112.686 251.696,251.696 0,139.016 -112.678,251.7 -251.696,251.7 -139.007,0 -251.698,-112.684 -251.698,-251.7 z"
   id="path182" />
			<path
   fill="#ffffff"
   d="m 207.659,220.17 c 0,15.042 -12.198,27.221 -27.246,27.221 -15.024,0 -27.198,-12.179 -27.198,-27.221 0,-15.03 12.174,-27.221 27.198,-27.221 15.048,0 27.246,12.191 27.246,27.221 z"
   id="path184" />
			<rect
   x="335.76001"
   y="261.608"
   fill="#ffffff"
   width="29.603001"
   height="142.067"
   id="rect186" />
			<rect
   x="143.37601"
   y="261.608"
   fill="#ffffff"
   width="29.597"
   height="142.067"
   id="rect188" />
			<rect
   x="113.777"
   y="261.608"
   fill="#ffffff"
   width="59.195999"
   height="29.594999"
   id="rect190" />
			<g
   id="g196">
				<rect
   x="190.73199"
   y="261.608"
   fill="#ffffff"
   width="29.597"
   height="142.067"
   id="rect192" />
				<rect
   x="190.73199"
   y="261.608"
   fill="#ffffff"
   width="53.277"
   height="29.594999"
   id="rect194" />
			</g>
			<rect
   x="418.63501"
   y="267.52499"
   fill="#ffffff"
   width="29.596001"
   height="136.14999"
   id="rect198" />
			<path
   fill="#ffffff"
   d="m 319.783,308.688 c 0,-27.345 -10.786,-47.081 -55.668,-47.081 h -3.736 l -0.109,29.595 h 2.496 c 17.903,0 25.223,4.345 25.223,20.904 0.018,16.178 -7.676,20.534 -24.829,20.534 h -25.071 v 25.268 l 20.879,-0.008 25.888,47.375 33.458,-0.013 -28.452,-51.084 c 23.691,-7.51 29.921,-25.858 29.921,-45.49 z"
   id="path200" />
			<rect
   x="380.16"
   y="261.608"
   fill="#ffffff"
   width="106.553"
   height="29.594999"
   id="rect202" />
		</g>
 
</svg>
