<?xml version="1.0" encoding="UTF-8"?>
<svg xmlns="http://www.w3.org/2000/svg" xmlns:xlink="http://www.w3.org/1999/xlink" width="241.934pt" height="240.982pt" viewBox="0 0 241.934 240.982">
<defs>
<g>
<g id="glyph-0-0">
<path d="M 4.84375 -3.796875 C 4.890625 -3.9375 4.890625 -3.953125 4.890625 -4.03125 C 4.890625 -4.203125 4.75 -4.296875 4.59375 -4.296875 C 4.5 -4.296875 4.34375 -4.234375 4.25 -4.09375 C 4.234375 -4.03125 4.140625 -3.734375 4.109375 -3.546875 C 4.03125 -3.296875 3.96875 -3.015625 3.90625 -2.75 L 3.453125 -0.953125 C 3.421875 -0.8125 2.984375 -0.109375 2.328125 -0.109375 C 1.828125 -0.109375 1.71875 -0.546875 1.71875 -0.921875 C 1.71875 -1.375 1.890625 -2 2.21875 -2.875 C 2.375 -3.28125 2.421875 -3.390625 2.421875 -3.59375 C 2.421875 -4.03125 2.109375 -4.40625 1.609375 -4.40625 C 0.65625 -4.40625 0.296875 -2.953125 0.296875 -2.875 C 0.296875 -2.765625 0.390625 -2.765625 0.40625 -2.765625 C 0.515625 -2.765625 0.515625 -2.796875 0.5625 -2.953125 C 0.84375 -3.890625 1.234375 -4.1875 1.578125 -4.1875 C 1.65625 -4.1875 1.828125 -4.1875 1.828125 -3.875 C 1.828125 -3.625 1.71875 -3.359375 1.65625 -3.171875 C 1.25 -2.109375 1.078125 -1.546875 1.078125 -1.078125 C 1.078125 -0.1875 1.703125 0.109375 2.296875 0.109375 C 2.6875 0.109375 3.015625 -0.0625 3.296875 -0.34375 C 3.171875 0.171875 3.046875 0.671875 2.65625 1.203125 C 2.390625 1.53125 2.015625 1.828125 1.5625 1.828125 C 1.421875 1.828125 0.96875 1.796875 0.796875 1.40625 C 0.953125 1.40625 1.09375 1.40625 1.21875 1.28125 C 1.328125 1.203125 1.421875 1.0625 1.421875 0.875 C 1.421875 0.5625 1.15625 0.53125 1.0625 0.53125 C 0.828125 0.53125 0.5 0.6875 0.5 1.171875 C 0.5 1.671875 0.9375 2.046875 1.5625 2.046875 C 2.578125 2.046875 3.609375 1.140625 3.890625 0.015625 Z M 4.84375 -3.796875 "/>
</g>
<g id="glyph-0-1">
<path d="M 1.328125 -0.828125 C 1.859375 -1.40625 2.15625 -1.65625 2.515625 -1.96875 C 2.515625 -1.96875 3.125 -2.5 3.484375 -2.859375 C 4.4375 -3.78125 4.65625 -4.265625 4.65625 -4.3125 C 4.65625 -4.40625 4.5625 -4.40625 4.546875 -4.40625 C 4.46875 -4.40625 4.453125 -4.390625 4.390625 -4.296875 C 4.09375 -3.8125 3.890625 -3.65625 3.65625 -3.65625 C 3.40625 -3.65625 3.296875 -3.8125 3.140625 -3.984375 C 2.953125 -4.203125 2.78125 -4.40625 2.453125 -4.40625 C 1.703125 -4.40625 1.25 -3.484375 1.25 -3.265625 C 1.25 -3.21875 1.28125 -3.15625 1.359375 -3.15625 C 1.453125 -3.15625 1.46875 -3.203125 1.5 -3.265625 C 1.6875 -3.734375 2.265625 -3.734375 2.34375 -3.734375 C 2.546875 -3.734375 2.734375 -3.671875 2.96875 -3.59375 C 3.375 -3.4375 3.484375 -3.4375 3.734375 -3.4375 C 3.375 -3.015625 2.546875 -2.296875 2.359375 -2.140625 L 1.453125 -1.296875 C 0.78125 -0.625 0.421875 -0.0625 0.421875 0.015625 C 0.421875 0.109375 0.53125 0.109375 0.546875 0.109375 C 0.625 0.109375 0.640625 0.09375 0.703125 -0.015625 C 0.9375 -0.375 1.234375 -0.640625 1.5625 -0.640625 C 1.78125 -0.640625 1.890625 -0.546875 2.140625 -0.265625 C 2.296875 -0.046875 2.484375 0.109375 2.765625 0.109375 C 3.765625 0.109375 4.34375 -1.15625 4.34375 -1.421875 C 4.34375 -1.46875 4.296875 -1.53125 4.21875 -1.53125 C 4.125 -1.53125 4.109375 -1.46875 4.078125 -1.390625 C 3.84375 -0.75 3.203125 -0.5625 2.875 -0.5625 C 2.6875 -0.5625 2.5 -0.625 2.296875 -0.6875 C 1.953125 -0.8125 1.796875 -0.859375 1.59375 -0.859375 C 1.578125 -0.859375 1.421875 -0.859375 1.328125 -0.828125 Z M 1.328125 -0.828125 "/>
</g>
<g id="glyph-1-0">
<path d="M 4 2.671875 L 1.21875 2.640625 L -0.09375 0.234375 L -1.078125 6.515625 Z M 4 2.671875 "/>
</g>
<g id="glyph-2-0">
<path d="M 3.109375 -2.578125 C 3.203125 -2.671875 3.203125 -2.6875 3.203125 -2.71875 C 3.203125 -2.75 3.171875 -2.8125 3.140625 -2.84375 L 1.4375 -5.171875 L 3.375 -5.171875 C 4.625 -5.171875 5.234375 -5 5.390625 -3.640625 L 5.640625 -3.640625 L 5.40625 -5.4375 L 0.703125 -5.4375 C 0.53125 -5.4375 0.46875 -5.4375 0.46875 -5.265625 L 2.5625 -2.375 L 0.5625 -0.25 C 0.484375 -0.171875 0.46875 -0.15625 0.46875 -0.109375 C 0.46875 0 0.578125 0 0.703125 0 L 5.40625 0 L 5.640625 -1.90625 L 5.390625 -1.90625 C 5.21875 -0.578125 4.703125 -0.359375 3.34375 -0.359375 L 1.015625 -0.359375 Z M 3.109375 -2.578125 "/>
</g>
<g id="glyph-2-1">
<path d="M 2.09375 1.28125 C 1.578125 1.28125 1.484375 1.28125 1.484375 0.921875 L 1.484375 -0.390625 C 1.859375 0.015625 2.265625 0.078125 2.53125 0.078125 C 3.53125 0.078125 4.421875 -0.703125 4.421875 -1.71875 C 4.421875 -2.71875 3.609375 -3.515625 2.640625 -3.515625 C 2.328125 -3.515625 1.875 -3.4375 1.46875 -3.015625 L 1.46875 -3.515625 L 0.28125 -3.421875 L 0.28125 -3.15625 C 0.84375 -3.15625 0.890625 -3.109375 0.890625 -2.78125 L 0.890625 0.921875 C 0.890625 1.28125 0.78125 1.28125 0.28125 1.28125 L 0.28125 1.546875 C 0.625 1.515625 0.96875 1.515625 1.1875 1.515625 C 1.421875 1.515625 1.75 1.515625 2.09375 1.546875 Z M 1.484375 -2.65625 C 1.671875 -2.96875 2.078125 -3.265625 2.578125 -3.265625 C 3.1875 -3.265625 3.703125 -2.59375 3.703125 -1.71875 C 3.703125 -0.8125 3.125 -0.140625 2.484375 -0.140625 C 2.203125 -0.140625 1.84375 -0.265625 1.578125 -0.65625 C 1.484375 -0.796875 1.484375 -0.8125 1.484375 -0.953125 Z M 1.484375 -2.65625 "/>
</g>
<g id="glyph-2-2">
<path d="M 3.984375 -1.703125 C 3.984375 -2.6875 3.15625 -3.546875 2.109375 -3.546875 C 1.0625 -3.546875 0.234375 -2.6875 0.234375 -1.703125 C 0.234375 -0.703125 1.09375 0.078125 2.109375 0.078125 C 3.140625 0.078125 3.984375 -0.703125 3.984375 -1.703125 Z M 2.109375 -0.171875 C 1.6875 -0.171875 1.34375 -0.375 1.171875 -0.65625 C 0.96875 -0.984375 0.953125 -1.375 0.953125 -1.765625 C 0.953125 -2.078125 0.953125 -2.546875 1.1875 -2.890625 C 1.40625 -3.171875 1.734375 -3.328125 2.109375 -3.328125 C 2.53125 -3.328125 2.875 -3.125 3.046875 -2.859375 C 3.265625 -2.515625 3.28125 -2.09375 3.28125 -1.765625 C 3.28125 -1.40625 3.265625 -0.96875 3.03125 -0.625 C 2.828125 -0.3125 2.46875 -0.171875 2.109375 -0.171875 Z M 2.109375 -0.171875 "/>
</g>
<g id="glyph-2-3">
<path d="M 3.875 -2.421875 C 3.875 -3.078125 3.5625 -3.515625 2.734375 -3.515625 C 1.9375 -3.515625 1.578125 -2.9375 1.484375 -2.75 L 1.484375 -3.515625 L 0.328125 -3.421875 L 0.328125 -3.15625 C 0.875 -3.15625 0.9375 -3.109375 0.9375 -2.71875 L 0.9375 -0.625 C 0.9375 -0.265625 0.84375 -0.265625 0.328125 -0.265625 L 0.328125 0 C 0.671875 -0.03125 1.015625 -0.03125 1.234375 -0.03125 C 1.46875 -0.03125 1.796875 -0.03125 2.140625 0 L 2.140625 -0.265625 C 1.640625 -0.265625 1.53125 -0.265625 1.53125 -0.625 L 1.53125 -2.0625 C 1.53125 -2.90625 2.171875 -3.296875 2.65625 -3.296875 C 3.140625 -3.296875 3.265625 -2.953125 3.265625 -2.453125 L 3.265625 -0.625 C 3.265625 -0.265625 3.171875 -0.265625 2.65625 -0.265625 L 2.65625 0 C 3 -0.03125 3.359375 -0.03125 3.5625 -0.03125 C 3.796875 -0.03125 4.140625 -0.03125 4.484375 0 L 4.484375 -0.265625 C 3.96875 -0.265625 3.875 -0.265625 3.875 -0.625 Z M 3.875 -2.421875 "/>
</g>
<g id="glyph-2-4">
<path d="M 1.484375 -3.171875 L 2.671875 -3.171875 L 2.671875 -3.4375 L 1.484375 -3.4375 L 1.484375 -4.90625 L 1.234375 -4.90625 C 1.234375 -4.171875 0.90625 -3.421875 0.15625 -3.390625 L 0.15625 -3.171875 L 0.875 -3.171875 L 0.875 -1 C 0.875 -0.0625 1.59375 0.078125 1.953125 0.078125 C 2.5 0.078125 2.8125 -0.390625 2.8125 -1 L 2.8125 -1.4375 L 2.5625 -1.4375 L 2.5625 -1.015625 C 2.5625 -0.46875 2.3125 -0.171875 2.015625 -0.171875 C 1.484375 -0.171875 1.484375 -0.859375 1.484375 -0.984375 Z M 1.484375 -3.171875 "/>
</g>
<g id="glyph-2-5">
<path d="M 1.625 -2.984375 C 1.625 -3.265625 1.40625 -3.4375 1.171875 -3.4375 C 0.90625 -3.4375 0.734375 -3.21875 0.734375 -3 C 0.734375 -2.71875 0.953125 -2.546875 1.171875 -2.546875 C 1.4375 -2.546875 1.625 -2.765625 1.625 -2.984375 Z M 1.625 -0.4375 C 1.625 -0.703125 1.40625 -0.890625 1.171875 -0.890625 C 0.90625 -0.890625 0.734375 -0.671875 0.734375 -0.453125 C 0.734375 -0.171875 0.953125 0 1.171875 0 C 1.4375 0 1.625 -0.21875 1.625 -0.4375 Z M 1.625 -0.4375 "/>
</g>
<g id="glyph-2-6">
<path d="M 2.5 -5.078125 C 2.5 -5.296875 2.484375 -5.296875 2.265625 -5.296875 C 1.9375 -4.984375 1.515625 -4.796875 0.765625 -4.796875 L 0.765625 -4.53125 C 0.984375 -4.53125 1.40625 -4.53125 1.875 -4.734375 L 1.875 -0.65625 C 1.875 -0.359375 1.84375 -0.265625 1.09375 -0.265625 L 0.8125 -0.265625 L 0.8125 0 C 1.140625 -0.03125 1.828125 -0.03125 2.1875 -0.03125 C 2.546875 -0.03125 3.234375 -0.03125 3.5625 0 L 3.5625 -0.265625 L 3.28125 -0.265625 C 2.53125 -0.265625 2.5 -0.359375 2.5 -0.65625 Z M 2.5 -5.078125 "/>
</g>
<g id="glyph-2-7">
<path d="M 3.46875 -1.8125 L 5.8125 -1.8125 C 5.921875 -1.8125 6.109375 -1.8125 6.109375 -1.984375 C 6.109375 -2.171875 5.921875 -2.171875 5.8125 -2.171875 L 3.46875 -2.171875 L 3.46875 -4.53125 C 3.46875 -4.640625 3.46875 -4.8125 3.296875 -4.8125 C 3.109375 -4.8125 3.109375 -4.640625 3.109375 -4.53125 L 3.109375 -2.171875 L 0.75 -2.171875 C 0.640625 -2.171875 0.46875 -2.171875 0.46875 -1.984375 C 0.46875 -1.8125 0.640625 -1.8125 0.75 -1.8125 L 3.109375 -1.8125 L 3.109375 0.546875 C 3.109375 0.65625 3.109375 0.828125 3.296875 0.828125 C 3.46875 0.828125 3.46875 0.65625 3.46875 0.546875 Z M 3.46875 -1.8125 "/>
</g>
<g id="glyph-3-0">
<path d="M 2.140625 -3.796875 C 2.140625 -3.984375 2.125 -3.984375 1.9375 -3.984375 C 1.546875 -3.59375 0.9375 -3.59375 0.71875 -3.59375 L 0.71875 -3.359375 C 0.875 -3.359375 1.28125 -3.359375 1.640625 -3.53125 L 1.640625 -0.515625 C 1.640625 -0.3125 1.640625 -0.234375 1.015625 -0.234375 L 0.765625 -0.234375 L 0.765625 0 C 1.09375 -0.03125 1.5625 -0.03125 1.890625 -0.03125 C 2.21875 -0.03125 2.6875 -0.03125 3.015625 0 L 3.015625 -0.234375 L 2.765625 -0.234375 C 2.140625 -0.234375 2.140625 -0.3125 2.140625 -0.515625 Z M 2.140625 -3.796875 "/>
</g>
<g id="glyph-3-1">
<path d="M 3.21875 -1.125 L 3 -1.125 C 2.984375 -1.03125 2.921875 -0.640625 2.84375 -0.578125 C 2.796875 -0.53125 2.3125 -0.53125 2.21875 -0.53125 L 1.109375 -0.53125 L 1.875 -1.15625 C 2.078125 -1.328125 2.609375 -1.703125 2.796875 -1.890625 C 2.96875 -2.0625 3.21875 -2.375 3.21875 -2.796875 C 3.21875 -3.546875 2.546875 -3.984375 1.734375 -3.984375 C 0.96875 -3.984375 0.4375 -3.46875 0.4375 -2.90625 C 0.4375 -2.609375 0.6875 -2.5625 0.75 -2.5625 C 0.90625 -2.5625 1.078125 -2.671875 1.078125 -2.890625 C 1.078125 -3.015625 1 -3.21875 0.734375 -3.21875 C 0.875 -3.515625 1.234375 -3.75 1.65625 -3.75 C 2.28125 -3.75 2.609375 -3.28125 2.609375 -2.796875 C 2.609375 -2.375 2.328125 -1.9375 1.921875 -1.546875 L 0.5 -0.25 C 0.4375 -0.1875 0.4375 -0.1875 0.4375 0 L 3.03125 0 Z M 3.21875 -1.125 "/>
</g>
<g id="glyph-3-2">
<path d="M 3.375 -0.984375 L 3.375 -1.21875 L 2.671875 -1.21875 L 2.671875 -3.859375 C 2.671875 -4 2.671875 -4.046875 2.53125 -4.046875 C 2.421875 -4.046875 2.40625 -4.015625 2.359375 -3.953125 L 0.28125 -1.21875 L 0.28125 -0.984375 L 2.140625 -0.984375 L 2.140625 -0.5 C 2.140625 -0.3125 2.140625 -0.234375 1.640625 -0.234375 L 1.453125 -0.234375 L 1.453125 0 C 1.578125 0 2.140625 -0.03125 2.40625 -0.03125 C 2.671875 -0.03125 3.234375 0 3.34375 0 L 3.34375 -0.234375 L 3.171875 -0.234375 C 2.671875 -0.234375 2.671875 -0.3125 2.671875 -0.5 L 2.671875 -0.984375 Z M 2.171875 -3.390625 L 2.171875 -1.21875 L 0.53125 -1.21875 Z M 2.171875 -3.390625 "/>
</g>
<g id="glyph-3-3">
<path d="M 1.765625 -1.984375 C 2.265625 -1.984375 2.609375 -1.640625 2.609375 -1.03125 C 2.609375 -0.375 2.21875 -0.09375 1.78125 -0.09375 C 1.609375 -0.09375 1 -0.125 0.734375 -0.46875 C 0.96875 -0.5 1.0625 -0.65625 1.0625 -0.8125 C 1.0625 -1.015625 0.921875 -1.15625 0.71875 -1.15625 C 0.5625 -1.15625 0.375 -1.046875 0.375 -0.796875 C 0.375 -0.203125 1.03125 0.125 1.796875 0.125 C 2.6875 0.125 3.265625 -0.4375 3.265625 -1.03125 C 3.265625 -1.46875 2.9375 -1.9375 2.21875 -2.109375 C 2.703125 -2.265625 3.078125 -2.65625 3.078125 -3.140625 C 3.078125 -3.625 2.515625 -3.984375 1.796875 -3.984375 C 1.09375 -3.984375 0.5625 -3.65625 0.5625 -3.171875 C 0.5625 -2.90625 0.765625 -2.84375 0.890625 -2.84375 C 1.046875 -2.84375 1.203125 -2.9375 1.203125 -3.15625 C 1.203125 -3.34375 1.078125 -3.453125 0.90625 -3.46875 C 1.1875 -3.78125 1.734375 -3.78125 1.796875 -3.78125 C 2.09375 -3.78125 2.484375 -3.640625 2.484375 -3.140625 C 2.484375 -2.8125 2.296875 -2.234375 1.6875 -2.203125 C 1.578125 -2.203125 1.421875 -2.1875 1.375 -2.1875 C 1.3125 -2.171875 1.25 -2.171875 1.25 -2.078125 C 1.25 -1.984375 1.3125 -1.984375 1.40625 -1.984375 Z M 1.765625 -1.984375 "/>
</g>
<g id="glyph-3-4">
<path d="M 2.953125 -1.34375 L 4.890625 -1.34375 C 4.96875 -1.34375 5.109375 -1.34375 5.109375 -1.5 C 5.109375 -1.65625 4.96875 -1.65625 4.890625 -1.65625 L 2.953125 -1.65625 L 2.953125 -3.59375 C 2.953125 -3.671875 2.953125 -3.828125 2.796875 -3.828125 C 2.640625 -3.828125 2.640625 -3.671875 2.640625 -3.59375 L 2.640625 -1.65625 L 0.703125 -1.65625 C 0.625 -1.65625 0.46875 -1.65625 0.46875 -1.5 C 0.46875 -1.34375 0.625 -1.34375 0.703125 -1.34375 L 2.640625 -1.34375 L 2.640625 0.59375 C 2.640625 0.6875 2.640625 0.828125 2.796875 0.828125 C 2.953125 0.828125 2.953125 0.6875 2.953125 0.59375 Z M 2.953125 -1.34375 "/>
</g>
<g id="glyph-3-5">
<path d="M 2.421875 -2.5 C 2.421875 -2.609375 2.421875 -2.671875 2.328125 -2.671875 C 2.296875 -2.671875 2.28125 -2.671875 2.203125 -2.59375 C 2.1875 -2.578125 2.171875 -2.578125 2.09375 -2.5 C 1.859375 -2.65625 1.5625 -2.671875 1.4375 -2.671875 C 0.5 -2.671875 0.3125 -2.203125 0.3125 -1.921875 C 0.3125 -1.34375 1.015625 -1.234375 1.484375 -1.15625 C 1.75 -1.109375 2.265625 -1.03125 2.265625 -0.640625 C 2.265625 -0.40625 2.09375 -0.125 1.484375 -0.125 C 0.90625 -0.125 0.671875 -0.46875 0.546875 -0.921875 C 0.53125 -0.96875 0.515625 -1 0.4375 -1 C 0.3125 -1 0.3125 -0.953125 0.3125 -0.828125 L 0.3125 -0.109375 C 0.3125 0 0.3125 0.0625 0.40625 0.0625 C 0.453125 0.0625 0.453125 0.046875 0.5625 -0.046875 L 0.703125 -0.203125 C 1 0.0625 1.359375 0.0625 1.484375 0.0625 C 2.359375 0.0625 2.59375 -0.421875 2.59375 -0.765625 C 2.59375 -1.015625 2.484375 -1.1875 2.34375 -1.296875 C 2.09375 -1.53125 1.859375 -1.5625 1.5 -1.625 C 1.046875 -1.703125 0.640625 -1.765625 0.640625 -2.078125 C 0.640625 -2.25 0.8125 -2.5 1.4375 -2.5 C 1.84375 -2.5 2.171875 -2.34375 2.203125 -1.921875 C 2.203125 -1.84375 2.21875 -1.796875 2.3125 -1.796875 C 2.421875 -1.796875 2.421875 -1.84375 2.421875 -1.953125 Z M 2.421875 -2.5 "/>
</g>
<g id="glyph-3-6">
<path d="M 2.84375 -1.78125 C 2.84375 -2.34375 2.28125 -2.671875 1.609375 -2.671875 C 1.3125 -2.671875 0.609375 -2.640625 0.609375 -2.140625 C 0.609375 -1.96875 0.71875 -1.84375 0.90625 -1.84375 C 1.078125 -1.84375 1.1875 -1.96875 1.1875 -2.125 C 1.1875 -2.234375 1.140625 -2.34375 1.03125 -2.390625 C 1.234375 -2.484375 1.53125 -2.484375 1.59375 -2.484375 C 2.015625 -2.484375 2.34375 -2.21875 2.34375 -1.765625 L 2.34375 -1.609375 C 2.078125 -1.609375 1.59375 -1.59375 1.15625 -1.4375 C 0.765625 -1.296875 0.390625 -1.03125 0.390625 -0.625 C 0.390625 -0.09375 1.015625 0.0625 1.484375 0.0625 C 1.984375 0.0625 2.28125 -0.1875 2.421875 -0.421875 C 2.453125 -0.109375 2.65625 0.03125 2.859375 0.03125 C 2.890625 0.03125 3.53125 0.03125 3.53125 -0.53125 L 3.53125 -0.875 L 3.3125 -0.875 L 3.3125 -0.546875 C 3.3125 -0.484375 3.3125 -0.21875 3.078125 -0.21875 C 2.84375 -0.21875 2.84375 -0.484375 2.84375 -0.546875 Z M 2.34375 -0.84375 C 2.34375 -0.234375 1.734375 -0.125 1.53125 -0.125 C 1.21875 -0.125 0.90625 -0.328125 0.90625 -0.625 C 0.90625 -0.96875 1.234375 -1.40625 2.34375 -1.4375 Z M 2.34375 -0.84375 "/>
</g>
<g id="glyph-3-7">
<path d="M 1.296875 -2.34375 L 2.28125 -2.34375 L 2.28125 -2.578125 L 1.296875 -2.578125 L 1.296875 -3.6875 L 1.078125 -3.6875 C 1.078125 -3.140625 0.8125 -2.5625 0.21875 -2.53125 L 0.21875 -2.34375 L 0.8125 -2.34375 L 0.8125 -0.75 C 0.8125 -0.125 1.28125 0.0625 1.6875 0.0625 C 2.09375 0.0625 2.40625 -0.265625 2.40625 -0.75 L 2.40625 -1.078125 L 2.171875 -1.078125 L 2.171875 -0.765625 C 2.171875 -0.34375 1.953125 -0.15625 1.734375 -0.15625 C 1.296875 -0.15625 1.296875 -0.640625 1.296875 -0.75 Z M 1.296875 -2.34375 "/>
</g>
<g id="glyph-4-0">
<path d="M 0.25 -4.796875 L 1.640625 -2.40625 L 0.25 -0.03125 L 6.140625 -2.40625 Z M 0.25 -4.796875 "/>
</g>
<g id="glyph-5-0">
<path d="M -4.796875 -0.25 L -2.40625 -1.640625 L -0.03125 -0.25 L -2.40625 -6.140625 Z M -4.796875 -0.25 "/>
</g>
<g id="glyph-6-0">
<path d="M -1.6875 -4.484375 L 0.53125 -2.859375 L 0.21875 -0.125 L 4.65625 -4.671875 Z M -1.6875 -4.484375 "/>
</g>
<g id="glyph-7-0">
<path d="M 4.375 -2.90625 C 4.515625 -2.90625 4.578125 -2.90625 4.671875 -2.96875 C 4.75 -3.046875 4.796875 -3.15625 4.796875 -3.21875 C 4.796875 -3.4375 4.59375 -3.4375 4.453125 -3.4375 L 2.5 -3.4375 C 1.265625 -3.4375 0.328125 -2.171875 0.328125 -1.21875 C 0.328125 -0.4375 0.890625 0.078125 1.625 0.078125 C 2.625 0.078125 3.71875 -0.890625 3.71875 -2.078125 C 3.71875 -2.5 3.5625 -2.75 3.484375 -2.90625 Z M 1.640625 -0.140625 C 1.234375 -0.140625 0.890625 -0.40625 0.890625 -0.984375 C 0.890625 -1.328125 1.078125 -2.90625 2.359375 -2.90625 C 3.140625 -2.90625 3.140625 -2.3125 3.140625 -2.15625 C 3.140625 -1.328125 2.578125 -0.140625 1.640625 -0.140625 Z M 1.640625 -0.140625 "/>
</g>
<g id="glyph-7-1">
<path d="M 6.3125 -4.578125 C 6.40625 -4.96875 6.578125 -5.15625 7.15625 -5.171875 C 7.234375 -5.171875 7.296875 -5.234375 7.296875 -5.328125 C 7.296875 -5.375 7.265625 -5.4375 7.1875 -5.4375 C 7.125 -5.4375 6.96875 -5.421875 6.390625 -5.421875 C 5.75 -5.421875 5.640625 -5.4375 5.5625 -5.4375 C 5.4375 -5.4375 5.421875 -5.359375 5.421875 -5.296875 C 5.421875 -5.1875 5.515625 -5.171875 5.59375 -5.171875 C 6.078125 -5.15625 6.078125 -4.953125 6.078125 -4.84375 C 6.078125 -4.796875 6.078125 -4.75 6.046875 -4.625 L 5.171875 -1.140625 L 3.25 -5.296875 C 3.1875 -5.4375 3.171875 -5.4375 2.984375 -5.4375 L 1.9375 -5.4375 C 1.796875 -5.4375 1.703125 -5.4375 1.703125 -5.296875 C 1.703125 -5.171875 1.796875 -5.171875 1.953125 -5.171875 C 2.03125 -5.171875 2.265625 -5.171875 2.453125 -5.125 L 1.375 -0.859375 C 1.28125 -0.453125 1.078125 -0.28125 0.546875 -0.265625 C 0.5 -0.265625 0.390625 -0.25 0.390625 -0.109375 C 0.390625 -0.0625 0.4375 0 0.515625 0 C 0.546875 0 0.734375 -0.03125 1.3125 -0.03125 C 1.9375 -0.03125 2.0625 0 2.125 0 C 2.15625 0 2.28125 0 2.28125 -0.15625 C 2.28125 -0.25 2.1875 -0.265625 2.140625 -0.265625 C 1.84375 -0.265625 1.609375 -0.3125 1.609375 -0.59375 C 1.609375 -0.640625 1.640625 -0.75 1.640625 -0.75 L 2.671875 -4.921875 L 2.6875 -4.921875 L 4.90625 -0.140625 C 4.953125 -0.015625 4.96875 0 5.046875 0 C 5.15625 0 5.171875 -0.03125 5.203125 -0.171875 Z M 6.3125 -4.578125 "/>
</g>
<g id="glyph-7-2">
<path d="M 5.34375 -5.390625 C 5.359375 -5.421875 5.375 -5.46875 5.375 -5.515625 C 5.375 -5.5625 5.328125 -5.609375 5.265625 -5.609375 C 5.21875 -5.609375 5.203125 -5.59375 5.109375 -5.5 C 5.015625 -5.390625 4.8125 -5.140625 4.71875 -5.046875 C 4.421875 -5.5 3.90625 -5.609375 3.5 -5.609375 C 2.40625 -5.609375 1.453125 -4.671875 1.453125 -3.765625 C 1.453125 -3.3125 1.703125 -3.03125 1.734375 -2.984375 C 2 -2.703125 2.234375 -2.640625 2.8125 -2.5 C 3.078125 -2.4375 3.09375 -2.4375 3.328125 -2.375 C 3.5625 -2.3125 4.078125 -2.1875 4.078125 -1.53125 C 4.078125 -0.84375 3.390625 -0.09375 2.546875 -0.09375 C 2.03125 -0.09375 1.078125 -0.25 1.078125 -1.25 C 1.078125 -1.265625 1.078125 -1.4375 1.125 -1.625 L 1.140625 -1.703125 C 1.140625 -1.796875 1.046875 -1.8125 1.015625 -1.8125 C 0.921875 -1.8125 0.90625 -1.78125 0.875 -1.59375 L 0.546875 -0.296875 C 0.515625 -0.171875 0.453125 0.046875 0.453125 0.0625 C 0.453125 0.125 0.5 0.171875 0.5625 0.171875 C 0.609375 0.171875 0.625 0.15625 0.703125 0.0625 L 1.09375 -0.390625 C 1.28125 -0.15625 1.734375 0.171875 2.53125 0.171875 C 3.6875 0.171875 4.640625 -0.875 4.640625 -1.828125 C 4.640625 -2.203125 4.515625 -2.484375 4.296875 -2.703125 C 4.0625 -2.96875 3.796875 -3.03125 3.421875 -3.125 C 3.203125 -3.1875 2.890625 -3.265625 2.703125 -3.3125 C 2.46875 -3.359375 2.015625 -3.515625 2.015625 -4.078125 C 2.015625 -4.703125 2.6875 -5.375 3.5 -5.375 C 4.21875 -5.375 4.703125 -5 4.703125 -4.140625 C 4.703125 -3.9375 4.671875 -3.78125 4.671875 -3.75 C 4.671875 -3.65625 4.75 -3.640625 4.8125 -3.640625 C 4.90625 -3.640625 4.90625 -3.671875 4.9375 -3.796875 Z M 5.34375 -5.390625 "/>
</g>
<g id="glyph-7-3">
<path d="M 6.21875 -3.421875 C 6.21875 -4.734375 5.3125 -5.609375 4.046875 -5.609375 C 2.1875 -5.609375 0.40625 -3.765625 0.40625 -1.984375 C 0.40625 -0.765625 1.265625 0.171875 2.609375 0.171875 C 4.390625 0.171875 6.21875 -1.546875 6.21875 -3.421875 Z M 2.671875 -0.09375 C 1.859375 -0.09375 1.1875 -0.671875 1.1875 -1.8125 C 1.1875 -1.9375 1.1875 -3.28125 2.109375 -4.40625 C 2.40625 -4.765625 3.125 -5.359375 3.984375 -5.359375 C 4.78125 -5.359375 5.484375 -4.8125 5.484375 -3.703125 C 5.484375 -3.265625 5.3125 -2.03125 4.5 -1.046875 C 4.03125 -0.5 3.34375 -0.09375 2.671875 -0.09375 Z M 2.671875 -0.09375 "/>
</g>
<g id="glyph-8-0">
<path d="M 0.578125 0.71875 C 0.53125 0.875 0.53125 0.921875 0.28125 0.921875 C 0.203125 0.921875 0.15625 0.921875 0.140625 0.953125 C 0.125 0.984375 0.109375 1.0625 0.109375 1.078125 C 0.109375 1.09375 0.109375 1.15625 0.203125 1.15625 C 0.359375 1.15625 0.5625 1.140625 0.734375 1.140625 C 0.84375 1.140625 0.953125 1.140625 1.0625 1.140625 C 1.171875 1.140625 1.28125 1.15625 1.390625 1.15625 C 1.421875 1.15625 1.46875 1.15625 1.484375 1.125 C 1.5 1.09375 1.53125 1.03125 1.53125 1 C 1.515625 0.921875 1.453125 0.921875 1.34375 0.921875 C 1.203125 0.921875 1.046875 0.921875 1.046875 0.84375 C 1.046875 0.8125 1.09375 0.671875 1.109375 0.578125 L 1.328125 -0.296875 C 1.46875 -0.078125 1.6875 0.0625 1.984375 0.0625 C 2.78125 0.0625 3.578125 -0.765625 3.578125 -1.625 C 3.578125 -2.25 3.140625 -2.640625 2.625 -2.640625 C 2.140625 -2.640625 1.765625 -2.25 1.734375 -2.21875 C 1.625 -2.5625 1.25 -2.640625 1.078125 -2.640625 C 0.796875 -2.640625 0.65625 -2.4375 0.578125 -2.3125 C 0.4375 -2.0625 0.359375 -1.75 0.359375 -1.71875 C 0.359375 -1.65625 0.421875 -1.640625 0.46875 -1.640625 C 0.5625 -1.640625 0.578125 -1.671875 0.609375 -1.765625 C 0.734375 -2.265625 0.875 -2.4375 1.0625 -2.4375 C 1.28125 -2.4375 1.28125 -2.203125 1.28125 -2.140625 C 1.28125 -2.03125 1.265625 -2.015625 1.25 -1.96875 Z M 1.703125 -1.796875 C 1.734375 -1.90625 1.734375 -1.921875 1.84375 -2.03125 C 2.03125 -2.25 2.328125 -2.4375 2.609375 -2.4375 C 2.890625 -2.4375 3.078125 -2.21875 3.078125 -1.859375 C 3.078125 -1.65625 2.953125 -0.984375 2.71875 -0.625 C 2.515625 -0.3125 2.234375 -0.140625 1.984375 -0.140625 C 1.53125 -0.140625 1.421875 -0.609375 1.421875 -0.65625 C 1.421875 -0.6875 1.4375 -0.71875 1.4375 -0.734375 Z M 1.703125 -1.796875 "/>
</g>
<g id="glyph-8-1">
<path d="M 5.265625 -3.421875 C 5.328125 -3.6875 5.453125 -3.828125 5.90625 -3.84375 C 5.9375 -3.84375 6.03125 -3.859375 6.03125 -3.984375 C 6.03125 -4.046875 6 -4.09375 5.9375 -4.09375 C 5.796875 -4.09375 5.453125 -4.0625 5.296875 -4.0625 L 4.96875 -4.0625 C 4.859375 -4.0625 4.734375 -4.09375 4.640625 -4.09375 C 4.53125 -4.09375 4.5 -4.015625 4.5 -3.9375 C 4.5 -3.84375 4.609375 -3.84375 4.65625 -3.84375 C 4.9375 -3.84375 5.046875 -3.765625 5.046875 -3.609375 C 5.046875 -3.578125 5.03125 -3.546875 5.03125 -3.515625 L 4.375 -0.890625 L 2.734375 -3.984375 C 2.6875 -4.078125 2.671875 -4.09375 2.53125 -4.09375 L 1.671875 -4.09375 C 1.5625 -4.09375 1.46875 -4.09375 1.46875 -3.9375 C 1.46875 -3.84375 1.546875 -3.84375 1.6875 -3.84375 C 1.71875 -3.84375 1.921875 -3.84375 2.078125 -3.8125 L 1.28125 -0.671875 C 1.21875 -0.4375 1.125 -0.25 0.640625 -0.234375 C 0.5625 -0.234375 0.5 -0.203125 0.5 -0.078125 C 0.515625 -0.0625 0.515625 0 0.609375 0 C 0.75 0 1.09375 -0.03125 1.25 -0.03125 L 1.578125 -0.015625 C 1.6875 -0.015625 1.8125 0 1.90625 0 C 2.03125 0 2.046875 -0.125 2.046875 -0.15625 C 2.015625 -0.234375 1.96875 -0.234375 1.890625 -0.234375 C 1.609375 -0.25 1.5 -0.328125 1.5 -0.484375 C 1.5 -0.515625 1.5 -0.53125 1.515625 -0.609375 L 2.28125 -3.65625 L 4.171875 -0.109375 C 4.203125 -0.015625 4.21875 0 4.296875 0 C 4.40625 0 4.421875 -0.03125 4.4375 -0.140625 Z M 5.265625 -3.421875 "/>
</g>
<g id="glyph-8-2">
<path d="M 2 -3.96875 C 2 -4 2.015625 -4.03125 2.015625 -4.0625 C 2.015625 -4.15625 1.890625 -4.15625 1.8125 -4.140625 L 1.15625 -4.09375 C 1.046875 -4.09375 0.96875 -4.078125 0.96875 -3.9375 C 0.96875 -3.84375 1.046875 -3.84375 1.140625 -3.84375 C 1.3125 -3.84375 1.359375 -3.84375 1.4375 -3.8125 C 1.4375 -3.734375 1.4375 -3.71875 1.40625 -3.625 L 0.578125 -0.28125 C 0.546875 -0.1875 0.546875 -0.15625 0.546875 -0.140625 C 0.546875 0 0.671875 0.0625 0.765625 0.0625 C 0.8125 0.0625 0.921875 0.03125 1 -0.078125 C 1.015625 -0.125 1.078125 -0.3125 1.109375 -0.4375 C 1.140625 -0.5625 1.203125 -0.828125 1.234375 -0.984375 C 1.28125 -1.140625 1.3125 -1.25 1.34375 -1.375 C 1.359375 -1.46875 1.390625 -1.578125 1.5625 -1.828125 C 1.765625 -2.109375 2.078125 -2.4375 2.53125 -2.4375 C 2.90625 -2.4375 2.90625 -2.125 2.90625 -2.015625 C 2.90625 -1.671875 2.65625 -1.03125 2.546875 -0.765625 C 2.5 -0.65625 2.46875 -0.5625 2.46875 -0.453125 C 2.46875 -0.15625 2.734375 0.0625 3.0625 0.0625 C 3.671875 0.0625 3.96875 -0.734375 3.96875 -0.859375 C 3.96875 -0.875 3.96875 -0.953125 3.859375 -0.953125 C 3.78125 -0.953125 3.765625 -0.921875 3.734375 -0.796875 C 3.640625 -0.484375 3.390625 -0.140625 3.09375 -0.140625 C 2.96875 -0.140625 2.921875 -0.234375 2.921875 -0.359375 C 2.921875 -0.46875 2.96875 -0.578125 3.015625 -0.703125 C 3.109375 -0.9375 3.375 -1.609375 3.375 -1.9375 C 3.375 -2.421875 3.046875 -2.640625 2.5625 -2.640625 C 2.078125 -2.640625 1.765625 -2.375 1.53125 -2.109375 Z M 2 -3.96875 "/>
</g>
<g id="glyph-8-3">
<path d="M 2.734375 -2.25 C 2.5625 -2.203125 2.5 -2.0625 2.5 -1.96875 C 2.5 -1.875 2.5625 -1.765625 2.703125 -1.765625 C 2.828125 -1.765625 3 -1.859375 3 -2.109375 C 3 -2.515625 2.546875 -2.640625 2.15625 -2.640625 C 1.234375 -2.640625 1.015625 -2.03125 1.015625 -1.78125 C 1.015625 -1.296875 1.5625 -1.203125 1.71875 -1.171875 C 2.171875 -1.09375 2.515625 -1.03125 2.515625 -0.734375 C 2.515625 -0.609375 2.421875 -0.390625 2.203125 -0.28125 C 1.96875 -0.15625 1.71875 -0.140625 1.53125 -0.140625 C 1.328125 -0.140625 0.953125 -0.15625 0.78125 -0.359375 C 1 -0.390625 1.09375 -0.5625 1.09375 -0.703125 C 1.09375 -0.828125 1.015625 -0.921875 0.84375 -0.921875 C 0.6875 -0.921875 0.5 -0.796875 0.5 -0.515625 C 0.5 -0.1875 0.828125 0.0625 1.53125 0.0625 C 2.65625 0.0625 2.890625 -0.640625 2.890625 -0.90625 C 2.890625 -1.109375 2.8125 -1.25 2.671875 -1.359375 C 2.484375 -1.53125 2.25 -1.5625 1.96875 -1.609375 C 1.671875 -1.671875 1.390625 -1.71875 1.390625 -1.953125 C 1.390625 -1.953125 1.390625 -2.4375 2.140625 -2.4375 C 2.296875 -2.4375 2.59375 -2.421875 2.734375 -2.25 Z M 2.734375 -2.25 "/>
</g>
<g id="glyph-8-4">
<path d="M 3.421875 -2.140625 C 3.421875 -2.578125 3.1875 -2.640625 3.109375 -2.640625 C 2.9375 -2.640625 2.765625 -2.453125 2.765625 -2.3125 C 2.765625 -2.203125 2.84375 -2.140625 2.890625 -2.109375 C 3 -2.015625 3.109375 -1.875 3.109375 -1.65625 C 3.109375 -1.34375 2.6875 -0.140625 1.984375 -0.140625 C 1.453125 -0.140625 1.453125 -0.5625 1.453125 -0.671875 C 1.453125 -0.921875 1.546875 -1.203125 1.796875 -1.84375 C 1.84375 -1.96875 1.859375 -2.015625 1.859375 -2.125 C 1.859375 -2.453125 1.5625 -2.640625 1.265625 -2.640625 C 0.65625 -2.640625 0.359375 -1.84375 0.359375 -1.71875 C 0.359375 -1.6875 0.390625 -1.640625 0.46875 -1.640625 C 0.5625 -1.640625 0.578125 -1.671875 0.59375 -1.71875 C 0.765625 -2.296875 1.078125 -2.4375 1.25 -2.4375 C 1.359375 -2.4375 1.40625 -2.359375 1.40625 -2.21875 C 1.40625 -2.09375 1.328125 -1.890625 1.265625 -1.734375 C 0.984375 -1.046875 0.984375 -0.875 0.984375 -0.734375 C 0.984375 -0.109375 1.53125 0.0625 1.953125 0.0625 C 2.953125 0.0625 3.421875 -1.5625 3.421875 -2.140625 Z M 3.421875 -2.140625 "/>
</g>
<g id="glyph-9-0">
<path d="M -3.265625 -3.53125 L -0.578125 -2.859375 L 0.15625 -0.1875 L 2.578125 -6.078125 Z M -3.265625 -3.53125 "/>
</g>
<g id="glyph-10-0">
<path d="M -3.953125 -2.75 L -1.1875 -2.65625 L 0.09375 -0.234375 L 1.1875 -6.484375 Z M -3.953125 -2.75 "/>
</g>
<g id="glyph-11-0">
<path d="M 4.421875 -2.5 C 4.421875 -3.5625 3.53125 -4.421875 2.5 -4.421875 C 1.421875 -4.421875 0.546875 -3.53125 0.546875 -2.5 C 0.546875 -1.4375 1.421875 -0.5625 2.5 -0.5625 C 3.53125 -0.5625 4.421875 -1.421875 4.421875 -2.5 Z M 4.421875 -2.5 "/>
</g>
<g id="glyph-12-0">
<path d="M 1.875 -2.8125 C 1.921875 -2.90625 1.9375 -2.96875 1.9375 -3 C 1.9375 -3.1875 1.765625 -3.34375 1.5625 -3.34375 C 1.328125 -3.34375 1.25 -3.140625 1.234375 -3.046875 L 0.390625 -0.484375 C 0.390625 -0.453125 0.359375 -0.40625 0.359375 -0.390625 C 0.359375 -0.28125 0.609375 -0.234375 0.609375 -0.234375 C 0.671875 -0.234375 0.6875 -0.28125 0.71875 -0.328125 Z M 1.875 -2.8125 "/>
</g>
<g id="glyph-12-1">
<path d="M 4.765625 -1.34375 C 4.859375 -1.34375 5.015625 -1.34375 5.015625 -1.5 C 5.015625 -1.65625 4.859375 -1.65625 4.765625 -1.65625 L 1 -1.65625 C 0.890625 -1.65625 0.75 -1.65625 0.75 -1.5 C 0.75 -1.34375 0.890625 -1.34375 1 -1.34375 Z M 4.765625 -1.34375 "/>
</g>
<g id="glyph-13-0">
<path d="M 5.5625 -1.8125 C 5.703125 -1.8125 5.875 -1.8125 5.875 -1.984375 C 5.875 -2.171875 5.703125 -2.171875 5.5625 -2.171875 L 1 -2.171875 C 0.875 -2.171875 0.703125 -2.171875 0.703125 -1.984375 C 0.703125 -1.8125 0.875 -1.8125 1 -1.8125 Z M 5.5625 -1.8125 "/>
</g>
</g>
</defs>
<path fill-rule="nonzero" fill="rgb(3.999329%, 9.999084%, 50%)" fill-opacity="0.1" stroke-width="0.3985" stroke-linecap="butt" stroke-linejoin="miter" stroke="rgb(0%, 0%, 0%)" stroke-opacity="0.1" stroke-miterlimit="10" d="M 0.00134375 99.233344 C -69.455687 99.233344 -104.193969 19.842719 -89.311156 -29.770562 L -39.693969 -29.770562 C -29.772094 -28.778375 -9.920531 -26.794 0.00134375 -19.848687 Z M 0.00134375 99.233344 " transform="matrix(1, 0, 0, -1, 115.026, 125.956)"/>
<path fill-rule="nonzero" fill="rgb(50%, 3.999329%, 9.999084%)" fill-opacity="0.1" stroke-width="0.3985" stroke-linecap="butt" stroke-linejoin="miter" stroke="rgb(0%, 0%, 0%)" stroke-opacity="0.1" stroke-miterlimit="10" d="M -89.311156 -29.770562 C -74.428344 -79.383844 -14.885375 -89.301812 0.00134375 -84.340875 L 0.00134375 -19.848687 C -9.920531 -26.794 -29.772094 -28.778375 -39.693969 -29.770562 Z M -89.311156 -29.770562 " transform="matrix(1, 0, 0, -1, 115.026, 125.956)"/>
<path fill="none" stroke-width="0.3985" stroke-linecap="butt" stroke-linejoin="miter" stroke="rgb(0%, 0%, 0%)" stroke-opacity="1" stroke-miterlimit="10" d="M -109.158812 -0.00103125 L 108.759156 -0.00103125 " transform="matrix(1, 0, 0, -1, 115.026, 125.956)"/>
<path fill="none" stroke-width="0.3985" stroke-linecap="round" stroke-linejoin="round" stroke="rgb(0%, 0%, 0%)" stroke-opacity="1" stroke-miterlimit="10" d="M -2.071118 2.389594 C -1.692211 0.956 -0.848461 0.280219 -0.000805 -0.00103125 C -0.848461 -0.278375 -1.692211 -0.958062 -2.071118 -2.391656 " transform="matrix(1, 0, 0, -1, 223.98518, 125.956)"/>
<g fill="rgb(0%, 0%, 0%)" fill-opacity="1">
<use xlink:href="#glyph-0-0" x="227.702" y="127.133"/>
</g>
<path fill="none" stroke-width="0.3985" stroke-linecap="butt" stroke-linejoin="miter" stroke="rgb(0%, 0%, 0%)" stroke-opacity="1" stroke-miterlimit="10" d="M 0.00134375 -109.157281 L 0.00134375 108.760688 " transform="matrix(1, 0, 0, -1, 115.026, 125.956)"/>
<path fill="none" stroke-width="0.3985" stroke-linecap="round" stroke-linejoin="round" stroke="rgb(0%, 0%, 0%)" stroke-opacity="1" stroke-miterlimit="10" d="M -2.073492 2.389281 C -1.694586 0.955687 -0.850836 0.279906 0.00072625 -0.00134375 C -0.850836 -0.278688 -1.694586 -0.954469 -2.073492 -2.391969 " transform="matrix(0, -1, -1, 0, 115.026, 16.99682)"/>
<g fill="rgb(0%, 0%, 0%)" fill-opacity="1">
<use xlink:href="#glyph-0-1" x="112.49" y="13.28"/>
</g>
<path fill="none" stroke-width="0.3985" stroke-linecap="butt" stroke-linejoin="miter" stroke="rgb(0%, 0%, 0%)" stroke-opacity="1" stroke-miterlimit="10" d="M 99.224 -0.00103125 C 99.224 54.79975 54.802125 99.225531 0.00134375 99.225531 C -54.799437 99.225531 -99.225219 54.79975 -99.225219 -0.00103125 C -99.225219 -54.801812 -54.799437 -99.223687 0.00134375 -99.223687 C 54.802125 -99.223687 99.224 -54.801812 99.224 -0.00103125 Z M 99.224 -0.00103125 " transform="matrix(1, 0, 0, -1, 115.026, 125.956)"/>
<path fill="none" stroke-width="0.3985" stroke-linecap="butt" stroke-linejoin="miter" stroke="rgb(0%, 0%, 0%)" stroke-opacity="1" stroke-dasharray="2.98883 1.99255" stroke-miterlimit="10" d="M -109.147094 -29.766656 L 109.145875 -29.766656 " transform="matrix(1, 0, 0, -1, 115.026, 125.956)"/>
<path fill="none" stroke-width="0.79701" stroke-linecap="butt" stroke-linejoin="miter" stroke="rgb(50%, 3.999329%, 9.999084%)" stroke-opacity="1" stroke-miterlimit="10" d="M 0.00134375 99.233344 C -69.455687 99.233344 -104.193969 19.842719 -89.311156 -29.770562 " transform="matrix(1, 0, 0, -1, 115.026, 125.956)"/>
<g fill="rgb(50%, 3.999329%, 9.999084%)" fill-opacity="1">
<use xlink:href="#glyph-1-0" x="38.29" y="68.63"/>
</g>
<g fill="rgb(50%, 3.999329%, 9.999084%)" fill-opacity="1">
<use xlink:href="#glyph-2-0" x="42.462" y="74.79"/>
</g>
<g fill="rgb(50%, 3.999329%, 9.999084%)" fill-opacity="1">
<use xlink:href="#glyph-3-0" x="48.578" y="75.897"/>
</g>
<path fill="none" stroke-width="0.79701" stroke-linecap="butt" stroke-linejoin="miter" stroke="rgb(50%, 3.999329%, 9.999084%)" stroke-opacity="1" stroke-miterlimit="10" d="M -89.311156 -29.770562 C -74.428344 -79.383844 -14.885375 -89.301812 0.00134375 -84.340875 " transform="matrix(1, 0, 0, -1, 115.026, 125.956)"/>
<path fill="none" stroke-width="0.79701" stroke-linecap="butt" stroke-linejoin="miter" stroke="rgb(0%, 39.99939%, 19.999695%)" stroke-opacity="1" stroke-miterlimit="10" d="M -89.311156 -29.770562 L -39.693969 -29.770562 " transform="matrix(1, 0, 0, -1, 115.026, 125.956)"/>
<g fill="rgb(0%, 39.99939%, 19.999695%)" fill-opacity="1">
<use xlink:href="#glyph-4-0" x="34.922" y="158.157"/>
</g>
<g fill="rgb(0%, 39.99939%, 19.999695%)" fill-opacity="1">
<use xlink:href="#glyph-2-0" x="32.986" y="164.892"/>
</g>
<g fill="rgb(0%, 39.99939%, 19.999695%)" fill-opacity="1">
<use xlink:href="#glyph-3-1" x="39.102" y="165.999"/>
</g>
<path fill="none" stroke-width="0.79701" stroke-linecap="butt" stroke-linejoin="miter" stroke="rgb(0%, 39.99939%, 19.999695%)" stroke-opacity="1" stroke-miterlimit="10" d="M 0.00134375 -19.848687 L 0.00134375 -0.00103125 " transform="matrix(1, 0, 0, -1, 115.026, 125.956)"/>
<g fill="rgb(0%, 39.99939%, 19.999695%)" fill-opacity="1">
<use xlink:href="#glyph-5-0" x="117.456" y="139.077"/>
</g>
<g fill="rgb(0%, 39.99939%, 19.999695%)" fill-opacity="1">
<use xlink:href="#glyph-2-0" x="118.745" y="138.049"/>
</g>
<g fill="rgb(0%, 39.99939%, 19.999695%)" fill-opacity="1">
<use xlink:href="#glyph-3-2" x="124.861" y="139.156"/>
</g>
<path fill="none" stroke-width="0.79701" stroke-linecap="butt" stroke-linejoin="miter" stroke="rgb(0%, 0%, 0%)" stroke-opacity="1" stroke-miterlimit="10" d="M -39.693969 -29.770562 C -29.772094 -28.778375 -9.920531 -26.794 0.00134375 -19.848687 " transform="matrix(1, 0, 0, -1, 115.026, 125.956)"/>
<g fill="rgb(0%, 0%, 0%)" fill-opacity="1">
<use xlink:href="#glyph-2-0" x="90.045" y="148.171"/>
</g>
<g fill="rgb(0%, 0%, 0%)" fill-opacity="1">
<use xlink:href="#glyph-3-3" x="96.161" y="149.278"/>
</g>
<path fill="none" stroke-width="0.79701" stroke-linecap="butt" stroke-linejoin="miter" stroke="rgb(50%, 3.999329%, 9.999084%)" stroke-opacity="1" stroke-miterlimit="10" d="M -59.541625 -29.770562 C -29.772094 -64.497125 -9.920531 -39.692437 0.00134375 -19.848687 " transform="matrix(1, 0, 0, -1, 115.026, 125.956)"/>
<g fill="rgb(50%, 3.999329%, 9.999084%)" fill-opacity="1">
<use xlink:href="#glyph-6-0" x="90.742" y="174.737"/>
</g>
<g fill="rgb(50%, 3.999329%, 9.999084%)" fill-opacity="1">
<use xlink:href="#glyph-2-1" x="70.975" y="181.43"/>
</g>
<g fill="rgb(50%, 3.999329%, 9.999084%)" fill-opacity="1">
<use xlink:href="#glyph-2-2" x="75.910883" y="181.43"/>
<use xlink:href="#glyph-2-3" x="80.145397" y="181.43"/>
</g>
<g fill="rgb(50%, 3.999329%, 9.999084%)" fill-opacity="1">
<use xlink:href="#glyph-2-4" x="84.619014" y="181.43"/>
</g>
<g fill="rgb(50%, 3.999329%, 9.999084%)" fill-opacity="1">
<use xlink:href="#glyph-2-5" x="90.733675" y="181.43"/>
</g>
<g fill="rgb(50%, 3.999329%, 9.999084%)" fill-opacity="1">
<use xlink:href="#glyph-7-0" x="96.85" y="181.43"/>
</g>
<g fill="rgb(50%, 3.999329%, 9.999084%)" fill-opacity="1">
<use xlink:href="#glyph-8-0" x="101.976" y="177.522"/>
</g>
<g fill="rgb(50%, 3.999329%, 9.999084%)" fill-opacity="1">
<use xlink:href="#glyph-3-4" x="101.69" y="184.097"/>
</g>
<path fill="none" stroke-width="0.79701" stroke-linecap="butt" stroke-linejoin="miter" stroke="rgb(3.999329%, 9.999084%, 50%)" stroke-opacity="1" stroke-miterlimit="10" d="M -89.311156 -29.770562 C -94.272094 39.686469 -54.572875 68.463813 0.00134375 73.42475 " transform="matrix(1, 0, 0, -1, 115.026, 125.956)"/>
<g fill="rgb(3.999329%, 9.999084%, 50%)" fill-opacity="1">
<use xlink:href="#glyph-9-0" x="47.548" y="83.929"/>
</g>
<path fill="none" stroke-width="0.79701" stroke-linecap="butt" stroke-linejoin="miter" stroke="rgb(3.999329%, 9.999084%, 50%)" stroke-opacity="1" stroke-miterlimit="10" d="M -39.693969 -29.770562 C -49.615844 19.842719 -24.80725 44.651313 0.00134375 49.61225 " transform="matrix(1, 0, 0, -1, 115.026, 125.956)"/>
<g fill="rgb(3.999329%, 9.999084%, 50%)" fill-opacity="1">
<use xlink:href="#glyph-10-0" x="82.539" y="103.29"/>
</g>
<path fill="none" stroke-width="0.79701" stroke-linecap="butt" stroke-linejoin="miter" stroke="rgb(3.999329%, 9.999084%, 50%)" stroke-opacity="1" stroke-miterlimit="10" d="M 0.00134375 -19.848687 C -9.920531 -14.883844 -9.920531 16.866156 0.00134375 19.846625 " transform="matrix(1, 0, 0, -1, 115.026, 125.956)"/>
<g fill="rgb(3.999329%, 9.999084%, 50%)" fill-opacity="1">
<use xlink:href="#glyph-5-0" x="110.014" y="128.411"/>
</g>
<g fill="rgb(0%, 0%, 0%)" fill-opacity="1">
<use xlink:href="#glyph-7-1" x="118.545" y="35.689"/>
</g>
<g fill="rgb(0%, 0%, 0%)" fill-opacity="1">
<use xlink:href="#glyph-11-0" x="112.535" y="28.937"/>
</g>
<g fill="rgb(0%, 0%, 0%)" fill-opacity="1">
<use xlink:href="#glyph-7-2" x="29.235" y="151.1"/>
</g>
<g fill="rgb(0%, 0%, 0%)" fill-opacity="1">
<use xlink:href="#glyph-3-0" x="34.385" y="152.207"/>
</g>
<g fill="rgb(0%, 0%, 0%)" fill-opacity="1">
<use xlink:href="#glyph-11-0" x="23.225" y="157.94"/>
</g>
<g fill="rgb(0%, 0%, 0%)" fill-opacity="1">
<use xlink:href="#glyph-7-2" x="50.741" y="150.048"/>
</g>
<g fill="rgb(0%, 0%, 0%)" fill-opacity="1">
<use xlink:href="#glyph-8-0" x="55.891" y="151.044"/>
</g>
<g fill="rgb(0%, 0%, 0%)" fill-opacity="1">
<use xlink:href="#glyph-11-0" x="52.995" y="157.94"/>
</g>
<g fill="rgb(0%, 0%, 0%)" fill-opacity="1">
<use xlink:href="#glyph-7-2" x="67.784" y="164.692"/>
</g>
<g fill="rgb(0%, 0%, 0%)" fill-opacity="1">
<use xlink:href="#glyph-3-5" x="72.934" y="165.689"/>
<use xlink:href="#glyph-3-6" x="75.851069" y="165.689"/>
<use xlink:href="#glyph-3-7" x="79.50398" y="165.689"/>
</g>
<g fill="rgb(0%, 0%, 0%)" fill-opacity="1">
<use xlink:href="#glyph-11-0" x="72.841" y="157.94"/>
</g>
<g fill="rgb(0%, 0%, 0%)" fill-opacity="1">
<use xlink:href="#glyph-7-2" x="118.545" y="147.292"/>
</g>
<g fill="rgb(0%, 0%, 0%)" fill-opacity="1">
<use xlink:href="#glyph-12-0" x="124.141" y="144.48"/>
</g>
<g fill="rgb(0%, 0%, 0%)" fill-opacity="1">
<use xlink:href="#glyph-8-0" x="123.696" y="149.285"/>
</g>
<g fill="rgb(0%, 0%, 0%)" fill-opacity="1">
<use xlink:href="#glyph-11-0" x="112.535" y="148.017"/>
</g>
<g fill="rgb(0%, 0%, 0%)" fill-opacity="1">
<use xlink:href="#glyph-7-3" x="118.545" y="122.437"/>
</g>
<g fill="rgb(0%, 0%, 0%)" fill-opacity="1">
<use xlink:href="#glyph-11-0" x="112.535" y="128.17"/>
</g>
<g fill="rgb(3.999329%, 9.999084%, 50%)" fill-opacity="1">
<use xlink:href="#glyph-13-0" x="50.081" y="108.265"/>
</g>
<g fill="rgb(3.999329%, 9.999084%, 50%)" fill-opacity="1">
<use xlink:href="#glyph-2-6" x="56.668" y="108.265"/>
</g>
<g fill="rgb(50%, 3.999329%, 9.999084%)" fill-opacity="1">
<use xlink:href="#glyph-2-7" x="74.887" y="198.558"/>
<use xlink:href="#glyph-2-6" x="81.473491" y="198.558"/>
</g>
<g fill="rgb(50%, 3.999329%, 9.999084%)" fill-opacity="1">
<use xlink:href="#glyph-7-0" x="73.687" y="48.312"/>
</g>
<g fill="rgb(50%, 3.999329%, 9.999084%)" fill-opacity="1">
<use xlink:href="#glyph-8-1" x="78.813" y="45.499"/>
</g>
<g fill="rgb(50%, 3.999329%, 9.999084%)" fill-opacity="1">
<use xlink:href="#glyph-3-4" x="78.527" y="50.912"/>
</g>
<g fill="rgb(3.999329%, 9.999084%, 50%)" fill-opacity="1">
<use xlink:href="#glyph-7-0" x="85.737" y="48.312"/>
</g>
<g fill="rgb(3.999329%, 9.999084%, 50%)" fill-opacity="1">
<use xlink:href="#glyph-12-1" x="90.576" y="49.385"/>
</g>
<g fill="rgb(50%, 3.999329%, 9.999084%)" fill-opacity="1">
<use xlink:href="#glyph-7-0" x="68.707" y="73.151"/>
</g>
<g fill="rgb(50%, 3.999329%, 9.999084%)" fill-opacity="1">
<use xlink:href="#glyph-8-1" x="73.832" y="70.338"/>
</g>
<g fill="rgb(50%, 3.999329%, 9.999084%)" fill-opacity="1">
<use xlink:href="#glyph-3-4" x="73.546" y="75.751"/>
</g>
<g fill="rgb(0%, 39.99939%, 19.999695%)" fill-opacity="1">
<use xlink:href="#glyph-7-0" x="80.756" y="73.151"/>
</g>
<g fill="rgb(0%, 39.99939%, 19.999695%)" fill-opacity="1">
<use xlink:href="#glyph-8-2" x="85.881" y="70.338"/>
</g>
<g fill="rgb(0%, 39.99939%, 19.999695%)" fill-opacity="1">
<use xlink:href="#glyph-8-3" x="85.595" y="75.143"/>
</g>
<g fill="rgb(3.999329%, 9.999084%, 50%)" fill-opacity="1">
<use xlink:href="#glyph-7-0" x="90.717" y="73.151"/>
</g>
<g fill="rgb(3.999329%, 9.999084%, 50%)" fill-opacity="1">
<use xlink:href="#glyph-12-1" x="95.557" y="74.224"/>
</g>
<g fill="rgb(50%, 3.999329%, 9.999084%)" fill-opacity="1">
<use xlink:href="#glyph-7-0" x="133.427" y="78.108"/>
</g>
<g fill="rgb(50%, 3.999329%, 9.999084%)" fill-opacity="1">
<use xlink:href="#glyph-8-1" x="138.552" y="75.296"/>
</g>
<g fill="rgb(50%, 3.999329%, 9.999084%)" fill-opacity="1">
<use xlink:href="#glyph-3-4" x="138.266" y="80.709"/>
</g>
<g fill="rgb(0%, 39.99939%, 19.999695%)" fill-opacity="1">
<use xlink:href="#glyph-7-0" x="145.476" y="78.108"/>
</g>
<g fill="rgb(0%, 39.99939%, 19.999695%)" fill-opacity="1">
<use xlink:href="#glyph-8-2" x="150.602" y="75.296"/>
</g>
<g fill="rgb(0%, 39.99939%, 19.999695%)" fill-opacity="1">
<use xlink:href="#glyph-8-3" x="150.316" y="80.101"/>
</g>
<g fill="rgb(50%, 3.999329%, 9.999084%)" fill-opacity="1">
<use xlink:href="#glyph-7-0" x="155.438" y="78.108"/>
</g>
<g fill="rgb(50%, 3.999329%, 9.999084%)" fill-opacity="1">
<use xlink:href="#glyph-3-4" x="160.277" y="79.182"/>
</g>
<g fill="rgb(3.999329%, 9.999084%, 50%)" fill-opacity="1">
<use xlink:href="#glyph-7-0" x="166.365" y="78.108"/>
</g>
<g fill="rgb(3.999329%, 9.999084%, 50%)" fill-opacity="1">
<use xlink:href="#glyph-12-1" x="171.205" y="79.182"/>
</g>
<path fill="none" stroke-width="0.79701" stroke-linecap="butt" stroke-linejoin="miter" stroke="rgb(50%, 50%, 50%)" stroke-opacity="1" stroke-miterlimit="10" d="M 14.884156 49.620063 L -14.221312 30.213813 " transform="matrix(1, 0, 0, -1, 115.026, 125.956)"/>
<path fill="none" stroke-width="0.79701" stroke-linecap="round" stroke-linejoin="round" stroke="rgb(50%, 50%, 50%)" stroke-opacity="1" stroke-miterlimit="10" d="M -2.551317 3.110273 C -2.085611 1.245595 -1.044492 0.363558 -0.0000724135 0.000497532 C -1.045646 -0.363443 -2.083685 -1.244195 -2.549754 -3.112034 " transform="matrix(-0.83195, 0.55475, 0.55475, 0.83195, 100.47232, 95.96447)"/>
<g fill="rgb(50%, 3.999329%, 9.999084%)" fill-opacity="1">
<use xlink:href="#glyph-7-0" x="144.343" y="107.844"/>
</g>
<g fill="rgb(50%, 3.999329%, 9.999084%)" fill-opacity="1">
<use xlink:href="#glyph-8-1" x="149.468" y="105.031"/>
</g>
<g fill="rgb(50%, 3.999329%, 9.999084%)" fill-opacity="1">
<use xlink:href="#glyph-3-4" x="149.182" y="110.444"/>
</g>
<g fill="rgb(0%, 39.99939%, 19.999695%)" fill-opacity="1">
<use xlink:href="#glyph-7-0" x="156.392" y="107.844"/>
</g>
<g fill="rgb(0%, 39.99939%, 19.999695%)" fill-opacity="1">
<use xlink:href="#glyph-8-2" x="161.517" y="105.031"/>
</g>
<g fill="rgb(0%, 39.99939%, 19.999695%)" fill-opacity="1">
<use xlink:href="#glyph-8-3" x="161.232" y="109.836"/>
</g>
<g fill="rgb(50%, 3.999329%, 9.999084%)" fill-opacity="1">
<use xlink:href="#glyph-7-0" x="166.353" y="107.844"/>
</g>
<g fill="rgb(50%, 3.999329%, 9.999084%)" fill-opacity="1">
<use xlink:href="#glyph-8-0" x="171.479" y="103.936"/>
</g>
<g fill="rgb(50%, 3.999329%, 9.999084%)" fill-opacity="1">
<use xlink:href="#glyph-3-4" x="171.193" y="110.511"/>
</g>
<g fill="rgb(0%, 39.99939%, 19.999695%)" fill-opacity="1">
<use xlink:href="#glyph-7-0" x="177.281" y="107.844"/>
</g>
<g fill="rgb(0%, 39.99939%, 19.999695%)" fill-opacity="1">
<use xlink:href="#glyph-8-4" x="182.406" y="105.031"/>
</g>
<g fill="rgb(0%, 39.99939%, 19.999695%)" fill-opacity="1">
<use xlink:href="#glyph-8-3" x="182.12" y="109.836"/>
</g>
<g fill="rgb(3.999329%, 9.999084%, 50%)" fill-opacity="1">
<use xlink:href="#glyph-7-0" x="186.855" y="107.844"/>
</g>
<g fill="rgb(3.999329%, 9.999084%, 50%)" fill-opacity="1">
<use xlink:href="#glyph-12-1" x="191.694" y="108.918"/>
</g>
<path fill="none" stroke-width="0.79701" stroke-linecap="butt" stroke-linejoin="miter" stroke="rgb(50%, 50%, 50%)" stroke-opacity="1" stroke-miterlimit="10" d="M 25.802125 19.846625 L -3.2135 10.17475 " transform="matrix(1, 0, 0, -1, 115.026, 125.956)"/>
<path fill="none" stroke-width="0.79701" stroke-linecap="round" stroke-linejoin="round" stroke="rgb(50%, 50%, 50%)" stroke-opacity="1" stroke-miterlimit="10" d="M -2.548715 3.110062 C -2.084288 1.242222 -1.046635 0.365102 0.000916698 -0.000590222 C -1.046658 -0.363745 -2.085602 -1.244506 -2.551382 -3.111081 " transform="matrix(-0.94862, 0.31624, 0.31624, 0.94862, 111.43465, 115.90652)"/>
<g fill="rgb(50%, 3.999329%, 9.999084%)" fill-opacity="1">
<use xlink:href="#glyph-7-0" x="126.481" y="182.3"/>
</g>
<g fill="rgb(50%, 3.999329%, 9.999084%)" fill-opacity="1">
<use xlink:href="#glyph-8-1" x="131.606" y="179.487"/>
</g>
<g fill="rgb(50%, 3.999329%, 9.999084%)" fill-opacity="1">
<use xlink:href="#glyph-3-4" x="131.32" y="184.9"/>
</g>
<g fill="rgb(0%, 39.99939%, 19.999695%)" fill-opacity="1">
<use xlink:href="#glyph-7-0" x="138.53" y="182.3"/>
</g>
<g fill="rgb(0%, 39.99939%, 19.999695%)" fill-opacity="1">
<use xlink:href="#glyph-8-2" x="143.655" y="179.487"/>
</g>
<g fill="rgb(0%, 39.99939%, 19.999695%)" fill-opacity="1">
<use xlink:href="#glyph-8-3" x="143.369" y="184.292"/>
</g>
<g fill="rgb(50%, 3.999329%, 9.999084%)" fill-opacity="1">
<use xlink:href="#glyph-7-0" x="148.491" y="182.3"/>
</g>
<g fill="rgb(50%, 3.999329%, 9.999084%)" fill-opacity="1">
<use xlink:href="#glyph-3-4" x="153.331" y="183.373"/>
</g>
<path fill="none" stroke-width="0.79701" stroke-linecap="butt" stroke-linejoin="miter" stroke="rgb(50%, 50%, 50%)" stroke-opacity="1" stroke-miterlimit="10" d="M 7.934938 -54.583062 L -21.170531 -35.172906 " transform="matrix(1, 0, 0, -1, 115.026, 125.956)"/>
<path fill="none" stroke-width="0.79701" stroke-linecap="round" stroke-linejoin="round" stroke="rgb(50%, 50%, 50%)" stroke-opacity="1" stroke-miterlimit="10" d="M -2.551453 3.11241 C -2.085357 1.244573 -1.047302 0.363833 -0.0017207 -0.0000941488 C -1.046138 -0.36317 -2.083997 -1.243056 -2.550762 -3.113164 " transform="matrix(-0.83194, -0.55476, -0.55476, 0.83194, 93.52586, 160.90928)"/>
<g fill="rgb(50%, 3.999329%, 9.999084%)" fill-opacity="1">
<use xlink:href="#glyph-7-0" x="168.156" y="217.031"/>
</g>
<g fill="rgb(50%, 3.999329%, 9.999084%)" fill-opacity="1">
<use xlink:href="#glyph-8-1" x="173.281" y="214.219"/>
</g>
<g fill="rgb(50%, 3.999329%, 9.999084%)" fill-opacity="1">
<use xlink:href="#glyph-3-4" x="172.995" y="219.631"/>
</g>
<g fill="rgb(0%, 39.99939%, 19.999695%)" fill-opacity="1">
<use xlink:href="#glyph-7-0" x="180.205" y="217.031"/>
</g>
<g fill="rgb(0%, 39.99939%, 19.999695%)" fill-opacity="1">
<use xlink:href="#glyph-8-2" x="185.33" y="214.219"/>
</g>
<g fill="rgb(0%, 39.99939%, 19.999695%)" fill-opacity="1">
<use xlink:href="#glyph-8-3" x="185.044" y="219.024"/>
</g>
<g fill="rgb(50%, 3.999329%, 9.999084%)" fill-opacity="1">
<use xlink:href="#glyph-7-0" x="190.166" y="217.031"/>
</g>
<g fill="rgb(50%, 3.999329%, 9.999084%)" fill-opacity="1">
<use xlink:href="#glyph-3-4" x="195.006" y="218.105"/>
</g>
<path fill="none" stroke-width="0.79701" stroke-linecap="butt" stroke-linejoin="miter" stroke="rgb(50%, 50%, 50%)" stroke-opacity="1" stroke-miterlimit="10" d="M 49.614625 -89.317437 L -9.166625 -69.715875 " transform="matrix(1, 0, 0, -1, 115.026, 125.956)"/>
<path fill="none" stroke-width="0.79701" stroke-linecap="round" stroke-linejoin="round" stroke="rgb(50%, 50%, 50%)" stroke-opacity="1" stroke-miterlimit="10" d="M -2.548809 3.111894 C -2.082905 1.245375 -1.047619 0.363462 -0.0000320584 0.000384626 C -1.043839 -0.36414 -2.085124 -1.242557 -2.549415 -3.110405 " transform="matrix(-0.94861, -0.31631, -0.31631, 0.94861, 105.48056, 195.5465)"/>
</svg>
