<?xml version="1.0" encoding="UTF-8" standalone="no"?>
<svg
   width="159.53529pt"
   height="161.34596pt"
   viewBox="0 0 159.53529 161.34597"
   version="1.1"
   id="svg2027"
   sodipodi:docname="mri.svg"
   inkscape:version="1.2 (dc2aeda, 2022-05-15)"
   xmlns:inkscape="http://www.inkscape.org/namespaces/inkscape"
   xmlns:sodipodi="http://sodipodi.sourceforge.net/DTD/sodipodi-0.dtd"
   xmlns:xlink="http://www.w3.org/1999/xlink"
   xmlns="http://www.w3.org/2000/svg"
   xmlns:svg="http://www.w3.org/2000/svg">
  <sodipodi:namedview
     id="namedview2029"
     pagecolor="#ffffff"
     bordercolor="#000000"
     borderopacity="0.25"
     inkscape:showpageshadow="2"
     inkscape:pageopacity="0.0"
     inkscape:pagecheckerboard="0"
     inkscape:deskcolor="#d1d1d1"
     inkscape:document-units="pt"
     showgrid="false"
     inkscape:zoom="1.5850391"
     inkscape:cx="-51.10284"
     inkscape:cy="108.83012"
     inkscape:window-width="1920"
     inkscape:window-height="1027"
     inkscape:window-x="1512"
     inkscape:window-y="25"
     inkscape:window-maximized="1"
     inkscape:current-layer="svg2027" />
  <defs
     id="defs1875">
    <g
       id="g1873">
      <g
         id="glyph-0-0">
        <path
           d="m 4.84375,-3.796875 c 0.046875,-0.140625 0.046875,-0.15625 0.046875,-0.234375 0,-0.171875 -0.140625,-0.265625 -0.296875,-0.265625 -0.09375,0 -0.25,0.0625 -0.34375,0.203125 -0.015625,0.0625 -0.109375,0.359375 -0.140625,0.546875 -0.078125,0.25 -0.140625,0.53125 -0.203125,0.796875 l -0.453125,1.796875 c -0.03125,0.140625 -0.46875,0.84375 -1.125,0.84375 -0.5,0 -0.609375,-0.4375 -0.609375,-0.8125 C 1.71875,-1.375 1.890625,-2 2.21875,-2.875 2.375,-3.28125 2.421875,-3.390625 2.421875,-3.59375 c 0,-0.4375 -0.3125,-0.8125 -0.8125,-0.8125 -0.953125,0 -1.3125,1.453125 -1.3125,1.53125 0,0.109375 0.09375,0.109375 0.109375,0.109375 0.109375,0 0.109375,-0.03125 0.15625,-0.1875 0.28125,-0.9375 0.671875,-1.234375 1.015625,-1.234375 0.078125,0 0.25,0 0.25,0.3125 0,0.25 -0.109375,0.515625 -0.171875,0.703125 -0.40625,1.0625 -0.578125,1.625 -0.578125,2.09375 0,0.890625 0.625,1.1875 1.21875,1.1875 0.390625,0 0.71875,-0.171875 1,-0.453125 -0.125,0.515625 -0.25,1.015625 -0.640625,1.546875 -0.265625,0.328125 -0.640625,0.625 -1.09375,0.625 -0.140625,0 -0.59375,-0.03125 -0.765625,-0.421875 0.15625,0 0.296875,0 0.421875,-0.125 C 1.328125,1.203125 1.421875,1.0625 1.421875,0.875 1.421875,0.5625 1.15625,0.53125 1.0625,0.53125 0.828125,0.53125 0.5,0.6875 0.5,1.171875 c 0,0.5 0.4375,0.875 1.0625,0.875 1.015625,0 2.046875,-0.90625 2.328125,-2.03125 z m 0,0"
           id="path1783" />
      </g>
      <g
         id="glyph-0-1">
        <path
           d="m 1.328125,-0.828125 c 0.53125,-0.578125 0.828125,-0.828125 1.1875,-1.140625 0,0 0.609375,-0.53125 0.96875,-0.890625 C 4.4375,-3.78125 4.65625,-4.265625 4.65625,-4.3125 c 0,-0.09375 -0.09375,-0.09375 -0.109375,-0.09375 -0.078125,0 -0.09375,0.015625 -0.15625,0.109375 -0.296875,0.484375 -0.5,0.640625 -0.734375,0.640625 -0.25,0 -0.359375,-0.15625 -0.515625,-0.328125 -0.1875,-0.21875 -0.359375,-0.421875 -0.6875,-0.421875 -0.75,0 -1.203125,0.921875 -1.203125,1.140625 0,0.046875 0.03125,0.109375 0.109375,0.109375 0.09375,0 0.109375,-0.046875 0.140625,-0.109375 0.1875,-0.46875 0.765625,-0.46875 0.84375,-0.46875 0.203125,0 0.390625,0.0625 0.625,0.140625 0.40625,0.15625 0.515625,0.15625 0.765625,0.15625 -0.359375,0.421875 -1.1875,1.140625 -1.375,1.296875 l -0.90625,0.84375 C 0.78125,-0.625 0.421875,-0.0625 0.421875,0.015625 c 0,0.09375 0.109375,0.09375 0.125,0.09375 0.078125,0 0.09375,-0.015625 0.15625,-0.125 0.234375,-0.359375 0.53125,-0.625 0.859375,-0.625 0.21875,0 0.328125,0.09375 0.578125,0.375 0.15625,0.21875 0.34375,0.375 0.625,0.375 1,0 1.578125,-1.265625 1.578125,-1.53125 0,-0.046875 -0.046875,-0.109375 -0.125,-0.109375 -0.09375,0 -0.109375,0.0625 -0.140625,0.140625 C 3.84375,-0.75 3.203125,-0.5625 2.875,-0.5625 c -0.1875,0 -0.375,-0.0625 -0.578125,-0.125 -0.34375,-0.125 -0.5,-0.171875 -0.703125,-0.171875 -0.015625,0 -0.171875,0 -0.265625,0.03125 z m 0,0"
           id="path1786" />
      </g>
      <g
         id="glyph-0-2">
        <path
           d="M 3.484375,-0.5625 C 3.59375,-0.15625 3.953125,0.109375 4.375,0.109375 4.71875,0.109375 4.953125,-0.125 5.109375,-0.4375 5.28125,-0.796875 5.40625,-1.40625 5.40625,-1.421875 c 0,-0.109375 -0.078125,-0.109375 -0.109375,-0.109375 -0.109375,0 -0.109375,0.046875 -0.140625,0.1875 -0.140625,0.5625 -0.328125,1.234375 -0.75,1.234375 -0.203125,0 -0.3125,-0.125 -0.3125,-0.453125 0,-0.21875 0.125,-0.6875 0.203125,-1.046875 L 4.578125,-2.6875 C 4.609375,-2.828125 4.703125,-3.203125 4.75,-3.359375 4.796875,-3.59375 4.890625,-3.96875 4.890625,-4.03125 c 0,-0.171875 -0.140625,-0.265625 -0.28125,-0.265625 -0.046875,0 -0.3125,0.015625 -0.390625,0.34375 -0.1875,0.734375 -0.625,2.484375 -0.75,3 -0.015625,0.046875 -0.40625,0.84375 -1.140625,0.84375 -0.515625,0 -0.609375,-0.453125 -0.609375,-0.8125 0,-0.5625 0.28125,-1.34375 0.53125,-2.03125 0.125,-0.3125 0.171875,-0.453125 0.171875,-0.640625 0,-0.4375 -0.3125,-0.8125 -0.8125,-0.8125 -0.953125,0 -1.3125,1.453125 -1.3125,1.53125 0,0.109375 0.09375,0.109375 0.109375,0.109375 0.109375,0 0.109375,-0.03125 0.15625,-0.1875 0.25,-0.859375 0.640625,-1.234375 1.015625,-1.234375 0.09375,0 0.25,0.015625 0.25,0.328125 0,0.234375 -0.109375,0.53125 -0.171875,0.671875 -0.375,1 -0.578125,1.609375 -0.578125,2.09375 0,0.953125 0.6875,1.203125 1.21875,1.203125 0.65625,0 1.015625,-0.453125 1.1875,-0.671875 z m 0,0"
           id="path1789" />
      </g>
      <g
         id="glyph-1-0">
        <path
           d="m 4.6875,1.015625 -2.578125,1 -2.125,-1.765625 1.40625,6.203125 z m 0,0"
           id="path1792" />
      </g>
      <g
         id="glyph-2-0">
        <path
           d="m 6.84375,-3.265625 c 0.15625,0 0.34375,0 0.34375,-0.1875 C 7.1875,-3.65625 7,-3.65625 6.859375,-3.65625 h -5.96875 c -0.140625,0 -0.328125,0 -0.328125,0.203125 0,0.1875 0.1875,0.1875 0.328125,0.1875 z m 0.015625,1.9375 c 0.140625,0 0.328125,0 0.328125,-0.203125 0,-0.1875 -0.1875,-0.1875 -0.34375,-0.1875 H 0.890625 c -0.140625,0 -0.328125,0 -0.328125,0.1875 0,0.203125 0.1875,0.203125 0.328125,0.203125 z m 0,0"
           id="path1795" />
      </g>
      <g
         id="glyph-2-1">
        <path
           d="m 2.9375,-6.375 c 0,-0.25 0,-0.265625 -0.234375,-0.265625 C 2.078125,-6 1.203125,-6 0.890625,-6 v 0.3125 c 0.203125,0 0.78125,0 1.296875,-0.265625 v 5.171875 c 0,0.359375 -0.03125,0.46875 -0.921875,0.46875 h -0.3125 V 0 c 0.34375,-0.03125 1.203125,-0.03125 1.609375,-0.03125 0.390625,0 1.265625,0 1.609375,0.03125 v -0.3125 h -0.3125 c -0.90625,0 -0.921875,-0.109375 -0.921875,-0.46875 z m 0,0"
           id="path1798" />
      </g>
      <g
         id="glyph-2-2">
        <path
           d="m 4.578125,-3.1875 c 0,-0.796875 -0.046875,-1.59375 -0.390625,-2.328125 -0.453125,-0.96875 -1.28125,-1.125 -1.6875,-1.125 -0.609375,0 -1.328125,0.265625 -1.75,1.1875 -0.3125,0.6875 -0.359375,1.46875 -0.359375,2.265625 0,0.75 0.03125,1.640625 0.453125,2.40625 0.421875,0.796875 1.15625,1 1.640625,1 0.53125,0 1.296875,-0.203125 1.734375,-1.15625 0.3125,-0.6875 0.359375,-1.46875 0.359375,-2.25 z M 2.484375,0 C 2.09375,0 1.5,-0.25 1.328125,-1.203125 1.21875,-1.796875 1.21875,-2.71875 1.21875,-3.3125 c 0,-0.640625 0,-1.296875 0.078125,-1.828125 0.1875,-1.1875 0.9375,-1.28125 1.1875,-1.28125 0.328125,0 0.984375,0.1875 1.171875,1.171875 0.109375,0.5625 0.109375,1.3125 0.109375,1.9375 0,0.75 0,1.421875 -0.109375,2.0625 C 3.5,-0.296875 2.9375,0 2.484375,0 Z m 0,0"
           id="path1801" />
      </g>
      <g
         id="glyph-2-3">
        <path
           d="M 0.34375,-6.8125 V -6.5 h 0.25 c 0.765625,0 0.78125,0.109375 0.78125,0.46875 v 5.25 c 0,0.359375 -0.015625,0.46875 -0.78125,0.46875 h -0.25 V 0 H 4 C 5.671875,0 7.046875,-1.46875 7.046875,-3.34375 7.046875,-5.25 5.703125,-6.8125 4,-6.8125 Z m 2.375,6.5 C 2.25,-0.3125 2.234375,-0.375 2.234375,-0.703125 V -6.09375 C 2.234375,-6.4375 2.25,-6.5 2.71875,-6.5 h 1 c 0.625,0 1.3125,0.21875 1.8125,0.921875 0.4375,0.59375 0.515625,1.453125 0.515625,2.234375 0,1.09375 -0.1875,1.703125 -0.546875,2.1875 -0.203125,0.265625 -0.765625,0.84375 -1.765625,0.84375 z m 0,0"
           id="path1804" />
      </g>
      <g
         id="glyph-2-4">
        <path
           d="M 1.765625,-4.40625 0.375,-4.296875 v 0.3125 c 0.640625,0 0.734375,0.0625 0.734375,0.546875 V -0.75 c 0,0.4375 -0.109375,0.4375 -0.78125,0.4375 V 0 C 0.640625,-0.015625 1.1875,-0.03125 1.421875,-0.03125 1.78125,-0.03125 2.125,-0.015625 2.46875,0 v -0.3125 c -0.671875,0 -0.703125,-0.046875 -0.703125,-0.4375 z m 0.03125,-1.734375 c 0,-0.3125 -0.234375,-0.53125 -0.515625,-0.53125 -0.3125,0 -0.53125,0.265625 -0.53125,0.53125 0,0.265625 0.21875,0.53125 0.53125,0.53125 0.28125,0 0.515625,-0.21875 0.515625,-0.53125 z m 0,0"
           id="path1807" />
      </g>
      <g
         id="glyph-2-5">
        <path
           d="m 2.078125,-1.9375 c 0.21875,0.046875 1.03125,0.203125 1.03125,0.921875 0,0.5 -0.34375,0.90625 -1.125,0.90625 -0.84375,0 -1.203125,-0.5625 -1.390625,-1.421875 C 0.5625,-1.65625 0.5625,-1.6875 0.453125,-1.6875 c -0.125,0 -0.125,0.0625 -0.125,0.234375 V -0.125 c 0,0.171875 0,0.234375 0.109375,0.234375 0.046875,0 0.0625,-0.015625 0.25,-0.203125 0.015625,-0.015625 0.015625,-0.03125 0.203125,-0.21875 0.4375,0.40625 0.890625,0.421875 1.09375,0.421875 1.140625,0 1.609375,-0.671875 1.609375,-1.390625 0,-0.515625 -0.296875,-0.828125 -0.421875,-0.9375 C 2.84375,-2.546875 2.453125,-2.625 2.03125,-2.703125 1.46875,-2.8125 0.8125,-2.9375 0.8125,-3.515625 c 0,-0.359375 0.25,-0.765625 1.109375,-0.765625 1.09375,0 1.15625,0.90625 1.171875,1.203125 0,0.09375 0.09375,0.09375 0.109375,0.09375 0.140625,0 0.140625,-0.046875 0.140625,-0.234375 v -1.015625 c 0,-0.15625 0,-0.234375 -0.109375,-0.234375 -0.046875,0 -0.078125,0 -0.203125,0.125 -0.03125,0.03125 -0.125,0.125 -0.171875,0.15625 -0.375,-0.28125 -0.78125,-0.28125 -0.9375,-0.28125 -1.21875,0 -1.59375,0.671875 -1.59375,1.234375 0,0.34375 0.15625,0.625 0.421875,0.84375 0.328125,0.25 0.609375,0.3125 1.328125,0.453125 z m 0,0"
           id="path1810" />
      </g>
      <g
         id="glyph-2-6">
        <path
           d="m 3.78125,-0.609375 v 1.78125 C 3.78125,1.625 3.671875,1.625 3.015625,1.625 V 1.9375 C 3.34375,1.921875 3.875,1.90625 4.125,1.90625 c 0.265625,0 0.78125,0.015625 1.125,0.03125 V 1.625 c -0.671875,0 -0.78125,0 -0.78125,-0.453125 V -4.40625 H 4.25 L 3.875,-3.5 C 3.75,-3.78125 3.34375,-4.40625 2.546875,-4.40625 c -1.15625,0 -2.203125,0.96875 -2.203125,2.265625 0,1.25 0.96875,2.25 2.125,2.25 0.6875,0 1.09375,-0.421875 1.3125,-0.71875 z m 0.03125,-2.15625 v 1.40625 C 3.8125,-1.03125 3.640625,-0.75 3.421875,-0.515625 3.296875,-0.375 2.96875,-0.109375 2.5,-0.109375 1.78125,-0.109375 1.171875,-1 1.171875,-2.140625 c 0,-1.1875 0.6875,-2.015625 1.4375,-2.015625 0.796875,0 1.203125,0.859375 1.203125,1.390625 z m 0,0"
           id="path1813" />
      </g>
      <g
         id="glyph-2-7">
        <path
           d="M 3.890625,-0.78125 V 0.109375 L 5.328125,0 V -0.3125 C 4.640625,-0.3125 4.5625,-0.375 4.5625,-0.875 v -3.53125 l -1.46875,0.109375 v 0.3125 c 0.6875,0 0.78125,0.0625 0.78125,0.5625 v 1.765625 c 0,0.875 -0.484375,1.546875 -1.21875,1.546875 -0.828125,0 -0.875,-0.46875 -0.875,-0.984375 v -3.3125 L 0.3125,-4.296875 v 0.3125 c 0.78125,0 0.78125,0.03125 0.78125,0.90625 v 1.5 c 0,0.78125 0,1.6875 1.515625,1.6875 0.5625,0 1,-0.28125 1.28125,-0.890625 z m 0,0"
           id="path1816" />
      </g>
      <g
         id="glyph-2-8">
        <path
           d="M 1.109375,-2.515625 C 1.171875,-4 2.015625,-4.25 2.359375,-4.25 c 1.015625,0 1.125,1.34375 1.125,1.734375 z m 0,0.21875 h 2.78125 c 0.21875,0 0.25,0 0.25,-0.21875 0,-0.984375 -0.546875,-1.953125 -1.78125,-1.953125 -1.15625,0 -2.078125,1.03125 -2.078125,2.28125 0,1.328125 1.046875,2.296875 2.1875,2.296875 C 3.6875,0.109375 4.140625,-1 4.140625,-1.1875 4.140625,-1.28125 4.0625,-1.3125 4,-1.3125 c -0.078125,0 -0.109375,0.0625 -0.125,0.140625 -0.34375,1.03125 -1.25,1.03125 -1.34375,1.03125 -0.5,0 -0.890625,-0.296875 -1.125,-0.671875 -0.296875,-0.46875 -0.296875,-1.125 -0.296875,-1.484375 z m 0,0"
           id="path1819" />
      </g>
      <g
         id="glyph-2-9">
        <path
           d="m 3.78125,-0.546875 v 0.65625 L 5.25,0 v -0.3125 c -0.6875,0 -0.78125,-0.0625 -0.78125,-0.5625 V -6.921875 L 3.046875,-6.8125 V -6.5 c 0.6875,0 0.765625,0.0625 0.765625,0.5625 v 2.15625 c -0.28125,-0.359375 -0.71875,-0.625 -1.25,-0.625 -1.171875,0 -2.21875,0.984375 -2.21875,2.265625 0,1.265625 0.96875,2.25 2.109375,2.25 0.640625,0 1.078125,-0.34375 1.328125,-0.65625 z m 0,-2.671875 v 2.046875 c 0,0.171875 0,0.1875 -0.109375,0.359375 C 3.375,-0.328125 2.9375,-0.109375 2.5,-0.109375 2.046875,-0.109375 1.6875,-0.375 1.453125,-0.75 1.203125,-1.15625 1.171875,-1.71875 1.171875,-2.140625 1.171875,-2.5 1.1875,-3.09375 1.46875,-3.546875 1.6875,-3.859375 2.0625,-4.1875 2.609375,-4.1875 c 0.34375,0 0.765625,0.15625 1.0625,0.59375 0.109375,0.171875 0.109375,0.1875 0.109375,0.375 z m 0,0"
           id="path1822" />
      </g>
      <g
         id="glyph-2-10">
        <path
           d="m 2.21875,-3.65625 v -2.4375 C 2.21875,-6.4375 2.234375,-6.5 2.703125,-6.5 H 3.9375 c 0.96875,0 1.3125,0.84375 1.3125,1.375 0,0.640625 -0.484375,1.46875 -1.59375,1.46875 z M 4.5625,-3.5625 C 5.53125,-3.75 6.21875,-4.390625 6.21875,-5.125 6.21875,-5.984375 5.296875,-6.8125 4,-6.8125 H 0.359375 V -6.5 H 0.59375 c 0.765625,0 0.796875,0.109375 0.796875,0.46875 v 5.25 c 0,0.359375 -0.03125,0.46875 -0.796875,0.46875 H 0.359375 V 0 h 3.90625 c 1.328125,0 2.21875,-0.890625 2.21875,-1.828125 0,-0.859375 -0.8125,-1.609375 -1.921875,-1.734375 z m -0.609375,3.25 h -1.25 c -0.46875,0 -0.484375,-0.0625 -0.484375,-0.390625 v -2.71875 h 1.875 C 5.078125,-3.421875 5.5,-2.5 5.5,-1.828125 5.5,-1.125 4.96875,-0.3125 3.953125,-0.3125 Z m 0,0"
           id="path1825" />
      </g>
      <g
         id="glyph-2-11">
        <path
           d="M 1.765625,-6.921875 0.328125,-6.8125 V -6.5 c 0.703125,0 0.78125,0.0625 0.78125,0.5625 V -0.75 c 0,0.4375 -0.109375,0.4375 -0.78125,0.4375 V 0 C 0.65625,-0.015625 1.1875,-0.03125 1.4375,-0.03125 c 0.25,0 0.734375,0.015625 1.109375,0.03125 v -0.3125 c -0.671875,0 -0.78125,0 -0.78125,-0.4375 z m 0,0"
           id="path1828" />
      </g>
      <g
         id="glyph-2-12">
        <path
           d="M 4.6875,-2.140625 C 4.6875,-3.40625 3.703125,-4.46875 2.5,-4.46875 c -1.25,0 -2.21875,1.09375 -2.21875,2.328125 0,1.296875 1.03125,2.25 2.203125,2.25 1.203125,0 2.203125,-0.984375 2.203125,-2.25 z m -2.1875,2 c -0.4375,0 -0.875,-0.203125 -1.140625,-0.671875 -0.25,-0.4375 -0.25,-1.046875 -0.25,-1.40625 0,-0.390625 0,-0.921875 0.234375,-1.359375 C 1.609375,-4.03125 2.078125,-4.25 2.484375,-4.25 c 0.4375,0 0.859375,0.21875 1.125,0.65625 0.265625,0.421875 0.265625,1 0.265625,1.375 0,0.359375 0,0.90625 -0.21875,1.34375 C 3.421875,-0.421875 2.984375,-0.140625 2.5,-0.140625 Z m 0,0"
           id="path1831" />
      </g>
      <g
         id="glyph-2-13">
        <path
           d="m 1.171875,-2.171875 c 0,-1.625 0.8125,-2.046875 1.34375,-2.046875 0.09375,0 0.71875,0.015625 1.0625,0.375 -0.40625,0.03125 -0.46875,0.328125 -0.46875,0.453125 0,0.265625 0.1875,0.453125 0.453125,0.453125 0.265625,0 0.46875,-0.15625 0.46875,-0.46875 0,-0.671875 -0.765625,-1.0625 -1.53125,-1.0625 -1.25,0 -2.15625,1.078125 -2.15625,2.3125 0,1.28125 0.984375,2.265625 2.140625,2.265625 1.328125,0 1.65625,-1.203125 1.65625,-1.296875 0,-0.09375 -0.109375,-0.09375 -0.140625,-0.09375 -0.078125,0 -0.109375,0.03125 -0.125,0.09375 -0.28125,0.921875 -0.9375,1.046875 -1.296875,1.046875 -0.53125,0 -1.40625,-0.421875 -1.40625,-2.03125 z m 0,0"
           id="path1834" />
      </g>
      <g
         id="glyph-2-14">
        <path
           d="m 1.09375,-0.75 c 0,0.4375 -0.109375,0.4375 -0.78125,0.4375 V 0 c 0.359375,-0.015625 0.859375,-0.03125 1.140625,-0.03125 0.25,0 0.765625,0.015625 1.109375,0.03125 v -0.3125 c -0.671875,0 -0.78125,0 -0.78125,-0.4375 V -2.59375 C 1.78125,-3.625 2.5,-4.1875 3.125,-4.1875 c 0.640625,0 0.75,0.53125 0.75,1.109375 V -0.75 c 0,0.4375 -0.109375,0.4375 -0.78125,0.4375 V 0 c 0.34375,-0.015625 0.859375,-0.03125 1.125,-0.03125 0.25,0 0.78125,0.015625 1.109375,0.03125 v -0.3125 c -0.515625,0 -0.765625,0 -0.765625,-0.296875 v -1.90625 c 0,-0.859375 0,-1.15625 -0.3125,-1.515625 -0.140625,-0.171875 -0.46875,-0.375 -1.046875,-0.375 -0.84375,0 -1.28125,0.59375 -1.453125,0.984375 v -3.5 L 0.3125,-6.8125 V -6.5 c 0.703125,0 0.78125,0.0625 0.78125,0.5625 z m 0,0"
           id="path1837" />
      </g>
      <g
         id="glyph-3-0">
        <path
           d="m -4.796875,-0.25 2.390625,-1.390625 2.375,1.390625 -2.375,-5.890625 z m 0,0"
           id="path1840" />
      </g>
      <g
         id="glyph-4-0">
        <path
           d="m 3.796875,-3.28125 c 0,-0.03125 0.015625,-0.078125 0.015625,-0.125 0,-0.046875 -0.03125,-0.109375 -0.109375,-0.109375 -0.09375,0 -0.421875,0.3125 -0.546875,0.53125 -0.09375,-0.171875 -0.328125,-0.53125 -0.828125,-0.53125 -0.9375,0 -1.984375,1.109375 -1.984375,2.28125 0,0.84375 0.53125,1.3125 1.140625,1.3125 0.40625,0 0.734375,-0.234375 0.96875,-0.4375 0,0.03125 -0.25,1.03125 -0.28125,1.171875 -0.125,0.453125 -0.125,0.46875 -0.625,0.46875 -0.09375,0 -0.203125,0 -0.203125,0.15625 0,0.046875 0.046875,0.109375 0.125,0.109375 0.09375,0 0.28125,-0.015625 0.390625,-0.03125 H 2.28125 c 0.640625,0 0.78125,0.03125 0.84375,0.03125 0.03125,0 0.15625,0 0.15625,-0.15625 0,-0.109375 -0.125,-0.109375 -0.21875,-0.109375 -0.375,0 -0.375,-0.046875 -0.375,-0.125 0,0 0,-0.046875 0.03125,-0.15625 z m -1.1875,2.296875 C 2.578125,-0.875 2.578125,-0.84375 2.453125,-0.6875 2.03125,-0.203125 1.6875,-0.140625 1.515625,-0.140625 c -0.375,0 -0.546875,-0.34375 -0.546875,-0.75 0,-0.375 0.203125,-1.234375 0.390625,-1.578125 0.21875,-0.484375 0.609375,-0.828125 0.984375,-0.828125 0.53125,0 0.671875,0.625 0.671875,0.6875 0,0.03125 -0.015625,0.078125 -0.03125,0.125 z m 0,0"
           id="path1843" />
      </g>
      <g
         id="glyph-4-1">
        <path
           d="m 6.3125,-4.578125 c 0.09375,-0.390625 0.265625,-0.578125 0.84375,-0.59375 0.078125,0 0.140625,-0.0625 0.140625,-0.15625 0,-0.046875 -0.03125,-0.109375 -0.109375,-0.109375 -0.0625,0 -0.21875,0.015625 -0.796875,0.015625 -0.640625,0 -0.75,-0.015625 -0.828125,-0.015625 -0.125,0 -0.140625,0.078125 -0.140625,0.140625 0,0.109375 0.09375,0.125 0.171875,0.125 0.484375,0.015625 0.484375,0.21875 0.484375,0.328125 0,0.046875 0,0.09375 -0.03125,0.21875 l -0.875,3.484375 L 3.25,-5.296875 C 3.1875,-5.4375 3.171875,-5.4375 2.984375,-5.4375 H 1.9375 c -0.140625,0 -0.234375,0 -0.234375,0.140625 0,0.125 0.09375,0.125 0.25,0.125 0.078125,0 0.3125,0 0.5,0.046875 L 1.375,-0.859375 C 1.28125,-0.453125 1.078125,-0.28125 0.546875,-0.265625 0.5,-0.265625 0.390625,-0.25 0.390625,-0.109375 0.390625,-0.0625 0.4375,0 0.515625,0 0.546875,0 0.734375,-0.03125 1.3125,-0.03125 1.9375,-0.03125 2.0625,0 2.125,0 c 0.03125,0 0.15625,0 0.15625,-0.15625 0,-0.09375 -0.09375,-0.109375 -0.140625,-0.109375 -0.296875,0 -0.53125,-0.046875 -0.53125,-0.328125 0,-0.046875 0.03125,-0.15625 0.03125,-0.15625 l 1.03125,-4.171875 H 2.6875 l 2.21875,4.78125 C 4.953125,-0.015625 4.96875,0 5.046875,0 c 0.109375,0 0.125,-0.03125 0.15625,-0.171875 z m 0,0"
           id="path1846" />
      </g>
      <g
         id="glyph-4-2">
        <path
           d="m 1.765625,-3.171875 h 0.78125 c 0.140625,0 0.234375,0 0.234375,-0.15625 C 2.78125,-3.4375 2.6875,-3.4375 2.546875,-3.4375 h -0.71875 l 0.28125,-1.125 c 0.03125,-0.125 0.03125,-0.15625 0.03125,-0.171875 0,-0.171875 -0.125,-0.25 -0.265625,-0.25 -0.265625,0 -0.328125,0.21875 -0.40625,0.578125 l -0.25,0.96875 H 0.453125 c -0.15625,0 -0.25,0 -0.25,0.15625 0,0.109375 0.09375,0.109375 0.234375,0.109375 h 0.71875 l -0.484375,1.90625 C 0.625,-1.0625 0.5625,-0.78125 0.5625,-0.671875 c 0,0.484375 0.390625,0.75 0.8125,0.75 0.84375,0 1.328125,-1.125 1.328125,-1.21875 C 2.703125,-1.234375 2.640625,-1.25 2.59375,-1.25 2.5,-1.25 2.5,-1.21875 2.4375,-1.09375 2.28125,-0.703125 1.875,-0.140625 1.390625,-0.140625 1.234375,-0.140625 1.125,-0.25 1.125,-0.515625 c 0,-0.15625 0.03125,-0.234375 0.046875,-0.34375 z m 0,0"
           id="path1849" />
      </g>
      <g
         id="glyph-4-3">
        <path
           d="m 6.21875,-3.421875 c 0,-1.3125 -0.90625,-2.1875 -2.171875,-2.1875 -1.859375,0 -3.640625,1.84375 -3.640625,3.625 0,1.21875 0.859375,2.15625 2.203125,2.15625 1.78125,0 3.609375,-1.71875 3.609375,-3.59375 z M 2.671875,-0.09375 c -0.8125,0 -1.484375,-0.578125 -1.484375,-1.71875 0,-0.125 0,-1.46875 0.921875,-2.59375 0.296875,-0.359375 1.015625,-0.953125 1.875,-0.953125 0.796875,0 1.5,0.546875 1.5,1.65625 0,0.4375 -0.171875,1.671875 -0.984375,2.65625 C 4.03125,-0.5 3.34375,-0.09375 2.671875,-0.09375 Z m 0,0"
           id="path1852" />
      </g>
      <g
         id="glyph-5-0">
        <path
           d="m 2.65625,1.984375 c 0.0625,0 0.15625,0 0.15625,-0.09375 0,-0.03125 0,-0.03125 -0.109375,-0.140625 -1.09375,-1.03125 -1.359375,-2.5 -1.359375,-3.734375 0,-2.296875 0.9375,-3.375 1.34375,-3.75 0.125,-0.09375 0.125,-0.109375 0.125,-0.140625 0,-0.046875 -0.03125,-0.09375 -0.109375,-0.09375 -0.125,0 -0.53125,0.40625 -0.59375,0.46875 -1.0625,1.125 -1.28125,2.546875 -1.28125,3.515625 0,1.78125 0.734375,3.21875 1.828125,3.96875 z m 0,0"
           id="path1855" />
      </g>
      <g
         id="glyph-5-1">
        <path
           d="m 3.890625,-2.546875 c 0,-0.84375 -0.078125,-1.359375 -0.34375,-1.875 -0.34375,-0.703125 -1,-0.875 -1.4375,-0.875 -1,0 -1.375,0.75 -1.484375,0.96875 -0.28125,0.578125 -0.296875,1.375 -0.296875,1.78125 0,0.53125 0.015625,1.328125 0.40625,1.96875 0.359375,0.59375 0.953125,0.75 1.375,0.75 0.390625,0 1.0625,-0.125 1.46875,-0.90625 0.296875,-0.578125 0.3125,-1.296875 0.3125,-1.8125 z M 2.109375,-0.0625 C 1.84375,-0.0625 1.296875,-0.1875 1.125,-1.015625 1.03125,-1.46875 1.03125,-2.21875 1.03125,-2.640625 1.03125,-3.1875 1.03125,-3.75 1.125,-4.1875 1.296875,-5 1.90625,-5.078125 2.109375,-5.078125 c 0.265625,0 0.828125,0.140625 0.984375,0.859375 0.09375,0.4375 0.09375,1.046875 0.09375,1.578125 0,0.46875 0,1.1875 -0.09375,1.640625 -0.171875,0.828125 -0.71875,0.9375 -0.984375,0.9375 z m 0,0"
           id="path1858" />
      </g>
      <g
         id="glyph-5-2">
        <path
           d="m 2.46875,-1.984375 c 0,-0.765625 -0.140625,-1.671875 -0.625,-2.609375 -0.390625,-0.734375 -1.125,-1.375 -1.265625,-1.375 -0.078125,0 -0.09375,0.046875 -0.09375,0.09375 0,0.03125 0,0.046875 0.09375,0.140625 1.109375,1.0625 1.359375,2.515625 1.359375,3.75 C 1.9375,0.296875 1,1.375 0.59375,1.75 0.484375,1.84375 0.484375,1.859375 0.484375,1.890625 c 0,0.046875 0.015625,0.09375 0.09375,0.09375 0.125,0 0.53125,-0.40625 0.59375,-0.46875 1.0625,-1.125 1.296875,-2.546875 1.296875,-3.5 z m 0,0"
           id="path1861" />
      </g>
      <g
         id="glyph-5-3">
        <path
           d="m 5.828125,-2.65625 c 0.109375,0 0.28125,0 0.28125,-0.1875 0,-0.171875 -0.203125,-0.171875 -0.3125,-0.171875 H 0.78125 c -0.125,0 -0.3125,0 -0.3125,0.171875 0,0.1875 0.15625,0.1875 0.28125,0.1875 z m -0.03125,1.6875 c 0.109375,0 0.3125,0 0.3125,-0.171875 0,-0.1875 -0.171875,-0.1875 -0.28125,-0.1875 H 0.75 c -0.125,0 -0.28125,0 -0.28125,0.1875 0,0.171875 0.1875,0.171875 0.3125,0.171875 z m 0,0"
           id="path1864" />
      </g>
      <g
         id="glyph-6-0">
        <path
           d="m 4.421875,-2.5 c 0,-1.0625 -0.890625,-1.921875 -1.921875,-1.921875 -1.078125,0 -1.953125,0.890625 -1.953125,1.921875 0,1.0625 0.875,1.9375 1.953125,1.9375 1.03125,0 1.921875,-0.859375 1.921875,-1.9375 z m 0,0"
           id="path1867" />
      </g>
      <g
         id="glyph-7-0">
        <path
           d="M 2.578125,-2.34375 H 3.1875 c 0.125,0 0.203125,0 0.203125,-0.140625 0,-0.09375 -0.078125,-0.09375 -0.1875,-0.09375 H 2.625 c 0.171875,-0.984375 0.171875,-1 0.203125,-1.109375 0.03125,-0.125 0.03125,-0.171875 0.125,-0.25 0.078125,-0.046875 0.125,-0.078125 0.21875,-0.078125 0.09375,0 0.1875,0.015625 0.28125,0.046875 -0.125,0.0625 -0.234375,0.1875 -0.234375,0.328125 0,0.125 0.109375,0.234375 0.25,0.234375 0.15625,0 0.34375,-0.140625 0.34375,-0.375 0,-0.328125 -0.375,-0.4375 -0.640625,-0.4375 C 2.90625,-4.21875 2.5,-4.09375 2.3125,-3.484375 2.265625,-3.34375 2.25,-3.21875 2.203125,-3 2.171875,-2.828125 2.171875,-2.75 2.125,-2.578125 H 1.640625 c -0.125,0 -0.203125,0 -0.203125,0.15625 0,0.078125 0.078125,0.078125 0.1875,0.078125 H 2.09375 C 1.859375,-1 1.765625,-0.53125 1.75,-0.4375 1.5625,0.59375 1.53125,0.65625 1.484375,0.765625 c -0.09375,0.140625 -0.1875,0.25 -0.34375,0.25 -0.03125,0 -0.171875,0 -0.265625,-0.046875 C 1,0.921875 1.109375,0.796875 1.109375,0.640625 c 0,-0.125 -0.109375,-0.21875 -0.25,-0.21875 -0.15625,0 -0.34375,0.125 -0.34375,0.359375 0,0.34375 0.375,0.4375 0.625,0.4375 0.328125,0 0.5625,-0.265625 0.671875,-0.40625 C 2.078125,0.46875 2.203125,-0.25 2.203125,-0.296875 Z m 0,0"
           id="path1870" />
      </g>
    </g>
  </defs>
  <path
     fill-rule="nonzero"
     fill="#f9f9f9"
     fill-opacity="1"
     stroke-width="0.79701"
     stroke-linecap="butt"
     stroke-linejoin="miter"
     stroke="#000000"
     stroke-opacity="1"
     stroke-miterlimit="10"
     d="m 159.13679,81.576374 c 0,-43.835938 -35.53516,-79.3671876 -79.371095,-79.3671876 -43.83594,0 -79.36719,35.5312496 -79.36719,79.3671876 0,43.835936 35.53125,79.371086 79.36719,79.371086 43.835935,0 79.371095,-35.53515 79.371095,-79.371086 z m 0,0"
     id="path1877" />
  <path
     fill="none"
     stroke-width="0.79701"
     stroke-linecap="butt"
     stroke-linejoin="miter"
     stroke="#7f0a19"
     stroke-opacity="1"
     stroke-miterlimit="10"
     d="m 79.765695,2.2091864 c -55.558596,0 -95.24219,115.0820236 0,130.9570236"
     id="path1895" />
  <g
     fill="#7f0a19"
     fill-opacity="1"
     id="g1899"
     transform="translate(-29.281182,-32.736126)">
    <use
       xlink:href="#glyph-1-0"
       x="50.606014"
       y="90.926842"
       id="use1897" />
  </g>
  <g
     fill="#7f0a19"
     fill-opacity="1"
     id="g1903"
     transform="translate(-29.281182,-32.736126)">
    <use
       xlink:href="#glyph-0-2"
       x="59.536999"
       y="97.681"
       id="use1901" />
  </g>
  <g
     fill="#7f0a19"
     fill-opacity="1"
     id="g1907"
     transform="translate(-29.281182,-32.736126)">
    <use
       xlink:href="#glyph-2-0"
       x="68.008003"
       y="97.681"
       id="use1905" />
  </g>
  <g
     fill="#7f0a19"
     fill-opacity="1"
     id="g1911"
     transform="translate(-29.281182,-32.736126)">
    <use
       xlink:href="#glyph-2-1"
       x="78.526512"
       y="97.681"
       id="use1909" />
  </g>
  <path
     fill="none"
     stroke-width="0.79701"
     stroke-linecap="butt"
     stroke-linejoin="miter"
     stroke="#006633"
     stroke-opacity="1"
     stroke-miterlimit="10"
     d="M 79.765695,133.16621 V 81.576374"
     id="path1913" />
  <g
     fill="#006633"
     fill-opacity="1"
     id="g1917"
     transform="translate(-29.281182,-32.736126)">
    <use
       xlink:href="#glyph-3-0"
       x="111.478"
       y="143.30499"
       id="use1915" />
  </g>
  <g
     fill="#006633"
     fill-opacity="1"
     id="g1921"
     transform="translate(-29.281182,-32.736126)">
    <use
       xlink:href="#glyph-0-2"
       x="116.088"
       y="143.31799"
       id="use1919" />
  </g>
  <g
     fill="#006633"
     fill-opacity="1"
     id="g1925"
     transform="translate(-29.281182,-32.736126)">
    <use
       xlink:href="#glyph-2-0"
       x="124.558"
       y="143.31799"
       id="use1923" />
  </g>
  <g
     fill="#006633"
     fill-opacity="1"
     id="g1929"
     transform="translate(-29.281182,-32.736126)">
    <use
       xlink:href="#glyph-2-2"
       x="135.07651"
       y="143.31799"
       id="use1927" />
  </g>
  <g
     fill="#000000"
     fill-opacity="1"
     id="g1933"
     transform="translate(-47.281182,-14.736126)">
    <use
       xlink:href="#glyph-4-0"
       x="112.567"
       y="29.431999"
       id="use1931" />
  </g>
  <g
     fill="#000000"
     fill-opacity="1"
     id="g1941"
     transform="translate(-47.281182,-14.736126)">
    <use
       xlink:href="#glyph-5-0"
       x="116.634"
       y="29.431999"
       id="use1935" />
    <use
       xlink:href="#glyph-5-1"
       x="119.92725"
       y="29.431999"
       id="use1937" />
    <use
       xlink:href="#glyph-5-2"
       x="124.16176"
       y="29.431999"
       id="use1939" />
  </g>
  <g
     fill="#000000"
     fill-opacity="1"
     id="g1945"
     transform="translate(-47.281182,-14.736126)">
    <use
       xlink:href="#glyph-5-3"
       x="129.80618"
       y="29.431999"
       id="use1943" />
  </g>
  <g
     fill="#000000"
     fill-opacity="1"
     id="g1949"
     transform="translate(-47.281182,-14.736126)">
    <use
       xlink:href="#glyph-4-1"
       x="138.746"
       y="29.431999"
       id="use1947" />
  </g>
  <g
     fill="#000000"
     fill-opacity="1"
     id="g1953"
     transform="translate(-29.281182,-32.736126)">
    <use
       xlink:href="#glyph-6-0"
       x="106.557"
       y="37.158001"
       id="use1951" />
  </g>
  <g
     fill="#000000"
     fill-opacity="1"
     id="g1957"
     transform="translate(-29.281182,-32.736126)">
    <use
       xlink:href="#glyph-6-0"
       x="106.557"
       y="168.116"
       id="use1955" />
  </g>
  <g
     fill="#000000"
     fill-opacity="1"
     id="g1961"
     transform="translate(-29.281182,-32.736126)">
    <use
       xlink:href="#glyph-4-0"
       x="112.567"
       y="108.225"
       id="use1959" />
  </g>
  <g
     fill="#000000"
     fill-opacity="1"
     id="g1965"
     transform="translate(-29.281182,-32.736126)">
    <use
       xlink:href="#glyph-5-0"
       x="116.634"
       y="108.225"
       id="use1963" />
  </g>
  <g
     fill="#000000"
     fill-opacity="1"
     id="g1969"
     transform="translate(-29.281182,-32.736126)">
    <use
       xlink:href="#glyph-4-2"
       x="119.927"
       y="108.225"
       id="use1967" />
  </g>
  <g
     fill="#000000"
     fill-opacity="1"
     id="g1973"
     transform="translate(-29.281182,-32.736126)">
    <use
       xlink:href="#glyph-7-0"
       x="122.985"
       y="109.631"
       id="use1971" />
  </g>
  <g
     fill="#000000"
     fill-opacity="1"
     id="g1977"
     transform="translate(-29.281182,-32.736126)">
    <use
       xlink:href="#glyph-5-2"
       x="127.759"
       y="108.225"
       id="use1975" />
  </g>
  <g
     fill="#000000"
     fill-opacity="1"
     id="g1981"
     transform="translate(-29.281182,-32.736126)">
    <use
       xlink:href="#glyph-5-3"
       x="133.40343"
       y="108.225"
       id="use1979" />
  </g>
  <g
     fill="#000000"
     fill-opacity="1"
     id="g1985"
     transform="translate(-29.281182,-32.736126)">
    <use
       xlink:href="#glyph-4-3"
       x="142.34399"
       y="108.225"
       id="use1983" />
  </g>
  <g
     fill="#000000"
     fill-opacity="1"
     id="g1989"
     transform="translate(-29.281182,-32.736126)">
    <use
       xlink:href="#glyph-6-0"
       x="106.557"
       y="116.527"
       id="use1987" />
  </g>
  <g
     fill="#999999"
     fill-opacity="1"
     id="g2003"
     transform="translate(-29.281182,-32.736126)">
    <use
       xlink:href="#glyph-2-3"
       x="73.597"
       y="73.151001"
       id="use1991" />
    <use
       xlink:href="#glyph-2-4"
       x="81.207428"
       y="73.151001"
       id="use1993" />
    <use
       xlink:href="#glyph-2-5"
       x="83.975037"
       y="73.151001"
       id="use1995" />
    <use
       xlink:href="#glyph-2-6"
       x="87.904289"
       y="73.151001"
       id="use1997" />
    <use
       xlink:href="#glyph-2-7"
       x="93.162552"
       y="73.151001"
       id="use1999" />
    <use
       xlink:href="#glyph-2-8"
       x="98.697769"
       y="73.151001"
       id="use2001" />
  </g>
  <g
     fill="#999999"
     fill-opacity="1"
     id="g2009"
     transform="translate(-29.281182,-32.736126)">
    <use
       xlink:href="#glyph-2-9"
       x="106.4427"
       y="73.151001"
       id="use2005" />
    <use
       xlink:href="#glyph-2-8"
       x="111.97792"
       y="73.151001"
       id="use2007" />
  </g>
  <g
     fill="#999999"
     fill-opacity="1"
     id="g2017"
     transform="translate(-29.281182,-32.736126)">
    <use
       xlink:href="#glyph-2-10"
       x="119.7328"
       y="73.151001"
       id="use2011" />
    <use
       xlink:href="#glyph-2-11"
       x="126.78931"
       y="73.151001"
       id="use2013" />
    <use
       xlink:href="#glyph-2-12"
       x="129.55693"
       y="73.151001"
       id="use2015" />
  </g>
  <g
     fill="#999999"
     fill-opacity="1"
     id="g2021"
     transform="translate(-29.281182,-32.736126)">
    <use
       xlink:href="#glyph-2-13"
       x="134.80722"
       y="73.151001"
       id="use2019" />
  </g>
  <g
     fill="#999999"
     fill-opacity="1"
     id="g2025"
     transform="translate(-29.281182,-32.736126)">
    <use
       xlink:href="#glyph-2-14"
       x="138.96561"
       y="73.151001"
       id="use2023" />
  </g>
</svg>
