<?xml version="1.0" encoding="UTF-8" standalone="no"?>
<svg
   width="389.00003pt"
   height="414.27914pt"
   viewBox="0 0 389.00003 414.27914"
   version="1.1"
   id="svg1081"
   sodipodi:docname="remy_erreur.svg"
   inkscape:version="1.2 (dc2aeda, 2022-05-15)"
   xmlns:inkscape="http://www.inkscape.org/namespaces/inkscape"
   xmlns:sodipodi="http://sodipodi.sourceforge.net/DTD/sodipodi-0.dtd"
   xmlns="http://www.w3.org/2000/svg"
   xmlns:svg="http://www.w3.org/2000/svg">
  <sodipodi:namedview
     id="namedview856"
     pagecolor="#ffffff"
     bordercolor="#000000"
     borderopacity="0.25"
     inkscape:showpageshadow="2"
     inkscape:pageopacity="0.0"
     inkscape:pagecheckerboard="0"
     inkscape:deskcolor="#d1d1d1"
     inkscape:document-units="pt"
     showgrid="false"
     inkscape:zoom="1.6551514"
     inkscape:cx="335.92093"
     inkscape:cy="371.8693"
     inkscape:window-width="2048"
     inkscape:window-height="1099"
     inkscape:window-x="0"
     inkscape:window-y="25"
     inkscape:window-maximized="1"
     inkscape:current-layer="svg1081" />
  <defs
     id="defs1085">
    <marker
       style="overflow:visible"
       id="Arrow2"
       refX="0"
       refY="0"
       orient="auto-start-reverse"
       inkscape:stockid="Arrow2"
       markerWidth="7.6999998"
       markerHeight="5.5999999"
       viewBox="0 0 7.7 5.6"
       inkscape:isstock="true"
       inkscape:collect="always"
       preserveAspectRatio="xMidYMid">
      <path
         transform="scale(0.7)"
         d="M -2,-4 9,0 -2,4 c 2,-2.33 2,-5.66 0,-8 z"
         style="fill:context-stroke;fill-rule:evenodd;stroke:none"
         id="arrow2L" />
    </marker>
  </defs>
  <path
     fill-rule="nonzero"
     fill="#ffffff"
     fill-opacity="1"
     d="M 57.949218,354.96485 H 382.25 V 9.039063 H 57.949218 Z m 0,0"
     id="path863" />
  <path
     fill="none"
     stroke-width="0.500467"
     stroke-linecap="butt"
     stroke-linejoin="round"
     stroke="#262626"
     stroke-opacity="0.14902"
     stroke-miterlimit="10"
     d="M 57.949271,354.96515 V 9.039089"
     id="path865" />
  <path
     fill="none"
     stroke-width="0.500467"
     stroke-linecap="butt"
     stroke-linejoin="round"
     stroke="#262626"
     stroke-opacity="0.14902"
     stroke-miterlimit="10"
     d="M 166.05092,354.96515 V 9.039089"
     id="path867" />
  <path
     fill="none"
     stroke-width="0.500467"
     stroke-linecap="butt"
     stroke-linejoin="round"
     stroke="#262626"
     stroke-opacity="0.14902"
     stroke-miterlimit="10"
     d="M 274.14867,354.96515 V 9.039089"
     id="path869" />
  <path
     fill="none"
     stroke-width="0.500467"
     stroke-linecap="butt"
     stroke-linejoin="round"
     stroke="#262626"
     stroke-opacity="0.14902"
     stroke-miterlimit="10"
     d="M 382.25032,354.96515 V 9.039089"
     id="path871" />
  <path
     fill="none"
     stroke-width="0.500467"
     stroke-linecap="butt"
     stroke-linejoin="bevel"
     stroke="#1a1a1a"
     stroke-opacity="0.25098"
     stroke-dasharray="1, 3"
     stroke-miterlimit="1"
     d="M 382.25032,354.96515 H 57.949271"
     id="path873" />
  <path
     fill="none"
     stroke-width="0.500467"
     stroke-linecap="butt"
     stroke-linejoin="bevel"
     stroke="#1a1a1a"
     stroke-opacity="0.25098"
     stroke-dasharray="1, 3"
     stroke-miterlimit="1"
     d="M 382.25032,332.39482 H 57.949271"
     id="path875" />
  <path
     fill="none"
     stroke-width="0.500467"
     stroke-linecap="butt"
     stroke-linejoin="bevel"
     stroke="#1a1a1a"
     stroke-opacity="0.25098"
     stroke-dasharray="1, 3"
     stroke-miterlimit="1"
     d="M 382.25032,316.38309 H 57.949271"
     id="path877" />
  <path
     fill="none"
     stroke-width="0.500467"
     stroke-linecap="butt"
     stroke-linejoin="bevel"
     stroke="#1a1a1a"
     stroke-opacity="0.25098"
     stroke-dasharray="1, 3"
     stroke-miterlimit="1"
     d="M 382.25032,303.96121 H 57.949271"
     id="path879" />
  <path
     fill="none"
     stroke-width="0.500467"
     stroke-linecap="butt"
     stroke-linejoin="bevel"
     stroke="#1a1a1a"
     stroke-opacity="0.25098"
     stroke-dasharray="1, 3"
     stroke-miterlimit="1"
     d="M 382.25032,293.81276 H 57.949271"
     id="path881" />
  <path
     fill="none"
     stroke-width="0.500467"
     stroke-linecap="butt"
     stroke-linejoin="bevel"
     stroke="#1a1a1a"
     stroke-opacity="0.25098"
     stroke-dasharray="1, 3"
     stroke-miterlimit="1"
     d="M 382.25032,285.23073 H 57.949271"
     id="path883" />
  <path
     fill="none"
     stroke-width="0.500467"
     stroke-linecap="butt"
     stroke-linejoin="bevel"
     stroke="#1a1a1a"
     stroke-opacity="0.25098"
     stroke-dasharray="1, 3"
     stroke-miterlimit="1"
     d="M 382.25032,277.79713 H 57.949271"
     id="path885" />
  <path
     fill="none"
     stroke-width="0.500467"
     stroke-linecap="butt"
     stroke-linejoin="bevel"
     stroke="#1a1a1a"
     stroke-opacity="0.25098"
     stroke-dasharray="1, 3"
     stroke-miterlimit="1"
     d="M 382.25032,271.24243 H 57.949271"
     id="path887" />
  <path
     fill="none"
     stroke-width="0.500467"
     stroke-linecap="butt"
     stroke-linejoin="bevel"
     stroke="#1a1a1a"
     stroke-opacity="0.25098"
     stroke-dasharray="1, 3"
     stroke-miterlimit="1"
     d="M 382.25032,226.79708 H 57.949271"
     id="path889" />
  <path
     fill="none"
     stroke-width="0.500467"
     stroke-linecap="butt"
     stroke-linejoin="bevel"
     stroke="#1a1a1a"
     stroke-opacity="0.25098"
     stroke-dasharray="1, 3"
     stroke-miterlimit="1"
     d="M 382.25032,204.22675 H 57.949271"
     id="path891" />
  <path
     fill="none"
     stroke-width="0.500467"
     stroke-linecap="butt"
     stroke-linejoin="bevel"
     stroke="#1a1a1a"
     stroke-opacity="0.25098"
     stroke-dasharray="1, 3"
     stroke-miterlimit="1"
     d="M 382.25032,188.21111 H 57.949271"
     id="path893" />
  <path
     fill="none"
     stroke-width="0.500467"
     stroke-linecap="butt"
     stroke-linejoin="bevel"
     stroke="#1a1a1a"
     stroke-opacity="0.25098"
     stroke-dasharray="1, 3"
     stroke-miterlimit="1"
     d="M 382.25032,175.79314 H 57.949271"
     id="path895" />
  <path
     fill="none"
     stroke-width="0.500467"
     stroke-linecap="butt"
     stroke-linejoin="bevel"
     stroke="#1a1a1a"
     stroke-opacity="0.25098"
     stroke-dasharray="1, 3"
     stroke-miterlimit="1"
     d="M 382.25032,165.64469 H 57.949271"
     id="path897" />
  <path
     fill="none"
     stroke-width="0.500467"
     stroke-linecap="butt"
     stroke-linejoin="bevel"
     stroke="#1a1a1a"
     stroke-opacity="0.25098"
     stroke-dasharray="1, 3"
     stroke-miterlimit="1"
     d="M 382.25032,157.06265 H 57.949271"
     id="path899" />
  <path
     fill="none"
     stroke-width="0.500467"
     stroke-linecap="butt"
     stroke-linejoin="bevel"
     stroke="#1a1a1a"
     stroke-opacity="0.25098"
     stroke-dasharray="1, 3"
     stroke-miterlimit="1"
     d="M 382.25032,149.62905 H 57.949271"
     id="path901" />
  <path
     fill="none"
     stroke-width="0.500467"
     stroke-linecap="butt"
     stroke-linejoin="bevel"
     stroke="#1a1a1a"
     stroke-opacity="0.25098"
     stroke-dasharray="1, 3"
     stroke-miterlimit="1"
     d="M 382.25032,143.07436 H 57.949271"
     id="path903" />
  <path
     fill="none"
     stroke-width="0.500467"
     stroke-linecap="butt"
     stroke-linejoin="bevel"
     stroke="#1a1a1a"
     stroke-opacity="0.25098"
     stroke-dasharray="1, 3"
     stroke-miterlimit="1"
     d="M 382.25032,98.625098 H 57.949271"
     id="path905" />
  <path
     fill="none"
     stroke-width="0.500467"
     stroke-linecap="butt"
     stroke-linejoin="bevel"
     stroke="#1a1a1a"
     stroke-opacity="0.25098"
     stroke-dasharray="1, 3"
     stroke-miterlimit="1"
     d="M 382.25032,76.058672 H 57.949271"
     id="path907" />
  <path
     fill="none"
     stroke-width="0.500467"
     stroke-linecap="butt"
     stroke-linejoin="bevel"
     stroke="#1a1a1a"
     stroke-opacity="0.25098"
     stroke-dasharray="1, 3"
     stroke-miterlimit="1"
     d="M 382.25032,60.043038 H 57.949271"
     id="path909" />
  <path
     fill="none"
     stroke-width="0.500467"
     stroke-linecap="butt"
     stroke-linejoin="bevel"
     stroke="#1a1a1a"
     stroke-opacity="0.25098"
     stroke-dasharray="1, 3"
     stroke-miterlimit="1"
     d="M 382.25032,47.625058 H 57.949271"
     id="path911" />
  <path
     fill="none"
     stroke-width="0.500467"
     stroke-linecap="butt"
     stroke-linejoin="bevel"
     stroke="#1a1a1a"
     stroke-opacity="0.25098"
     stroke-dasharray="1, 3"
     stroke-miterlimit="1"
     d="M 382.25032,37.476616 H 57.949271"
     id="path913" />
  <path
     fill="none"
     stroke-width="0.500467"
     stroke-linecap="butt"
     stroke-linejoin="bevel"
     stroke="#1a1a1a"
     stroke-opacity="0.25098"
     stroke-dasharray="1, 3"
     stroke-miterlimit="1"
     d="M 382.25032,28.894574 H 57.949271"
     id="path915" />
  <path
     fill="none"
     stroke-width="0.500467"
     stroke-linecap="butt"
     stroke-linejoin="bevel"
     stroke="#1a1a1a"
     stroke-opacity="0.25098"
     stroke-dasharray="1, 3"
     stroke-miterlimit="1"
     d="M 382.25032,21.460975 H 57.949271"
     id="path917" />
  <path
     fill="none"
     stroke-width="0.500467"
     stroke-linecap="butt"
     stroke-linejoin="bevel"
     stroke="#1a1a1a"
     stroke-opacity="0.25098"
     stroke-dasharray="1, 3"
     stroke-miterlimit="1"
     d="M 382.25032,14.906281 H 57.949271"
     id="path919" />
  <path
     fill="none"
     stroke-width="0.500467"
     stroke-linecap="butt"
     stroke-linejoin="round"
     stroke="#262626"
     stroke-opacity="0.14902"
     stroke-miterlimit="10"
     d="M 382.25032,265.37915 H 57.949271"
     id="path921" />
  <path
     fill="none"
     stroke-width="0.500467"
     stroke-linecap="butt"
     stroke-linejoin="round"
     stroke="#262626"
     stroke-opacity="0.14902"
     stroke-miterlimit="10"
     d="M 382.25032,137.21107 H 57.949271"
     id="path923" />
  <path
     fill="none"
     stroke-width="0.500467"
     stroke-linecap="butt"
     stroke-linejoin="round"
     stroke="#262626"
     stroke-opacity="0.14902"
     stroke-miterlimit="10"
     d="M 382.25032,9.039089 H 57.949271"
     id="path925" />
  <path
     fill="none"
     stroke-width="0.500467"
     stroke-linecap="square"
     stroke-linejoin="round"
     stroke="#262626"
     stroke-opacity="1"
     stroke-miterlimit="10"
     d="M 57.949271,354.96515 H 382.25032"
     id="path927" />
  <path
     fill="none"
     stroke-width="0.500467"
     stroke-linecap="square"
     stroke-linejoin="round"
     stroke="#262626"
     stroke-opacity="1"
     stroke-miterlimit="10"
     d="m 57.949271,354.96515 v -3.46093"
     id="path929" />
  <path
     fill="none"
     stroke-width="0.500467"
     stroke-linecap="square"
     stroke-linejoin="round"
     stroke="#262626"
     stroke-opacity="1"
     stroke-miterlimit="10"
     d="m 166.05092,354.96515 v -3.46093"
     id="path931" />
  <path
     fill="none"
     stroke-width="0.500467"
     stroke-linecap="square"
     stroke-linejoin="round"
     stroke="#262626"
     stroke-opacity="1"
     stroke-miterlimit="10"
     d="m 274.14867,354.96515 v -3.46093"
     id="path933" />
  <path
     fill="none"
     stroke-width="0.500467"
     stroke-linecap="square"
     stroke-linejoin="round"
     stroke="#262626"
     stroke-opacity="1"
     stroke-miterlimit="10"
     d="m 382.25032,354.96515 v -3.46093"
     id="path935" />
  <path
     fill-rule="nonzero"
     fill="#262626"
     fill-opacity="1"
     d="m 57.949218,372.91016 c -1.226562,0 -2.058593,-0.50781 -2.5,-1.51563 -0.441406,-1.01172 -0.664062,-2.21093 -0.664062,-3.60156 0,-0.86719 0.07813,-1.6875 0.234375,-2.45703 0.15625,-0.76953 0.472656,-1.42188 0.945313,-1.95703 0.472656,-0.53516 1.132812,-0.80078 1.984374,-0.80078 0.65625,0 1.195313,0.16015 1.617188,0.48047 0.421875,0.32421 0.742188,0.74218 0.960938,1.2539 0.222656,0.51172 0.371093,1.0625 0.453124,1.64063 0.08203,0.58203 0.121094,1.19531 0.121094,1.83984 0,0.85938 -0.07813,1.66406 -0.238281,2.41406 -0.160156,0.75 -0.472656,1.38672 -0.933594,1.91407 -0.464843,0.52343 -1.125,0.78906 -1.980469,0.78906 z m 0,-0.38672 c 0.554688,0 0.972657,-0.28516 1.246094,-0.85938 0.277344,-0.57031 0.445313,-1.20312 0.507813,-1.89843 0.0625,-0.69532 0.09375,-1.4336 0.09375,-2.21485 0,-0.75 -0.03125,-1.44531 -0.09375,-2.07812 -0.0625,-0.63672 -0.230469,-1.21094 -0.5,-1.72656 -0.273438,-0.51563 -0.691407,-0.77344 -1.253907,-0.77344 -0.570312,0 -0.992187,0.25781 -1.261718,0.77344 -0.273438,0.51562 -0.441406,1.08984 -0.503906,1.72656 -0.0625,0.63281 -0.09375,1.32812 -0.09375,2.07812 0,0.55469 0.01172,1.08203 0.03906,1.57422 0.02344,0.4961 0.09766,1.00391 0.214844,1.53125 0.117187,0.52735 0.308594,0.96875 0.566406,1.32813 0.261719,0.35937 0.605469,0.53906 1.039062,0.53906 z m 0,0"
     id="path937" />
  <path
     fill-rule="nonzero"
     fill="#262626"
     fill-opacity="1"
     d="m 163.60157,370.8711 c 0.0977,0.29687 0.2539,0.5625 0.46875,0.79687 0.21093,0.23828 0.46484,0.42578 0.7539,0.55859 0.29297,0.13672 0.59375,0.20313 0.90625,0.20313 0.72656,0 1.22656,-0.28125 1.5,-0.83984 0.27735,-0.5586 0.41406,-1.23829 0.41406,-2.03907 0,-0.35156 -0.008,-0.64453 -0.0195,-0.88281 -0.0117,-0.23828 -0.0469,-0.46875 -0.10156,-0.6875 -0.0937,-0.34766 -0.25781,-0.65625 -0.48828,-0.91797 -0.23047,-0.26172 -0.51563,-0.39453 -0.85547,-0.39453 -0.33594,0 -0.625,0.0508 -0.86719,0.14844 -0.24218,0.10156 -0.4375,0.22265 -0.58984,0.35937 -0.15234,0.13672 -0.28906,0.28125 -0.40625,0.4336 -0.11328,0.15625 -0.1875,0.23437 -0.21875,0.24218 h -0.16797 c -0.0273,0 -0.0547,-0.0156 -0.0898,-0.0469 -0.0352,-0.0312 -0.0508,-0.0625 -0.0508,-0.0937 v -5.01172 c 0,-0.0273 0.0156,-0.0508 0.0469,-0.082 0.0312,-0.0273 0.0625,-0.0391 0.0937,-0.0391 h 0.0469 c 0.67578,0.32422 1.39062,0.48828 2.14843,0.48828 0.74219,0 1.46094,-0.16406 2.14844,-0.48828 h 0.0391 c 0.0352,0 0.0703,0.0117 0.0977,0.0351 0.0273,0.0274 0.043,0.0547 0.043,0.0859 v 0.14063 c 0,0.0508 -0.0117,0.0742 -0.0312,0.0742 -0.34375,0.44922 -0.76953,0.80469 -1.28516,1.05469 -0.51172,0.25391 -1.04687,0.38281 -1.60156,0.38281 -0.40234,0 -0.8125,-0.0586 -1.23047,-0.17187 v 2.84375 c 0.33203,-0.26953 0.62891,-0.46094 0.89063,-0.57422 0.26171,-0.11719 0.59765,-0.17578 1.0039,-0.17578 0.55078,0 1.04688,0.16016 1.48438,0.48047 0.4375,0.3164 0.77343,0.73047 1.00781,1.24219 0.23437,0.50781 0.35156,1.03125 0.35156,1.5625 0,0.60156 -0.14844,1.15625 -0.44531,1.67187 -0.29688,0.51172 -0.69922,0.91797 -1.20703,1.22266 -0.50781,0.30468 -1.0586,0.45703 -1.66016,0.45703 -0.48828,0 -0.9414,-0.12891 -1.35547,-0.38281 -0.41797,-0.25391 -0.74218,-0.59375 -0.97656,-1.02735 -0.23437,-0.42969 -0.35156,-0.88672 -0.35156,-1.37109 0,-0.22266 0.0742,-0.40625 0.21875,-0.54688 0.14844,-0.14062 0.33203,-0.21093 0.55078,-0.21093 0.21875,0 0.40234,0.0703 0.55469,0.21484 0.14843,0.14453 0.22265,0.32422 0.22265,0.54297 0,0.21484 -0.0742,0.39453 -0.22265,0.54687 -0.15235,0.14844 -0.33594,0.22266 -0.55469,0.22266 -0.0391,0 -0.0781,0 -0.12109,-0.008 -0.0469,-0.008 -0.0781,-0.0117 -0.0937,-0.0195 z m 0,0"
     id="path939" />
  <path
     fill-rule="nonzero"
     fill="#262626"
     fill-opacity="1"
     d="m 268.03125,372.57813 v -0.52344 c 1.25391,0 1.87891,-0.16016 1.87891,-0.48047 v -7.87891 c -0.51563,0.25 -1.16797,0.375 -1.96094,0.375 v -0.52734 c 1.22266,0 2.15235,-0.32031 2.77735,-0.96484 h 0.21484 c 0.0312,0 0.0625,0.0117 0.0937,0.0391 0.0312,0.0312 0.0469,0.0586 0.0469,0.0898 v 8.86719 c 0,0.32031 0.625,0.48047 1.875,0.48047 v 0.52344 z m 0,0"
     id="path941" />
  <path
     fill-rule="nonzero"
     fill="#262626"
     fill-opacity="1"
     d="m 277.90235,372.91016 c -1.22657,0 -2.0586,-0.50781 -2.5,-1.51563 -0.44141,-1.01172 -0.66016,-2.21093 -0.66016,-3.60156 0,-0.86719 0.0781,-1.6875 0.23438,-2.45703 0.15625,-0.76953 0.46875,-1.42188 0.9414,-1.95703 0.47266,-0.53516 1.13672,-0.80078 1.98438,-0.80078 0.66015,0 1.19922,0.16015 1.62109,0.48047 0.42188,0.32421 0.74219,0.74218 0.96094,1.2539 0.21875,0.51172 0.36719,1.0625 0.44922,1.64063 0.082,0.58203 0.125,1.19531 0.125,1.83984 0,0.85938 -0.082,1.66406 -0.24219,2.41406 -0.16016,0.75 -0.46875,1.38672 -0.93359,1.91407 -0.46094,0.52343 -1.1211,0.78906 -1.98047,0.78906 z m 0,-0.38672 c 0.55859,0 0.97265,-0.28516 1.25,-0.85938 0.27343,-0.57031 0.44531,-1.20312 0.50781,-1.89843 0.0625,-0.69532 0.0937,-1.4336 0.0937,-2.21485 0,-0.75 -0.0312,-1.44531 -0.0937,-2.07812 -0.0625,-0.63672 -0.23047,-1.21094 -0.50391,-1.72656 -0.27343,-0.51563 -0.6875,-0.77344 -1.2539,-0.77344 -0.56641,0 -0.98828,0.25781 -1.26172,0.77344 -0.26953,0.51562 -0.4375,1.08984 -0.5,1.72656 -0.0625,0.63281 -0.0937,1.32812 -0.0937,2.07812 0,0.55469 0.0117,1.08203 0.0351,1.57422 0.0274,0.4961 0.0977,1.00391 0.21875,1.53125 0.11719,0.52735 0.30469,0.96875 0.56641,1.32813 0.25781,0.35937 0.60547,0.53906 1.03516,0.53906 z m 0,0"
     id="path943" />
  <path
     fill-rule="nonzero"
     fill="#262626"
     fill-opacity="1"
     d="m 376.13282,372.57813 v -0.52344 c 1.25,0 1.8789,-0.16016 1.8789,-0.48047 v -7.87891 c -0.51562,0.25 -1.16797,0.375 -1.96484,0.375 v -0.52734 c 1.22656,0 2.15234,-0.32031 2.77734,-0.96484 h 0.21875 c 0.0312,0 0.0625,0.0117 0.0937,0.0391 0.0312,0.0312 0.0469,0.0586 0.0469,0.0898 v 8.86719 c 0,0.32031 0.625,0.48047 1.875,0.48047 v 0.52344 z m 0,0"
     id="path945" />
  <path
     fill-rule="nonzero"
     fill="#262626"
     fill-opacity="1"
     d="m 383.55469,370.8711 c 0.10156,0.29687 0.25781,0.5625 0.46875,0.79687 0.21484,0.23828 0.46484,0.42578 0.75781,0.55859 0.28907,0.13672 0.58985,0.20313 0.90625,0.20313 0.72266,0 1.22266,-0.28125 1.5,-0.83984 0.27344,-0.5586 0.41407,-1.23829 0.41407,-2.03907 0,-0.35156 -0.008,-0.64453 -0.0195,-0.88281 -0.0117,-0.23828 -0.0469,-0.46875 -0.10546,-0.6875 -0.0937,-0.34766 -0.25391,-0.65625 -0.48829,-0.91797 -0.23046,-0.26172 -0.51562,-0.39453 -0.85156,-0.39453 -0.33984,0 -0.6289,0.0508 -0.86719,0.14844 -0.24218,0.10156 -0.4375,0.22265 -0.59375,0.35937 -0.15234,0.13672 -0.28515,0.28125 -0.40234,0.4336 -0.11719,0.15625 -0.1875,0.23437 -0.21875,0.24218 h -0.17187 c -0.0234,0 -0.0547,-0.0156 -0.0899,-0.0469 -0.0312,-0.0312 -0.0508,-0.0625 -0.0508,-0.0937 v -5.01172 c 0,-0.0273 0.0156,-0.0508 0.0469,-0.082 0.0312,-0.0273 0.0625,-0.0391 0.0937,-0.0391 h 0.0469 c 0.67578,0.32422 1.39453,0.48828 2.14844,0.48828 0.74609,0 1.46094,-0.16406 2.15234,-0.48828 h 0.0352 c 0.0391,0 0.0703,0.0117 0.0976,0.0351 0.0312,0.0274 0.043,0.0547 0.043,0.0859 v 0.14063 c 0,0.0508 -0.008,0.0742 -0.0273,0.0742 -0.34375,0.44922 -0.77344,0.80469 -1.28516,1.05469 -0.51172,0.25391 -1.04687,0.38281 -1.60547,0.38281 -0.39843,0 -0.80859,-0.0586 -1.23046,-0.17187 v 2.84375 c 0.33203,-0.26953 0.6289,-0.46094 0.89453,-0.57422 0.26172,-0.11719 0.59765,-0.17578 1.0039,-0.17578 0.55078,0 1.04297,0.16016 1.48047,0.48047 0.4375,0.3164 0.77344,0.73047 1.00781,1.24219 0.23829,0.50781 0.35547,1.03125 0.35547,1.5625 0,0.60156 -0.15234,1.15625 -0.44922,1.67187 -0.29687,0.51172 -0.69921,0.91797 -1.20312,1.22266 -0.50781,0.30468 -1.0625,0.45703 -1.66016,0.45703 -0.48828,0 -0.9414,-0.12891 -1.35937,-0.38281 -0.41406,-0.25391 -0.73828,-0.59375 -0.97266,-1.02735 -0.23437,-0.42969 -0.35547,-0.88672 -0.35547,-1.37109 0,-0.22266 0.0742,-0.40625 0.22266,-0.54688 0.14844,-0.14062 0.32812,-0.21093 0.54687,-0.21093 0.22266,0 0.40625,0.0703 0.55469,0.21484 0.15235,0.14453 0.22656,0.32422 0.22656,0.54297 0,0.21484 -0.0742,0.39453 -0.22656,0.54687 -0.14844,0.14844 -0.33203,0.22266 -0.55469,0.22266 -0.0351,0 -0.0781,0 -0.12109,-0.008 -0.043,-0.008 -0.0742,-0.0117 -0.0937,-0.0195 z m 0,0"
     id="path947" />
  <path
     fill-rule="nonzero"
     fill="#262626"
     fill-opacity="1"
     d="m 178.55078,395.80078 v -0.69531 c 1.42579,0 2.13672,-0.20703 2.13672,-0.62891 v -10.88281 c 0,-0.41797 -0.71093,-0.6289 -2.13672,-0.6289 v -0.70313 h 6.11719 v 0.70313 c -1.42187,0 -2.1289,0.21093 -2.1289,0.6289 v 10.88281 c 0,0.42188 0.70703,0.62891 2.1289,0.62891 v 0.69531 z m 0,0"
     id="path949" />
  <path
     fill-rule="nonzero"
     fill="#262626"
     fill-opacity="1"
     d="m 187.28907,393.41797 v -5.46094 h -1.65235 v -0.51562 c 0.86328,0 1.5,-0.40625 1.90625,-1.21094 0.40625,-0.80859 0.60938,-1.67969 0.60938,-2.61719 h 0.57031 v 3.64063 h 2.79687 v 0.70312 h -2.79687 v 5.42188 c 0,0.55078 0.0937,1.03515 0.27734,1.44531 0.1875,0.41406 0.51563,0.62109 0.99219,0.62109 0.44922,0 0.77344,-0.21875 0.97656,-0.65234 0.19922,-0.43359 0.29688,-0.90625 0.29688,-1.41406 v -1.17188 h 0.57422 v 1.21094 c 0,0.41406 -0.0742,0.82031 -0.22657,1.22656 -0.14843,0.40235 -0.37109,0.73438 -0.66796,0.99219 -0.29688,0.26172 -0.66016,0.39063 -1.08594,0.39063 -0.79297,0 -1.42188,-0.23829 -1.88281,-0.71485 -0.45704,-0.47265 -0.6875,-1.10547 -0.6875,-1.89453 z m 0,0"
     id="path951" />
  <path
     fill-rule="nonzero"
     fill="#262626"
     fill-opacity="1"
     d="m 196.55469,385.32031 2.38281,-3.05859 c 0.15625,-0.19922 0.34766,-0.30078 0.57422,-0.30078 0.20313,0 0.38281,0.0742 0.52735,0.22656 0.14843,0.14844 0.22265,0.32813 0.22265,0.53125 0,0.20703 -0.0937,0.39453 -0.28125,0.56641 l -3.01172,2.42969 z m 0,0"
     id="path953" />
  <path
     fill-rule="nonzero"
     fill="#262626"
     fill-opacity="1"
     d="m 197.98438,396.02735 c -0.8086,0 -1.54688,-0.21094 -2.22266,-0.63282 -0.67187,-0.42187 -1.19922,-0.98828 -1.58594,-1.69531 -0.38281,-0.70703 -0.57421,-1.45312 -0.57421,-2.24219 0,-0.77734 0.17578,-1.51172 0.52343,-2.21093 0.35157,-0.69532 0.83985,-1.25782 1.46875,-1.6875 0.62891,-0.42969 1.33203,-0.64454 2.10938,-0.64454 0.60547,0 1.13281,0.10157 1.57812,0.30469 0.44922,0.20313 0.81641,0.48828 1.10938,0.85156 0.28906,0.36329 0.51172,0.78907 0.66015,1.28125 0.15235,0.48829 0.22657,1.02735 0.22657,1.60938 0,0.17187 -0.0703,0.26172 -0.20703,0.26172 h -5.74219 v 0.21484 c 0,1.09375 0.22265,2.03516 0.66406,2.82422 0.44531,0.78906 1.16797,1.18359 2.16797,1.18359 0.40234,0 0.77344,-0.0898 1.12109,-0.27343 0.34766,-0.17969 0.64844,-0.4336 0.90235,-0.75391 0.2539,-0.32422 0.42578,-0.66797 0.51953,-1.03906 0.0117,-0.043 0.0352,-0.082 0.0703,-0.11719 0.0352,-0.0312 0.0742,-0.0508 0.11719,-0.0508 h 0.17969 c 0.13671,0 0.20703,0.082 0.20703,0.24609 -0.1875,0.75 -0.59375,1.36719 -1.21094,1.84766 -0.62109,0.48047 -1.3125,0.72266 -2.08203,0.72266 z m -2.63672,-5.29297 h 4.51953 c 0,-0.5 -0.0664,-1.00391 -0.20312,-1.51563 -0.14063,-0.51172 -0.36719,-0.93359 -0.69141,-1.26953 -0.32031,-0.33984 -0.74609,-0.50781 -1.26953,-0.50781 -0.75391,0 -1.33203,0.34765 -1.74219,1.05078 -0.41016,0.69922 -0.61328,1.44922 -0.61328,2.24219 z m 0,0"
     id="path955" />
  <path
     fill-rule="nonzero"
     fill="#262626"
     fill-opacity="1"
     d="m 202.46094,395.80078 v -0.69531 c 0.44922,0 0.82031,-0.0352 1.10938,-0.10547 0.29296,-0.0742 0.4375,-0.24609 0.4375,-0.52344 v -5.41406 c 0,-0.34765 -0.0508,-0.60547 -0.16016,-0.76172 -0.10547,-0.16015 -0.25781,-0.25781 -0.45703,-0.29297 -0.20313,-0.0351 -0.51172,-0.0508 -0.92969,-0.0508 v -0.70312 l 2.83203,-0.20703 v 1.93359 c 0.21485,-0.57812 0.51563,-1.04297 0.91016,-1.39844 0.39453,-0.35547 0.87109,-0.53515 1.42578,-0.53515 0.39453,0 0.74609,0.11718 1.05859,0.34765 0.3086,0.23047 0.46485,0.53907 0.46485,0.91797 0,0.23828 -0.0859,0.44531 -0.25391,0.625 -0.16797,0.17969 -0.38281,0.26563 -0.64062,0.26563 -0.24219,0 -0.44922,-0.0859 -0.6211,-0.26172 -0.17187,-0.17578 -0.25781,-0.38281 -0.25781,-0.62891 0,-0.35547 0.125,-0.60937 0.375,-0.75781 h -0.125 c -0.53125,0 -0.96484,0.19141 -1.30078,0.58203 -0.33985,0.38672 -0.58203,0.86719 -0.72266,1.44531 -0.14453,0.57422 -0.21875,1.1211 -0.21875,1.64063 v 3.2539 c 0,0.42188 0.64063,0.62891 1.92578,0.62891 v 0.69531 z m 0,0"
     id="path957" />
  <path
     fill-rule="nonzero"
     fill="#262626"
     fill-opacity="1"
     d="m 210.58203,393.85938 c 0,-0.78907 0.3086,-1.42969 0.92969,-1.92578 0.61719,-0.49219 1.36328,-0.83985 2.22656,-1.04297 0.86719,-0.20313 1.69141,-0.30469 2.47266,-0.30469 v -0.80859 c 0,-0.38282 -0.082,-0.75391 -0.25,-1.11329 -0.17187,-0.35937 -0.41406,-0.65234 -0.73047,-0.88281 -0.3125,-0.22656 -0.66406,-0.33984 -1.04297,-0.33984 -0.8789,0 -1.54297,0.19531 -2,0.58984 0.25,0 0.45703,0.0977 0.625,0.28516 0.16407,0.1914 0.2461,0.41406 0.2461,0.66406 0,0.26172 -0.0937,0.48828 -0.28125,0.67578 -0.1875,0.1875 -0.41016,0.28125 -0.66407,0.28125 -0.26953,0 -0.5,-0.0937 -0.6875,-0.28125 -0.1875,-0.1875 -0.28125,-0.41406 -0.28125,-0.67578 0,-0.69531 0.32032,-1.21484 0.95313,-1.55469 0.63672,-0.33984 1.33203,-0.51172 2.08984,-0.51172 0.53516,0 1.07422,0.11719 1.61719,0.34766 0.53906,0.23047 0.98438,0.55859 1.32813,0.98438 0.34375,0.42578 0.51562,0.92187 0.51562,1.48437 v 4.46484 c 0,0.25782 0.0547,0.4961 0.16406,0.71094 0.10938,0.21485 0.28516,0.32422 0.51953,0.32422 0.21875,0 0.38282,-0.10937 0.48829,-0.32812 0.10937,-0.21875 0.16015,-0.45704 0.16015,-0.70704 v -1.26562 h 0.58203 v 1.26562 c 0,0.29688 -0.0781,0.57813 -0.23437,0.84766 -0.15625,0.26563 -0.36328,0.48047 -0.625,0.63672 -0.25781,0.15625 -0.54297,0.23437 -0.84766,0.23437 -0.38672,0 -0.72265,-0.14843 -1.0039,-0.44921 -0.28125,-0.30079 -0.4375,-0.65625 -0.46875,-1.07032 -0.2461,0.5 -0.60547,0.89844 -1.08204,1.19141 -0.47265,0.29297 -0.98437,0.44141 -1.52734,0.44141 -0.50781,0 -1.00391,-0.0742 -1.48828,-0.22657 -0.48438,-0.14843 -0.89063,-0.38281 -1.21484,-0.70312 -0.32422,-0.32031 -0.48829,-0.73047 -0.48829,-1.23828 z m 1.60547,0 c 0,0.46093 0.17188,0.85156 0.51172,1.16797 0.33985,0.3164 0.74219,0.47265 1.20703,0.47265 0.42188,0 0.8125,-0.10547 1.16016,-0.3164 0.35156,-0.21485 0.62891,-0.50391 0.83594,-0.875 0.20703,-0.36719 0.30859,-0.75782 0.30859,-1.16407 v -2.05468 c -0.59766,0 -1.21484,0.0976 -1.84375,0.29687 -0.62891,0.19531 -1.14844,0.50391 -1.5625,0.92578 -0.41016,0.41797 -0.61719,0.9336 -0.61719,1.54688 z m 0,0"
     id="path959" />
  <path
     fill-rule="nonzero"
     fill="#262626"
     fill-opacity="1"
     d="m 221.82032,393.41797 v -5.46094 h -1.65235 v -0.51562 c 0.86328,0 1.5,-0.40625 1.90625,-1.21094 0.40625,-0.80859 0.60938,-1.67969 0.60938,-2.61719 h 0.57422 v 3.64063 h 2.79687 v 0.70312 h -2.79687 v 5.42188 c 0,0.55078 0.0898,1.03515 0.27734,1.44531 0.18359,0.41406 0.51172,0.62109 0.98828,0.62109 0.44922,0 0.77734,-0.21875 0.97656,-0.65234 0.19922,-0.43359 0.30078,-0.90625 0.30078,-1.41406 v -1.17188 h 0.57032 v 1.21094 c 0,0.41406 -0.0742,0.82031 -0.22266,1.22656 -0.15234,0.40235 -0.375,0.73438 -0.67187,0.99219 -0.29688,0.26172 -0.66016,0.39063 -1.08594,0.39063 -0.79297,0 -1.42188,-0.23829 -1.87891,-0.71485 -0.46094,-0.47265 -0.6914,-1.10547 -0.6914,-1.89453 z m 0,0"
     id="path961" />
  <path
     fill-rule="nonzero"
     fill="#262626"
     fill-opacity="1"
     d="m 228.1875,395.80078 v -0.69531 c 0.45313,0 0.82422,-0.0352 1.11328,-0.10547 0.29297,-0.0742 0.4375,-0.24609 0.4375,-0.52344 v -5.41406 c 0,-0.5039 -0.0977,-0.8164 -0.29687,-0.93359 -0.19531,-0.11328 -0.58594,-0.17188 -1.16797,-0.17188 v -0.70312 l 2.85156,-0.20703 v 7.42968 c 0,0.27735 0.12891,0.44922 0.38282,0.52344 0.25,0.0703 0.58984,0.10547 1.00781,0.10547 v 0.69531 z m 0.84766,-12.16015 c 0,-0.29297 0.10937,-0.55078 0.32812,-0.76953 0.21875,-0.21875 0.46875,-0.32813 0.75,-0.32813 0.1875,0 0.36719,0.0469 0.54297,0.14453 0.17578,0.0977 0.3125,0.23438 0.41016,0.41016 0.0977,0.17187 0.14453,0.35547 0.14453,0.54297 0,0.28125 -0.10937,0.53125 -0.32812,0.75 -0.21875,0.21875 -0.47657,0.32812 -0.76954,0.32812 -0.28125,0 -0.53125,-0.10937 -0.75,-0.32812 -0.21875,-0.21875 -0.32812,-0.46875 -0.32812,-0.75 z m 0,0"
     id="path963" />
  <path
     fill-rule="nonzero"
     fill="#262626"
     fill-opacity="1"
     d="m 238.09375,396.02735 c -0.79297,0 -1.52734,-0.20313 -2.20312,-0.60547 -0.67578,-0.40235 -1.21094,-0.94532 -1.60547,-1.625 -0.39453,-0.67578 -0.58984,-1.41797 -0.58984,-2.21875 0,-0.60547 0.10546,-1.1875 0.32031,-1.75 0.21875,-0.5586 0.52734,-1.0586 0.92969,-1.5 0.40625,-0.44141 0.875,-0.78907 1.41015,-1.03907 0.53516,-0.25 1.11328,-0.375 1.73828,-0.375 0.8125,0 1.55469,0.21485 2.21875,0.64454 0.66797,0.42968 1.19532,1 1.58203,1.72265 0.38672,0.71875 0.58204,1.48438 0.58204,2.29688 0,0.79687 -0.19532,1.53515 -0.58985,2.21484 -0.39453,0.68359 -0.92969,1.22656 -1.60156,1.62891 -0.67188,0.40234 -1.40234,0.60547 -2.19141,0.60547 z m 0,-0.58204 c 1.0586,0 1.76563,-0.38671 2.1211,-1.15625 0.35547,-0.76953 0.53515,-1.74218 0.53515,-2.92578 0,-0.66797 -0.0352,-1.22265 -0.10937,-1.65625 -0.0703,-0.43359 -0.22656,-0.83203 -0.46094,-1.1875 -0.15234,-0.21875 -0.33984,-0.41015 -0.57031,-0.57031 -0.22656,-0.16406 -0.46875,-0.28906 -0.72656,-0.37891 -0.25782,-0.0859 -0.51954,-0.1289 -0.78907,-0.1289 -0.41015,0 -0.80468,0.0937 -1.17578,0.28125 -0.375,0.1875 -0.67969,0.45312 -0.92578,0.79687 -0.24219,0.375 -0.39844,0.78907 -0.46875,1.23828 -0.0703,0.44922 -0.10156,0.98438 -0.10156,1.60547 0,0.73828 0.0625,1.40235 0.19531,1.99219 0.13281,0.59375 0.39063,1.08984 0.77734,1.48828 0.39063,0.40235 0.95704,0.60156 1.69922,0.60156 z m 0,0"
     id="path965" />
  <path
     fill-rule="nonzero"
     fill="#262626"
     fill-opacity="1"
     d="m 243.74219,395.80078 v -0.69531 c 0.44922,0 0.82031,-0.0352 1.10938,-0.10547 0.29296,-0.0742 0.4375,-0.24609 0.4375,-0.52344 v -5.41406 c 0,-0.34765 -0.0547,-0.60547 -0.16016,-0.76172 -0.10547,-0.16015 -0.25781,-0.25781 -0.46094,-0.29297 -0.19922,-0.0351 -0.50781,-0.0508 -0.92578,-0.0508 v -0.70312 l 2.87109,-0.20703 v 1.93359 c 0.26172,-0.57031 0.65235,-1.03516 1.17579,-1.39453 0.52343,-0.35938 1.08593,-0.53906 1.69531,-0.53906 0.91797,0 1.60937,0.21875 2.0664,0.65625 0.46094,0.4375 0.69141,1.10937 0.69141,2.00781 v 4.76562 c 0,0.27735 0.14453,0.44922 0.4375,0.52344 0.28906,0.0703 0.66016,0.10547 1.10938,0.10547 v 0.69531 h -4.53125 v -0.69531 c 0.44921,0 0.82031,-0.0352 1.11328,-0.10547 0.28906,-0.0742 0.43359,-0.24609 0.43359,-0.52344 v -4.69921 c 0,-0.65235 -0.0937,-1.1836 -0.28125,-1.60157 -0.1875,-0.41406 -0.57031,-0.62109 -1.15234,-0.62109 -0.76953,0 -1.39844,0.30469 -1.89063,0.91797 -0.49219,0.61328 -0.73828,1.3125 -0.73828,2.09375 v 3.91015 c 0,0.27735 0.14453,0.44922 0.43359,0.52344 0.28516,0.0703 0.65625,0.10547 1.10547,0.10547 v 0.69531 z m 0,0"
     id="path967" />
  <path
     fill-rule="nonzero"
     fill="#262626"
     fill-opacity="1"
     d="m 254.92969,395.85938 v -3.23047 c 0,-0.10547 0.0586,-0.16016 0.17578,-0.16016 h 0.23438 c 0.082,0 0.13672,0.0547 0.16015,0.16016 0.3711,1.91406 1.26172,2.87109 2.67578,2.87109 0.625,0 1.14844,-0.14062 1.57032,-0.42578 0.42187,-0.28516 0.63281,-0.72266 0.63281,-1.31641 0,-0.42578 -0.16406,-0.78906 -0.49219,-1.08984 -0.32812,-0.30078 -0.71875,-0.50391 -1.17578,-0.60937 l -1.32422,-0.26563 c -0.44531,-0.0937 -0.85156,-0.23828 -1.21484,-0.4375 -0.36719,-0.20312 -0.66406,-0.46875 -0.89844,-0.80469 -0.23047,-0.33593 -0.34375,-0.71875 -0.34375,-1.16015 0,-0.57813 0.15234,-1.05469 0.45703,-1.42578 0.3086,-0.36719 0.70703,-0.63672 1.19922,-0.80079 0.48828,-0.16796 1.01953,-0.25 1.58984,-0.25 0.67579,0 1.26172,0.1836 1.76172,0.54688 l 0.57422,-0.5 c 0,-0.0312 0.0312,-0.0469 0.0937,-0.0469 h 0.14844 c 0.0391,0 0.0742,0.0195 0.10547,0.0586 0.0312,0.0351 0.0469,0.0742 0.0469,0.11328 v 2.58984 c 0,0.125 -0.0508,0.1875 -0.15234,0.1875 h -0.24219 c -0.11328,0 -0.16797,-0.0625 -0.16797,-0.1875 0,-0.6914 -0.19531,-1.24218 -0.57812,-1.66406 -0.38672,-0.41797 -0.92188,-0.62891 -1.60938,-0.62891 -0.59375,0 -1.10937,0.10938 -1.54687,0.32813 -0.44141,0.22266 -0.66016,0.59766 -0.66016,1.13672 0,0.36328 0.15625,0.66406 0.46875,0.90234 0.31641,0.23828 0.6836,0.40625 1.10938,0.50391 l 1.33984,0.2539 c 0.45313,0.10157 0.87109,0.27344 1.26563,0.52344 0.39062,0.2461 0.69921,0.55469 0.92578,0.92578 0.23047,0.375 0.34375,0.79688 0.34375,1.27344 0,0.47656 -0.082,0.88672 -0.25,1.23828 -0.16407,0.35156 -0.39063,0.64453 -0.6836,0.87891 -0.28906,0.23437 -0.63672,0.40625 -1.03515,0.51562 -0.40235,0.10938 -0.82032,0.16407 -1.25782,0.16407 -0.82812,0 -1.53515,-0.27735 -2.12109,-0.83594 l -0.73437,0.78906 c 0,0.0312 -0.0312,0.0469 -0.10157,0.0469 h -0.11328 c -0.11719,0 -0.17578,-0.0586 -0.17578,-0.16797 z m 0,0"
     id="path969" />
  <path
     fill="none"
     stroke-width="0.500467"
     stroke-linecap="square"
     stroke-linejoin="round"
     stroke="#262626"
     stroke-opacity="1"
     stroke-miterlimit="10"
     d="M 57.949271,354.96515 V 9.039089"
     id="path971" />
  <path
     fill="none"
     stroke-width="0.500467"
     stroke-linecap="square"
     stroke-linejoin="round"
     stroke="#262626"
     stroke-opacity="1"
     stroke-miterlimit="10"
     d="m 57.949271,265.37915 h 3.457033"
     id="path973" />
  <path
     fill="none"
     stroke-width="0.500467"
     stroke-linecap="square"
     stroke-linejoin="round"
     stroke="#262626"
     stroke-opacity="1"
     stroke-miterlimit="10"
     d="m 57.949271,137.21107 h 3.457033"
     id="path975" />
  <path
     fill="none"
     stroke-width="0.500467"
     stroke-linecap="square"
     stroke-linejoin="round"
     stroke="#262626"
     stroke-opacity="1"
     stroke-miterlimit="10"
     d="m 57.949271,9.039089 h 3.457033"
     id="path977" />
  <path
     fill="none"
     stroke-width="0.500467"
     stroke-linecap="square"
     stroke-linejoin="round"
     stroke="#262626"
     stroke-opacity="1"
     stroke-miterlimit="10"
     d="m 57.949271,354.96515 h 1.730468"
     id="path979" />
  <path
     fill="none"
     stroke-width="0.500467"
     stroke-linecap="square"
     stroke-linejoin="round"
     stroke="#262626"
     stroke-opacity="1"
     stroke-miterlimit="10"
     d="m 57.949271,332.39482 h 1.730468"
     id="path981" />
  <path
     fill="none"
     stroke-width="0.500467"
     stroke-linecap="square"
     stroke-linejoin="round"
     stroke="#262626"
     stroke-opacity="1"
     stroke-miterlimit="10"
     d="m 57.949271,316.38309 h 1.730468"
     id="path983" />
  <path
     fill="none"
     stroke-width="0.500467"
     stroke-linecap="square"
     stroke-linejoin="round"
     stroke="#262626"
     stroke-opacity="1"
     stroke-miterlimit="10"
     d="m 57.949271,303.96121 h 1.730468"
     id="path985" />
  <path
     fill="none"
     stroke-width="0.500467"
     stroke-linecap="square"
     stroke-linejoin="round"
     stroke="#262626"
     stroke-opacity="1"
     stroke-miterlimit="10"
     d="m 57.949271,293.81276 h 1.730468"
     id="path987" />
  <path
     fill="none"
     stroke-width="0.500467"
     stroke-linecap="square"
     stroke-linejoin="round"
     stroke="#262626"
     stroke-opacity="1"
     stroke-miterlimit="10"
     d="m 57.949271,285.23073 h 1.730468"
     id="path989" />
  <path
     fill="none"
     stroke-width="0.500467"
     stroke-linecap="square"
     stroke-linejoin="round"
     stroke="#262626"
     stroke-opacity="1"
     stroke-miterlimit="10"
     d="m 57.949271,277.79713 h 1.730468"
     id="path991" />
  <path
     fill="none"
     stroke-width="0.500467"
     stroke-linecap="square"
     stroke-linejoin="round"
     stroke="#262626"
     stroke-opacity="1"
     stroke-miterlimit="10"
     d="m 57.949271,271.24243 h 1.730468"
     id="path993" />
  <path
     fill="none"
     stroke-width="0.500467"
     stroke-linecap="square"
     stroke-linejoin="round"
     stroke="#262626"
     stroke-opacity="1"
     stroke-miterlimit="10"
     d="m 57.949271,265.37915 h 1.730468"
     id="path995" />
  <path
     fill="none"
     stroke-width="0.500467"
     stroke-linecap="square"
     stroke-linejoin="round"
     stroke="#262626"
     stroke-opacity="1"
     stroke-miterlimit="10"
     d="m 57.949271,226.79708 h 1.730468"
     id="path997" />
  <path
     fill="none"
     stroke-width="0.500467"
     stroke-linecap="square"
     stroke-linejoin="round"
     stroke="#262626"
     stroke-opacity="1"
     stroke-miterlimit="10"
     d="m 57.949271,204.22675 h 1.730468"
     id="path999" />
  <path
     fill="none"
     stroke-width="0.500467"
     stroke-linecap="square"
     stroke-linejoin="round"
     stroke="#262626"
     stroke-opacity="1"
     stroke-miterlimit="10"
     d="m 57.949271,188.21111 h 1.730468"
     id="path1001" />
  <path
     fill="none"
     stroke-width="0.500467"
     stroke-linecap="square"
     stroke-linejoin="round"
     stroke="#262626"
     stroke-opacity="1"
     stroke-miterlimit="10"
     d="m 57.949271,175.79314 h 1.730468"
     id="path1003" />
  <path
     fill="none"
     stroke-width="0.500467"
     stroke-linecap="square"
     stroke-linejoin="round"
     stroke="#262626"
     stroke-opacity="1"
     stroke-miterlimit="10"
     d="m 57.949271,165.64469 h 1.730468"
     id="path1005" />
  <path
     fill="none"
     stroke-width="0.500467"
     stroke-linecap="square"
     stroke-linejoin="round"
     stroke="#262626"
     stroke-opacity="1"
     stroke-miterlimit="10"
     d="m 57.949271,157.06265 h 1.730468"
     id="path1007" />
  <path
     fill="none"
     stroke-width="0.500467"
     stroke-linecap="square"
     stroke-linejoin="round"
     stroke="#262626"
     stroke-opacity="1"
     stroke-miterlimit="10"
     d="m 57.949271,149.62905 h 1.730468"
     id="path1009" />
  <path
     fill="none"
     stroke-width="0.500467"
     stroke-linecap="square"
     stroke-linejoin="round"
     stroke="#262626"
     stroke-opacity="1"
     stroke-miterlimit="10"
     d="m 57.949271,143.07436 h 1.730468"
     id="path1011" />
  <path
     fill="none"
     stroke-width="0.500467"
     stroke-linecap="square"
     stroke-linejoin="round"
     stroke="#262626"
     stroke-opacity="1"
     stroke-miterlimit="10"
     d="m 57.949271,137.21107 h 1.730468"
     id="path1013" />
  <path
     fill="none"
     stroke-width="0.500467"
     stroke-linecap="square"
     stroke-linejoin="round"
     stroke="#262626"
     stroke-opacity="1"
     stroke-miterlimit="10"
     d="m 57.949271,98.625098 h 1.730468"
     id="path1015" />
  <path
     fill="none"
     stroke-width="0.500467"
     stroke-linecap="square"
     stroke-linejoin="round"
     stroke="#262626"
     stroke-opacity="1"
     stroke-miterlimit="10"
     d="m 57.949271,76.058672 h 1.730468"
     id="path1017" />
  <path
     fill="none"
     stroke-width="0.500467"
     stroke-linecap="square"
     stroke-linejoin="round"
     stroke="#262626"
     stroke-opacity="1"
     stroke-miterlimit="10"
     d="m 57.949271,60.043038 h 1.730468"
     id="path1019" />
  <path
     fill="none"
     stroke-width="0.500467"
     stroke-linecap="square"
     stroke-linejoin="round"
     stroke="#262626"
     stroke-opacity="1"
     stroke-miterlimit="10"
     d="m 57.949271,47.625058 h 1.730468"
     id="path1021" />
  <path
     fill="none"
     stroke-width="0.500467"
     stroke-linecap="square"
     stroke-linejoin="round"
     stroke="#262626"
     stroke-opacity="1"
     stroke-miterlimit="10"
     d="m 57.949271,37.476616 h 1.730468"
     id="path1023" />
  <path
     fill="none"
     stroke-width="0.500467"
     stroke-linecap="square"
     stroke-linejoin="round"
     stroke="#262626"
     stroke-opacity="1"
     stroke-miterlimit="10"
     d="m 57.949271,28.894574 h 1.730468"
     id="path1025" />
  <path
     fill="none"
     stroke-width="0.500467"
     stroke-linecap="square"
     stroke-linejoin="round"
     stroke="#262626"
     stroke-opacity="1"
     stroke-miterlimit="10"
     d="m 57.949271,21.460975 h 1.730468"
     id="path1027" />
  <path
     fill="none"
     stroke-width="0.500467"
     stroke-linecap="square"
     stroke-linejoin="round"
     stroke="#262626"
     stroke-opacity="1"
     stroke-miterlimit="10"
     d="m 57.949271,14.906281 h 1.730468"
     id="path1029" />
  <path
     fill="none"
     stroke-width="0.500467"
     stroke-linecap="square"
     stroke-linejoin="round"
     stroke="#262626"
     stroke-opacity="1"
     stroke-miterlimit="10"
     d="m 57.949271,9.039089 h 1.730468"
     id="path1031" />
  <path
     fill-rule="nonzero"
     fill="#262626"
     fill-opacity="1"
     d="m 25.140625,268.98047 v -0.52344 c 1.25,0 1.875,-0.16015 1.875,-0.48047 v -7.88281 c -0.511719,0.25 -1.167969,0.375 -1.960938,0.375 v -0.52344 c 1.226563,0 2.152344,-0.32421 2.777344,-0.96875 h 0.214844 c 0.03125,0 0.0625,0.0156 0.09375,0.043 0.03125,0.0274 0.04687,0.0586 0.04687,0.0899 v 8.86718 c 0,0.32032 0.625,0.48047 1.878906,0.48047 v 0.52344 z m 0,0"
     id="path1033" />
  <path
     fill-rule="nonzero"
     fill="#262626"
     fill-opacity="1"
     d="m 35.011718,269.3086 c -1.226562,0 -2.0625,-0.50391 -2.503906,-1.51563 -0.4375,-1.00781 -0.660156,-2.21094 -0.660156,-3.59766 0,-0.87109 0.07813,-1.6875 0.234375,-2.45703 0.15625,-0.76953 0.472656,-1.42187 0.945313,-1.95703 0.472656,-0.53515 1.132812,-0.80469 1.984374,-0.80469 0.65625,0 1.195313,0.16407 1.617188,0.48438 0.421875,0.32422 0.742188,0.73828 0.960938,1.25391 0.21875,0.51171 0.371093,1.05859 0.453124,1.64062 0.07813,0.58203 0.121094,1.19531 0.121094,1.83984 0,0.85547 -0.08203,1.66016 -0.238281,2.41016 -0.160156,0.75391 -0.472656,1.39063 -0.933594,1.91406 -0.464843,0.52735 -1.125,0.78907 -1.980469,0.78907 z m 0,-0.38282 c 0.554688,0 0.972657,-0.28906 1.246094,-0.85937 0.277344,-0.57422 0.445313,-1.20703 0.507813,-1.90235 0.0625,-0.6914 0.09375,-1.42968 0.09375,-2.21093 0,-0.75391 -0.03125,-1.44532 -0.09375,-2.08203 -0.0625,-0.63282 -0.230469,-1.20704 -0.503907,-1.72657 -0.269531,-0.51562 -0.6875,-0.77343 -1.25,-0.77343 -0.570312,0 -0.992187,0.25781 -1.261718,0.77343 -0.273438,0.51953 -0.441406,1.09375 -0.503906,1.72657 -0.0625,0.63671 -0.09375,1.32812 -0.09375,2.08203 0,0.55468 0.01172,1.08203 0.03906,1.57422 0.02344,0.49609 0.09375,1.0039 0.214844,1.53125 0.117187,0.52343 0.308594,0.96484 0.566406,1.32812 0.261719,0.35938 0.605469,0.53906 1.039062,0.53906 z m 0,0"
     id="path1035" />
  <path
     fill-rule="nonzero"
     fill="#262626"
     fill-opacity="1"
     d="m 39.871094,261.04688 c -0.0625,0 -0.113282,-0.0234 -0.148438,-0.0703 -0.03906,-0.0469 -0.05859,-0.0976 -0.05859,-0.14843 0,-0.0469 0.01953,-0.0977 0.05859,-0.14453 0.03516,-0.0469 0.08594,-0.0703 0.148438,-0.0703 h 6.203124 c 0.05469,0 0.101563,0.0234 0.136719,0.0703 0.03516,0.0469 0.05078,0.0976 0.05078,0.14453 0,0.0508 -0.01562,0.10156 -0.05078,0.14843 -0.03516,0.0469 -0.08203,0.0703 -0.136719,0.0703 z m 0,0"
     id="path1037" />
  <path
     fill-rule="nonzero"
     fill="#262626"
     fill-opacity="1"
     d="m 47.96875,262.69922 c 0.171875,0.24219 0.398437,0.42578 0.683594,0.54688 0.28125,0.12109 0.589843,0.18359 0.914062,0.18359 0.417969,0 0.714844,-0.17969 0.890625,-0.53516 0.175781,-0.35547 0.261719,-0.76172 0.261719,-1.21875 0,-0.20703 -0.01563,-0.41406 -0.05078,-0.61718 -0.03516,-0.20313 -0.09766,-0.39063 -0.1875,-0.56641 -0.08984,-0.17578 -0.210937,-0.31641 -0.367187,-0.42188 -0.152344,-0.10546 -0.339844,-0.16015 -0.558594,-0.16015 h -0.710937 c -0.07031,0 -0.105469,-0.0352 -0.105469,-0.10156 v -0.0937 c 0,-0.0586 0.03516,-0.0859 0.105469,-0.0859 l 0.589844,-0.0469 c 0.257812,0 0.46875,-0.0937 0.632812,-0.28515 0.167969,-0.19141 0.289062,-0.42188 0.367188,-0.69532 0.07812,-0.27343 0.117187,-0.53125 0.117187,-0.77343 0,-0.34375 -0.08203,-0.62891 -0.242187,-0.85157 -0.164063,-0.22265 -0.410157,-0.33203 -0.742188,-0.33203 -0.277344,0 -0.539062,0.0508 -0.789062,0.15625 -0.25,0.10157 -0.445313,0.26172 -0.589844,0.47266 0.01172,-0.008 0.02344,-0.008 0.03125,-0.008 0.01172,0 0.02344,0 0.04297,0 0.164063,0 0.296876,0.0547 0.402344,0.16797 0.105469,0.11328 0.160156,0.24609 0.160156,0.40234 0,0.15625 -0.05469,0.29297 -0.160156,0.40234 -0.105468,0.11328 -0.238281,0.17188 -0.402344,0.17188 -0.164062,0 -0.300781,-0.0586 -0.414062,-0.17188 -0.113281,-0.10937 -0.167969,-0.24609 -0.167969,-0.40234 0,-0.30469 0.09375,-0.57422 0.28125,-0.80469 0.1875,-0.23437 0.429688,-0.40625 0.722657,-0.52344 0.292968,-0.11328 0.589843,-0.17187 0.882812,-0.17187 0.21875,0 0.449219,0.0312 0.695312,0.0977 0.242188,0.0664 0.464844,0.15625 0.660157,0.27734 0.195312,0.11719 0.359375,0.27344 0.484375,0.46484 0.125,0.19141 0.1875,0.40625 0.1875,0.65235 0,0.30078 -0.07031,0.57812 -0.207032,0.83593 -0.136718,0.25391 -0.324218,0.47657 -0.558593,0.66407 -0.234375,0.1875 -0.492188,0.32812 -0.773438,0.42187 0.3125,0.0586 0.609375,0.17188 0.890625,0.34766 0.28125,0.17578 0.507813,0.40234 0.679688,0.67578 0.171875,0.27734 0.257812,0.57422 0.257812,0.89062 0,0.39454 -0.109375,0.75391 -0.328125,1.07422 -0.21875,0.32422 -0.507812,0.57422 -0.863281,0.75782 -0.355469,0.17968 -0.730469,0.26953 -1.125,0.26953 -0.339844,0 -0.675781,-0.0625 -1.015625,-0.19141 -0.335937,-0.12891 -0.613281,-0.32031 -0.832031,-0.57812 -0.21875,-0.25391 -0.328125,-0.5625 -0.328125,-0.91797 0,-0.17969 0.05859,-0.33203 0.179687,-0.44922 0.125,-0.1211 0.273438,-0.17969 0.445313,-0.17969 0.121093,0 0.230469,0.0273 0.324219,0.0781 0.09766,0.0547 0.171874,0.13281 0.226562,0.23046 0.05469,0.10157 0.07813,0.20704 0.07813,0.32032 0,0.17578 -0.05859,0.32031 -0.179687,0.4414 -0.125,0.11719 -0.273438,0.17969 -0.449219,0.17969 z m 0,0"
     id="path1039" />
  <path
     fill-rule="nonzero"
     fill="#262626"
     fill-opacity="1"
     d="m 25.140625,140.8125 v -0.52734 c 1.25,0 1.875,-0.15625 1.875,-0.47656 v -7.88282 c -0.511719,0.25 -1.167969,0.375 -1.960938,0.375 v -0.52343 c 1.226563,0 2.152344,-0.32422 2.777344,-0.96875 h 0.214844 c 0.03125,0 0.0625,0.0156 0.09375,0.043 0.03125,0.0273 0.04687,0.0586 0.04687,0.0898 v 8.86719 c 0,0.32031 0.625,0.47656 1.878906,0.47656 v 0.52734 z m 0,0"
     id="path1041" />
  <path
     fill-rule="nonzero"
     fill="#262626"
     fill-opacity="1"
     d="m 35.011718,141.14063 c -1.226562,0 -2.0625,-0.50391 -2.503906,-1.51563 -0.4375,-1.01172 -0.660156,-2.21094 -0.660156,-3.59765 0,-0.8711 0.07813,-1.69141 0.234375,-2.46094 0.15625,-0.76953 0.472656,-1.41797 0.945313,-1.95313 0.472656,-0.53515 1.132812,-0.80468 1.984374,-0.80468 0.65625,0 1.195313,0.16015 1.617188,0.48437 0.421875,0.32031 0.742188,0.73828 0.960938,1.25391 0.21875,0.51172 0.371093,1.05859 0.453124,1.64062 0.07813,0.58203 0.121094,1.19531 0.121094,1.83985 0,0.85546 -0.08203,1.66015 -0.238281,2.41015 -0.160156,0.75 -0.472656,1.39063 -0.933594,1.91406 -0.464843,0.52735 -1.125,0.78907 -1.980469,0.78907 z m 0,-0.38282 c 0.554688,0 0.972657,-0.28906 1.246094,-0.85937 0.277344,-0.57422 0.445313,-1.20703 0.507813,-1.90234 0.0625,-0.69141 0.09375,-1.42969 0.09375,-2.21485 0,-0.75 -0.03125,-1.4414 -0.09375,-2.07812 -0.0625,-0.63282 -0.230469,-1.21094 -0.503907,-1.72657 -0.269531,-0.51562 -0.6875,-0.77343 -1.25,-0.77343 -0.570312,0 -0.992187,0.25781 -1.261718,0.77343 -0.273438,0.51563 -0.441406,1.09375 -0.503906,1.72657 -0.0625,0.63672 -0.09375,1.32812 -0.09375,2.07812 0,0.5586 0.01172,1.08203 0.03906,1.57813 0.02344,0.49218 0.09375,1.0039 0.214844,1.53125 0.117187,0.52343 0.308594,0.96484 0.566406,1.32422 0.261719,0.36328 0.605469,0.54296 1.039062,0.54296 z m 0,0"
     id="path1043" />
  <path
     fill-rule="nonzero"
     fill="#262626"
     fill-opacity="1"
     d="m 39.871094,132.87891 c -0.0625,0 -0.113282,-0.0234 -0.148438,-0.0703 -0.03906,-0.0469 -0.05859,-0.0977 -0.05859,-0.14844 0,-0.0469 0.01953,-0.0977 0.05859,-0.14453 0.03516,-0.0469 0.08594,-0.0703 0.148438,-0.0703 h 6.203124 c 0.05469,0 0.101563,0.0234 0.136719,0.0703 0.03516,0.0469 0.05078,0.0977 0.05078,0.14453 0,0.0508 -0.01562,0.10156 -0.05078,0.14844 -0.03516,0.0469 -0.08203,0.0703 -0.136719,0.0703 z m 0,0"
     id="path1045" />
  <path
     fill-rule="nonzero"
     fill="#262626"
     fill-opacity="1"
     d="m 47.472656,135.36328 v -0.28906 c 0,-0.0195 0.01172,-0.0391 0.02734,-0.0586 l 1.679687,-1.85547 c 0.25,-0.27735 0.457031,-0.50781 0.617188,-0.69531 0.160156,-0.1875 0.316406,-0.40235 0.46875,-0.64454 0.152343,-0.23828 0.273437,-0.48828 0.363281,-0.73828 0.09375,-0.2539 0.136719,-0.52343 0.136719,-0.80468 0,-0.29297 -0.05469,-0.57422 -0.164063,-0.84375 -0.109375,-0.26954 -0.269531,-0.48438 -0.488281,-0.64844 -0.214844,-0.16016 -0.476563,-0.24219 -0.78125,-0.24219 -0.3125,0 -0.59375,0.0937 -0.84375,0.28125 -0.25,0.1875 -0.425781,0.42969 -0.527344,0.73047 0.02344,-0.004 0.0625,-0.008 0.113281,-0.008 0.164063,0 0.300782,0.0547 0.414063,0.16406 0.109375,0.10937 0.167969,0.25 0.167969,0.42578 0,0.16406 -0.05859,0.30078 -0.167969,0.41797 -0.113281,0.11719 -0.25,0.17187 -0.414063,0.17187 -0.167968,0 -0.3125,-0.0586 -0.425781,-0.17578 -0.117187,-0.12109 -0.175781,-0.25781 -0.175781,-0.41406 0,-0.27344 0.05078,-0.53125 0.15625,-0.76953 0.101562,-0.23828 0.25,-0.44922 0.441406,-0.63281 0.191406,-0.1836 0.40625,-0.32422 0.644532,-0.42188 0.242187,-0.0977 0.5,-0.14453 0.777343,-0.14453 0.410157,0 0.792969,0.0859 1.148438,0.25781 0.351562,0.17188 0.632812,0.41797 0.84375,0.73438 0.210937,0.32031 0.316406,0.6914 0.316406,1.11719 0,0.3125 -0.07031,0.60937 -0.207031,0.89062 -0.140625,0.28125 -0.316406,0.53906 -0.53125,0.76953 -0.214844,0.23438 -0.492188,0.49219 -0.824219,0.78516 -0.335937,0.28906 -0.558594,0.48437 -0.664063,0.58594 l -1.21875,1.18359 h 1.042969 c 0.503907,0 0.929688,-0.004 1.273438,-0.0156 0.34375,-0.008 0.527343,-0.0234 0.546875,-0.043 0.08594,-0.0937 0.171875,-0.42579 0.261718,-0.99219 h 0.320313 l -0.3125,1.92187 z m 0,0"
     id="path1047" />
  <path
     fill-rule="nonzero"
     fill="#262626"
     fill-opacity="1"
     d="m 25.140625,12.644532 v -0.527344 c 1.25,0 1.875,-0.160156 1.875,-0.476562 V 3.757813 c -0.511719,0.25 -1.167969,0.375 -1.960938,0.375 V 3.605469 c 1.226563,0 2.152344,-0.320312 2.777344,-0.964843 h 0.214844 c 0.03125,0 0.0625,0.01562 0.09375,0.04297 0.03125,0.02734 0.04687,0.05859 0.04687,0.08984 v 8.867188 c 0,0.316406 0.625,0.476562 1.878906,0.476562 v 0.527344 z m 0,0"
     id="path1049" />
  <path
     fill-rule="nonzero"
     fill="#262626"
     fill-opacity="1"
     d="m 35.011718,12.972657 c -1.226562,0 -2.0625,-0.503907 -2.503906,-1.515625 -0.4375,-1.011719 -0.660156,-2.210938 -0.660156,-3.597656 0,-0.871094 0.07813,-1.691407 0.234375,-2.460938 0.15625,-0.769531 0.472656,-1.421875 0.945313,-1.957031 0.472656,-0.53125 1.132812,-0.800781 1.984374,-0.800781 0.65625,0 1.195313,0.160156 1.617188,0.484374 0.421875,0.320313 0.742188,0.738282 0.960938,1.25 0.21875,0.515626 0.371093,1.0625 0.453124,1.644532 0.07813,0.582031 0.121094,1.195312 0.121094,1.839844 0,0.855468 -0.08203,1.660156 -0.238281,2.410156 -0.160156,0.75 -0.472656,1.390625 -0.933594,1.914062 -0.464843,0.527344 -1.125,0.789063 -1.980469,0.789063 z m 0,-0.386719 c 0.554688,0 0.972657,-0.285156 1.246094,-0.855469 0.277344,-0.574219 0.445313,-1.207031 0.507813,-1.902343 0.0625,-0.695313 0.09375,-1.433594 0.09375,-2.214844 0,-0.75 -0.03125,-1.441406 -0.09375,-2.078125 -0.0625,-0.632813 -0.230469,-1.210938 -0.503907,-1.726563 -0.269531,-0.515625 -0.6875,-0.773437 -1.25,-0.773437 -0.570312,0 -0.992187,0.257812 -1.261718,0.773437 -0.273438,0.515625 -0.441406,1.09375 -0.503906,1.726563 -0.0625,0.636719 -0.09375,1.328125 -0.09375,2.078125 0,0.558594 0.01172,1.082031 0.03906,1.578125 0.02344,0.492187 0.09375,1.003906 0.214844,1.527343 0.117187,0.527344 0.308594,0.96875 0.566406,1.328126 0.261719,0.359374 0.605469,0.539062 1.039062,0.539062 z m 0,0"
     id="path1051" />
  <path
     fill-rule="nonzero"
     fill="#262626"
     fill-opacity="1"
     d="m 39.871094,4.707032 c -0.0625,0 -0.113282,-0.02344 -0.148438,-0.07031 -0.03906,-0.04687 -0.05859,-0.09375 -0.05859,-0.144531 0,-0.05078 0.01953,-0.09766 0.05859,-0.144531 0.03516,-0.04687 0.08594,-0.07031 0.148438,-0.07031 h 6.203124 c 0.05469,0 0.101563,0.02344 0.136719,0.07031 0.03516,0.04687 0.05078,0.09375 0.05078,0.144531 0,0.05078 -0.01562,0.09766 -0.05078,0.144531 -0.03516,0.04687 -0.08203,0.07031 -0.136719,0.07031 z m 0,0"
     id="path1053" />
  <path
     fill-rule="nonzero"
     fill="#262626"
     fill-opacity="1"
     d="M 47.941406,7.195313 V 6.8125 c 0.902344,0 1.351562,-0.113281 1.351562,-0.339843 V 0.796876 C 48.917968,0.976563 48.445312,1.066407 47.875,1.066407 V 0.683594 c 0.882812,0 1.550781,-0.230468 2,-0.683594 h 0.160156 c 0.02344,0 0.04687,0.0078 0.07031,0.02734 0.02344,0.01953 0.03125,0.03906 0.03125,0.06641 v 6.378907 c 0,0.226562 0.453126,0.339843 1.351563,0.339843 v 0.382813 z m 0,0"
     id="path1055" />
  <path
     fill-rule="nonzero"
     fill="#262626"
     fill-opacity="1"
     d="m 13.539062,209.97266 h -0.691406 c 0,-1.36328 -0.210938,-2.04297 -0.628906,-2.04297 H 1.332031 c -0.417969,0 -0.628906,0.67969 -0.628906,2.04297 H 0 v -11.20313 l 4.542968,-0.55468 v 0.57421 c -1.148437,0.14454 -1.976562,0.34375 -2.492187,0.59375 -0.515625,0.25391 -0.871094,0.66016 -1.0625,1.22266 -0.191406,0.55859 -0.285156,1.40234 -0.285156,2.52734 v 1.94141 c 0,0.23828 0.00781,0.42578 0.027343,0.55859 0.019532,0.13672 0.074219,0.24219 0.171876,0.32422 0.09375,0.082 0.234374,0.1211 0.429687,0.1211 H 6.164062 V 204.625 c 0,-0.67578 -0.054687,-1.17969 -0.167968,-1.51172 -0.113282,-0.33203 -0.328126,-0.55859 -0.648438,-0.68359 -0.320312,-0.125 -0.816406,-0.1875 -1.492188,-0.1875 v -0.58203 h 5.320313 v 0.58203 c -0.667969,0 -1.164063,0.0625 -1.484375,0.1875 -0.324219,0.125 -0.542969,0.35156 -0.660156,0.68359 -0.113282,0.33203 -0.171875,0.83594 -0.171875,1.51172 v 1.45313 h 5.359375 c 0.28125,0 0.457031,-0.0781 0.523437,-0.23828 0.07031,-0.16016 0.105469,-0.41407 0.105469,-0.76563 v -2.10156 c 0,-0.91016 -0.07422,-1.64844 -0.222656,-2.21485 -0.148438,-0.5625 -0.390625,-1 -0.726563,-1.3164 -0.339843,-0.31641 -0.777343,-0.5586 -1.3125,-0.72656 -0.539062,-0.17188 -1.285156,-0.32813 -2.246093,-0.48047 v -0.57032 l 5.199218,0.83204 z m 0,0"
     id="path1057" />
  <path
     fill-rule="nonzero"
     fill="#262626"
     fill-opacity="1"
     d="m 13.539062,196.44531 h -0.691406 c 0,-0.45312 -0.03906,-0.82031 -0.109375,-1.11328 -0.07031,-0.28906 -0.246094,-0.4375 -0.519531,-0.4375 H 6.804687 c -0.351562,0 -0.605469,0.0547 -0.765625,0.16016 -0.160156,0.10547 -0.257812,0.26172 -0.292968,0.46094 -0.035157,0.19922 -0.050782,0.50781 -0.050782,0.92968 H 4.992187 L 4.785156,193.60938 H 6.71875 c -0.574219,-0.21094 -1.042969,-0.51563 -1.398438,-0.91016 -0.355468,-0.39453 -0.535156,-0.86719 -0.535156,-1.42578 0,-0.39453 0.117188,-0.74609 0.347656,-1.05469 0.230469,-0.30859 0.539063,-0.46484 0.917969,-0.46484 0.238281,0 0.445313,0.0859 0.625,0.2539 0.179687,0.16797 0.269531,0.37891 0.269531,0.63672 0,0.2461 -0.08984,0.45313 -0.265625,0.625 -0.175781,0.17188 -0.382812,0.25782 -0.628906,0.25782 -0.355469,0 -0.609375,-0.125 -0.757813,-0.375 v 0.12109 c 0,0.53125 0.191407,0.96875 0.582032,1.30469 0.386718,0.33593 0.867187,0.57812 1.445312,0.72265 0.574219,0.14453 1.121094,0.21485 1.640625,0.21485 h 3.257813 c 0.417968,0 0.628906,-0.64063 0.628906,-1.92188 h 0.691406 z m 0,0"
     id="path1059" />
  <path
     fill-rule="nonzero"
     fill="#262626"
     fill-opacity="1"
     d="m 13.539062,188.60547 h -0.691406 c 0,-0.45312 -0.03906,-0.82422 -0.109375,-1.11328 -0.07031,-0.29297 -0.246094,-0.4375 -0.519531,-0.4375 H 6.804687 c -0.351562,0 -0.605469,0.0547 -0.765625,0.16016 -0.160156,0.10546 -0.257812,0.25781 -0.292968,0.46093 -0.035157,0.19922 -0.050782,0.50782 -0.050782,0.92969 H 4.992187 L 4.785156,185.76953 H 6.71875 c -0.574219,-0.21093 -1.042969,-0.51562 -1.398438,-0.91015 -0.355468,-0.39453 -0.535156,-0.8711 -0.535156,-1.42578 0,-0.39454 0.117188,-0.7461 0.347656,-1.05469 0.230469,-0.3125 0.539063,-0.46485 0.917969,-0.46485 0.238281,0 0.445313,0.082 0.625,0.25391 0.179687,0.16797 0.269531,0.37891 0.269531,0.63672 0,0.24219 -0.08984,0.45312 -0.265625,0.625 -0.175781,0.17187 -0.382812,0.25781 -0.628906,0.25781 -0.355469,0 -0.609375,-0.125 -0.757813,-0.375 v 0.1211 c 0,0.53125 0.191407,0.96484 0.582032,1.30468 0.386718,0.33594 0.867187,0.57813 1.445312,0.72266 0.574219,0.14453 1.121094,0.21484 1.640625,0.21484 h 3.257813 c 0.417968,0 0.628906,-0.64062 0.628906,-1.92187 h 0.691406 z m 0,0"
     id="path1061" />
  <path
     fill-rule="nonzero"
     fill="#262626"
     fill-opacity="1"
     d="m 13.765625,176.34375 c 0,0.80469 -0.210938,1.54688 -0.632813,2.21875 -0.421875,0.67188 -0.988281,1.19922 -1.695312,1.58594 -0.707032,0.38281 -1.453125,0.57812 -2.242188,0.57812 -0.777344,0 -1.511718,-0.17578 -2.210937,-0.52734 -0.695313,-0.35156 -1.257813,-0.83984 -1.6875,-1.46875 -0.429688,-0.62891 -0.644531,-1.33203 -0.644531,-2.10547 0,-0.60547 0.101562,-1.13281 0.304687,-1.58203 0.207031,-0.44531 0.488281,-0.81641 0.851563,-1.10547 0.363281,-0.29297 0.789062,-0.51172 1.28125,-0.66406 0.488281,-0.14844 1.027343,-0.22266 1.609374,-0.22266 0.175782,0 0.261719,0.0664 0.261719,0.20703 V 179 h 0.214844 c 1.097656,0 2.039063,-0.22265 2.824219,-0.66797 0.789062,-0.44531 1.183594,-1.16797 1.183594,-2.16797 0,-0.39843 -0.08984,-0.77343 -0.273438,-1.12109 -0.179688,-0.34766 -0.433594,-0.64844 -0.753906,-0.89844 -0.320313,-0.2539 -0.667969,-0.42968 -1.035156,-0.52343 -0.04688,-0.0117 -0.08594,-0.0352 -0.117188,-0.0703 -0.03516,-0.0352 -0.05469,-0.0742 -0.05469,-0.11718 v -0.17579 c 0,-0.14062 0.08203,-0.20703 0.246094,-0.20703 0.75,0.1875 1.367188,0.58985 1.847656,1.21094 0.480469,0.61719 0.722657,1.3125 0.722657,2.08203 z m -5.292969,2.63672 v -4.52344 c -0.5,0 -1.003906,0.0703 -1.515625,0.20703 -0.507813,0.13672 -0.933594,0.36719 -1.269531,0.6875 -0.339844,0.32422 -0.507813,0.7461 -0.507813,1.27344 0,0.75 0.351563,1.33203 1.050781,1.74219 0.699219,0.40625 1.449219,0.61328 2.242188,0.61328 z m 0,0"
     id="path1063" />
  <path
     fill-rule="nonzero"
     fill="#262626"
     fill-opacity="1"
     d="M 11.175781,170.24219 H 6.804687 c -0.351562,0 -0.605469,0.0547 -0.765625,0.16016 -0.160156,0.10546 -0.257812,0.25781 -0.292968,0.46093 -0.035157,0.19922 -0.050782,0.50782 -0.050782,0.92578 H 4.992187 l -0.207031,-3 h 6.390625 c 0.519531,0 0.921875,-0.0391 1.210937,-0.10937 0.289063,-0.0703 0.5,-0.23047 0.640626,-0.47266 0.140624,-0.24609 0.210937,-0.6289 0.210937,-1.15625 0,-0.71093 -0.296875,-1.27734 -0.890625,-1.69922 -0.59375,-0.41796 -1.265625,-0.625 -2.015625,-0.625 H 6.804687 c -0.351562,0 -0.605469,0.0547 -0.765625,0.16407 -0.160156,0.10937 -0.257812,0.26172 -0.292968,0.45703 -0.035157,0.19922 -0.050782,0.50781 -0.050782,0.92578 H 4.992187 l -0.207031,-2.98438 h 6.953125 c 0.351563,0 0.605469,-0.0547 0.761719,-0.16015 0.15625,-0.10547 0.253906,-0.25781 0.289062,-0.46094 0.03906,-0.19922 0.05859,-0.50781 0.05859,-0.92578 h 0.691406 l 0.226563,2.92578 h -1.679688 c 0.5,0.24609 0.90625,0.58594 1.214844,1.02734 0.308594,0.44141 0.464844,0.92579 0.464844,1.44922 0,0.95313 -0.203125,1.70703 -0.605469,2.26172 -0.402344,0.5586 -1.066406,0.83594 -1.984375,0.83594 z m 0,0"
     id="path1065" />
  <path
     fill-rule="nonzero"
     fill="#262626"
     fill-opacity="1"
     d="m 13.539062,160.7461 h -0.691406 c 0,-0.45313 -0.03906,-0.82422 -0.109375,-1.11329 -0.07031,-0.29296 -0.246094,-0.4375 -0.519531,-0.4375 H 6.804687 c -0.351562,0 -0.605469,0.0547 -0.765625,0.16016 -0.160156,0.10547 -0.257812,0.25781 -0.292968,0.46094 -0.035157,0.19922 -0.050782,0.50781 -0.050782,0.92969 H 4.992187 L 4.785156,157.91016 H 6.71875 C 6.144531,157.69922 5.675781,157.39453 5.320312,157 c -0.355468,-0.39453 -0.535156,-0.87109 -0.535156,-1.42578 0,-0.39453 0.117188,-0.74609 0.347656,-1.05469 0.230469,-0.3125 0.539063,-0.46484 0.917969,-0.46484 0.238281,0 0.445313,0.082 0.625,0.25391 0.179687,0.16796 0.269531,0.3789 0.269531,0.63671 0,0.24219 -0.08984,0.45313 -0.265625,0.625 -0.175781,0.17188 -0.382812,0.25782 -0.628906,0.25782 -0.355469,0 -0.609375,-0.125 -0.757813,-0.375 v 0.12109 c 0,0.53125 0.191407,0.96484 0.582032,1.30469 0.386718,0.33594 0.867187,0.57812 1.445312,0.72265 0.574219,0.14454 1.121094,0.21485 1.640625,0.21485 h 3.257813 c 0.417968,0 0.628906,-0.64063 0.628906,-1.92188 h 0.691406 z m 0,0"
     id="path1067" />
  <path
     fill="none"
     stroke-width="0.500467"
     stroke-linecap="butt"
     stroke-linejoin="bevel"
     stroke="#000000"
     stroke-opacity="1"
     stroke-dasharray="10, 6"
     stroke-miterlimit="1"
     d="M 57.949271,265.37915 H 382.25032"
     id="path1069" />
  <path
     fill="none"
     stroke-width="3.0028"
     stroke-linecap="butt"
     stroke-linejoin="round"
     stroke="#000000"
     stroke-opacity="1"
     stroke-miterlimit="10"
     d="m 57.949271,9.707058 21.621108,0.816407 21.617211,1.546876 21.62111,3.097659 21.62111,6.164068 21.62111,11.085947 21.61721,15.230483 21.62111,25.675802 21.62111,23.390648 21.62111,25.011732 21.61721,30.09768 21.62111,38.6641 21.62111,50.55082 21.62111,51.06254 19.27736,62.9024"
     id="path1071" />
  <path
     fill="none"
     stroke-width="3.0028"
     stroke-linecap="butt"
     stroke-linejoin="round"
     stroke="#ff0000"
     stroke-opacity="1"
     stroke-miterlimit="10"
     d="m 57.949271,9.707058 21.621108,83.11335 21.617211,59.589892 21.62111,65.89068 21.62111,25.35159 21.62111,23.64455 21.61721,78.52741 6.11719,9.17969"
     id="path1073" />
  <path
     fill="none"
     stroke-width="3.0028"
     stroke-linecap="butt"
     stroke-linejoin="bevel"
     stroke="#000000"
     stroke-opacity="1"
     stroke-dasharray="20, 20"
     stroke-miterlimit="1"
     d="m 57.949271,152.26577 21.621108,2.83594 21.617211,4.46485 21.62111,6.84375 21.62111,10.66798 21.62111,14.94533 21.61721,15.32813 21.62111,24.28909 21.62111,34.34768 21.62111,30.01565 21.61721,37.39847 8.56641,21.60158"
     id="path1075" />
  <path
     fill="none"
     stroke-width="3.0028"
     stroke-linecap="butt"
     stroke-linejoin="bevel"
     stroke="#ff0000"
     stroke-opacity="1"
     stroke-dasharray="20, 20"
     stroke-miterlimit="1"
     d="m 57.949271,153.17202 21.621108,81.14069 21.617211,38.97269 21.62111,24.04689 21.62111,20.30471 21.62111,28.46877 8.20704,8.89845"
     id="path1077" />
  <path
     fill="none"
     stroke-width="3.0028"
     stroke-linecap="butt"
     stroke-linejoin="bevel"
     stroke="#ff0000"
     stroke-opacity="1"
     stroke-dasharray="5, 5"
     stroke-miterlimit="1"
     d="m 57.949271,131.21888 21.621108,38.11722 21.617211,39.60159 21.62111,67.65631 21.62111,31.0508 21.62111,33.75004 9.69142,13.60938"
     id="path1079" />
  <path
     style="fill:#000080;stroke:#000080;stroke-width:1.49654;marker-start:url(#Arrow2)"
     d="M 96.591913,273.93575 95.32791,414.27241"
     id="path1030" />
</svg>
