<?xml version="1.0" encoding="UTF-8" standalone="no"?>
<svg
   width="1573.4565"
   height="686.14313"
   viewBox="0 0 1573.4565 686.14313"
   version="1.1"
   id="svg236"
   sodipodi:docname="Trans-lunar_injection.svg"
   inkscape:version="1.2 (dc2aeda, 2022-05-15)"
   xmlns:inkscape="http://www.inkscape.org/namespaces/inkscape"
   xmlns:sodipodi="http://sodipodi.sourceforge.net/DTD/sodipodi-0.dtd"
   xmlns="http://www.w3.org/2000/svg"
   xmlns:svg="http://www.w3.org/2000/svg">
  <sodipodi:namedview
     id="namedview238"
     pagecolor="#ffffff"
     bordercolor="#000000"
     borderopacity="0.25"
     inkscape:showpageshadow="2"
     inkscape:pageopacity="0.0"
     inkscape:pagecheckerboard="0"
     inkscape:deskcolor="#d1d1d1"
     showgrid="false"
     inkscape:zoom="2.0671088"
     inkscape:cx="909.9666"
     inkscape:cy="164.72282"
     inkscape:window-width="1904"
     inkscape:window-height="1011"
     inkscape:window-x="1520"
     inkscape:window-y="33"
     inkscape:window-maximized="0"
     inkscape:current-layer="svg236" />
  <defs
     id="defs196">
    <marker
       id="b"
       overflow="visible"
       orient="auto">
      <path
         transform="scale(-0.6)"
         d="M 8.7186,4.0337 -2.2074,0.016 8.7186,-4.0017 c -1.7455,2.3721 -1.7354,5.6175 0,8.0354 z"
         fill-rule="evenodd"
         stroke-linejoin="round"
         stroke-width="0.625"
         id="path184" />
    </marker>
    <marker
       id="d"
       overflow="visible"
       orient="auto">
      <path
         transform="matrix(-0.4,0,0,-0.4,-4,0)"
         d="M 0,0 5,-5 -12.5,0 5,5 Z"
         fill-rule="evenodd"
         stroke="#000000"
         stroke-width="1pt"
         id="path187" />
    </marker>
    <marker
       id="c"
       overflow="visible"
       orient="auto">
      <path
         transform="matrix(1.1,0,0,1.1,1.1,0)"
         d="M 8.7186,4.0337 -2.2074,0.016 8.7186,-4.0017 c -1.7455,2.3721 -1.7354,5.6175 0,8.0354 z"
         fill-rule="evenodd"
         stroke-linejoin="round"
         stroke-width="0.625"
         id="path190" />
    </marker>
    <marker
       id="a"
       overflow="visible"
       orient="auto">
      <path
         transform="scale(-0.4)"
         d="M 5.77,0 -2.88,5 V -5 Z"
         fill-rule="evenodd"
         stroke="#000000"
         stroke-width="1pt"
         id="path193" />
    </marker>
  </defs>
  <g
     transform="translate(1043.8878,3.5515706)"
     id="g234">
    <path
       transform="translate(-1057.1,-360.49)"
       d="M 800,700 Z"
       fill="#0034fe"
       fill-opacity="0.24706"
       stroke="#000000"
       stroke-linecap="square"
       stroke-linejoin="round"
       id="path198" />
    <path
       transform="translate(-1057.1,-360.49)"
       d="M 800,700 Z"
       fill="#0034fe"
       fill-opacity="0.24706"
       stroke="#000000"
       stroke-linecap="square"
       stroke-linejoin="round"
       id="path200" />
    <path
       transform="translate(-1057.1,-360.49)"
       d="m 900,700 a 100,100 0 1 1 -200,0 100,100 0 1 1 200,0 z"
       fill="#97a6eb"
       stroke="#000000"
       stroke-linecap="square"
       stroke-linejoin="round"
       id="path202" />
    <path
       transform="matrix(7.8553,0,0,1.3669,-6541.4,-617.36)"
       d="m 900,700 a 100,100 0 1 1 -200,0 100,100 0 1 1 200,0 z"
       fill="none"
       stroke="#000000"
       stroke-dasharray="3.66205, 3.66205"
       stroke-linecap="square"
       stroke-linejoin="round"
       stroke-width="0.30517"
       id="path204" />
    <path
       transform="matrix(0.99842,0,0,0.17374,-1055.9,217.89)"
       d="m 700.03,697.57 a 100,100 0 1 1 -0.0295,2.4304"
       fill="none"
       stroke="#000000"
       stroke-dasharray="2.401, 9.604"
       stroke-linecap="square"
       stroke-linejoin="round"
       stroke-width="2.401"
       id="path206" />
    <path
       transform="matrix(7.4264,2.553,-0.2512,2.2856,-6022.4,-3302.8)"
       d="m 900,700 a 100,100 0 1 1 -200,0 100,100 0 1 1 200,0 z"
       fill="none"
       stroke="#000000"
       stroke-linecap="square"
       stroke-linejoin="round"
       stroke-width="0.23826"
       id="path208" />
    <path
       transform="matrix(0.87626,0.48572,-0.15999,0.28863,-846.09,-250.99)"
       d="m 898.32,643.97 a 113.14,113.14 0 1 1 -196.61,0.69417"
       fill="none"
       marker-mid="url(#a)"
       stroke="#000000"
       stroke-linecap="square"
       stroke-linejoin="round"
       stroke-width="1.7391"
       id="path210" />
    <path
       transform="translate(-1057.1,-360.49)"
       d="m 805,742.08 a 5,5 0 1 1 -1.7e-4,-0.0415"
       fill="#ff0101"
       stroke="#000000"
       stroke-linecap="square"
       stroke-linejoin="round"
       id="path212" />
    <path
       transform="matrix(2.6413,1.4717,-0.48225,0.87455,-2032.7,-1535.5)"
       d="m 779.73,589.04 a 113.14,113.14 0 0 1 40.999,222.53"
       fill="none"
       marker-mid="url(#a)"
       marker-start="url(#c)"
       stroke="#000000"
       stroke-linecap="square"
       stroke-linejoin="round"
       stroke-width="0.57546"
       id="path214" />
    <path
       transform="matrix(0.50482,0,0,0.50482,-661.04,-131.31)"
       d="m 831.44,462.84 a 31.525,31.525 0 1 1 -0.001,-0.26148"
       fill="#a3a3a3"
       stroke="#000000"
       stroke-linecap="square"
       stroke-linejoin="round"
       stroke-width="1.9809"
       id="path216" />
    <path
       transform="matrix(-0.34967,-0.19382,-0.063842,0.11517,67.582,185.3)"
       d="M 848.36,597.93 A 113.14,113.14 0 0 1 781.354,811.86"
       fill="none"
       stroke="#000000"
       stroke-linecap="square"
       stroke-linejoin="round"
       stroke-width="4.3583"
       id="path218" />
    <path
       d="M -257.14,339.43 V 230.64"
       fill="none"
       marker-end="url(#d)"
       stroke="#000000"
       id="path220" />
    <text
       x="-128.88861"
       y="91.601028"
       fill="#000000"
       font-family="'Bitstream Vera Sans'"
       font-size="24px"
       stroke-width="1px"
       text-anchor="middle"
       xml:space="preserve"
       id="trsvg4"
       style="font-size:29.3333px">Lune à l'arrivée</text>
    <path
       transform="matrix(0.50482,0,0,0.50482,-501.95,-73.56)"
       d="m 831.44,462.84 a 31.525,31.525 0 1 1 -0.001,-0.26148"
       fill="#a3a3a3"
       stroke="#000000"
       stroke-linecap="square"
       stroke-linejoin="round"
       stroke-width="1.9809"
       id="path224" />
    <text
       x="6.9063611"
       y="149.9321"
       fill="#000000"
       font-family="'Bitstream Vera Sans'"
       font-size="24px"
       stroke-width="1px"
       text-anchor="middle"
       xml:space="preserve"
       id="trsvg5"
       style="font-size:29.3333px">Lune au TLI</text>
    <path
       transform="matrix(0.18749,0.10393,-0.034232,0.061756,-383.2,-23.887)"
       d="m 869.94,611.22 a 113.14,113.14 0 1 1 -141.86,1.9377"
       fill="none"
       stroke="#000000"
       stroke-linecap="square"
       stroke-linejoin="round"
       stroke-width="8.1281"
       id="path228" />
    <text
       x="-253.98302"
       y="501.78455"
       fill="#000000"
       font-family="'Bitstream Vera Sans'"
       font-size="24px"
       stroke-width="1px"
       text-anchor="middle"
       xml:space="preserve"
       id="trsvg6"
       style="font-size:29.3333px">Plan équatorial terrestre</text>
    <path
       d="M -257.49,339.66 19.52,212.42"
       fill="none"
       marker-end="url(#b)"
       stroke="#000000"
       stroke-width="1px"
       id="path232" />
  </g>
</svg>
