<?xml version="1.0" encoding="UTF-8"?>
<svg xmlns="http://www.w3.org/2000/svg" xmlns:xlink="http://www.w3.org/1999/xlink" width="146.553pt" height="137.092pt" viewBox="0 0 146.553 137.092">
<defs>
<g>
<g id="glyph-0-0">
<path d="M 1.75 -1.921875 L 0.28125 -1.921875 L 0.28125 -1.484375 L 1.75 -1.484375 Z M 1.75 -1.921875 "/>
</g>
<g id="glyph-0-1">
<path d="M 3.109375 -0.53125 L 0.8125 -0.53125 C 0.875 -0.90625 1.078125 -1.140625 1.609375 -1.46875 L 2.21875 -1.8125 C 2.828125 -2.15625 3.140625 -2.609375 3.140625 -3.15625 C 3.140625 -3.515625 3 -3.859375 2.734375 -4.109375 C 2.484375 -4.34375 2.15625 -4.453125 1.75 -4.453125 C 1.1875 -4.453125 0.78125 -4.25 0.546875 -3.875 C 0.390625 -3.640625 0.3125 -3.359375 0.3125 -2.90625 L 0.84375 -2.90625 C 0.875 -3.21875 0.90625 -3.390625 0.984375 -3.546875 C 1.125 -3.8125 1.40625 -3.984375 1.734375 -3.984375 C 2.21875 -3.984375 2.59375 -3.625 2.59375 -3.140625 C 2.59375 -2.78125 2.390625 -2.46875 2 -2.25 L 1.4375 -1.921875 C 0.515625 -1.390625 0.265625 -0.984375 0.203125 0 L 3.109375 0 Z M 3.109375 -0.53125 "/>
</g>
<g id="glyph-0-2">
<path d="M 1.59375 -3.171875 L 1.59375 0 L 2.140625 0 L 2.140625 -4.453125 L 1.78125 -4.453125 C 1.59375 -3.765625 1.46875 -3.671875 0.625 -3.5625 L 0.625 -3.171875 Z M 1.59375 -3.171875 "/>
</g>
<g id="glyph-0-3">
<path d="M 1.171875 -0.640625 L 0.53125 -0.640625 L 0.53125 0 L 1.171875 0 Z M 1.171875 -0.640625 "/>
</g>
<g id="glyph-0-4">
<path d="M 2.9375 -4.359375 L 0.671875 -4.359375 L 0.34375 -1.984375 L 0.84375 -1.984375 C 1.109375 -2.296875 1.3125 -2.390625 1.65625 -2.390625 C 2.234375 -2.390625 2.609375 -2 2.609375 -1.34375 C 2.609375 -0.71875 2.234375 -0.34375 1.65625 -0.34375 C 1.171875 -0.34375 0.890625 -0.578125 0.75 -1.078125 L 0.21875 -1.078125 C 0.296875 -0.71875 0.34375 -0.546875 0.484375 -0.375 C 0.71875 -0.046875 1.171875 0.140625 1.65625 0.140625 C 2.546875 0.140625 3.15625 -0.5 3.15625 -1.421875 C 3.15625 -2.28125 2.578125 -2.875 1.75 -2.875 C 1.4375 -2.875 1.1875 -2.796875 0.9375 -2.609375 L 1.109375 -3.828125 L 2.9375 -3.828125 Z M 2.9375 -4.359375 "/>
</g>
<g id="glyph-0-5">
<path d="M 1.6875 -4.453125 C 1.28125 -4.453125 0.921875 -4.265625 0.6875 -3.96875 C 0.40625 -3.578125 0.265625 -2.984375 0.265625 -2.15625 C 0.265625 -0.65625 0.75 0.140625 1.6875 0.140625 C 2.609375 0.140625 3.125 -0.65625 3.125 -2.125 C 3.125 -2.984375 2.984375 -3.5625 2.703125 -3.96875 C 2.46875 -4.265625 2.109375 -4.453125 1.6875 -4.453125 Z M 1.6875 -3.96875 C 2.28125 -3.96875 2.5625 -3.375 2.5625 -2.171875 C 2.5625 -0.90625 2.28125 -0.3125 1.6875 -0.3125 C 1.109375 -0.3125 0.8125 -0.921875 0.8125 -2.15625 C 0.8125 -3.375 1.109375 -3.96875 1.6875 -3.96875 Z M 1.6875 -3.96875 "/>
</g>
<g id="glyph-1-0">
<path d="M 2.078125 2.734375 L 0.21875 2.0625 L -0.109375 0.125 L -2.25 4.140625 Z M 2.078125 2.734375 "/>
</g>
<g id="glyph-2-0">
<path d="M 1.546875 3.046875 L -0.15625 2.0625 L -0.15625 0.09375 L -2.9375 3.671875 Z M 1.546875 3.046875 "/>
</g>
<g id="glyph-3-0">
<path d="M -2.734375 2.078125 L -2.0625 0.21875 L -0.125 -0.109375 L -4.140625 -2.25 Z M -2.734375 2.078125 "/>
</g>
<g id="glyph-4-0">
<path d="M 3.328125 -3.015625 C 3.390625 -3.265625 3.625 -4.1875 4.3125 -4.1875 C 4.359375 -4.1875 4.609375 -4.1875 4.8125 -4.0625 C 4.53125 -4 4.34375 -3.765625 4.34375 -3.515625 C 4.34375 -3.359375 4.453125 -3.171875 4.71875 -3.171875 C 4.9375 -3.171875 5.25 -3.34375 5.25 -3.75 C 5.25 -4.265625 4.671875 -4.40625 4.328125 -4.40625 C 3.75 -4.40625 3.40625 -3.875 3.28125 -3.65625 C 3.03125 -4.3125 2.5 -4.40625 2.203125 -4.40625 C 1.171875 -4.40625 0.59375 -3.125 0.59375 -2.875 C 0.59375 -2.765625 0.703125 -2.765625 0.71875 -2.765625 C 0.796875 -2.765625 0.828125 -2.796875 0.84375 -2.875 C 1.1875 -3.9375 1.84375 -4.1875 2.1875 -4.1875 C 2.375 -4.1875 2.71875 -4.09375 2.71875 -3.515625 C 2.71875 -3.203125 2.546875 -2.546875 2.1875 -1.140625 C 2.03125 -0.53125 1.671875 -0.109375 1.234375 -0.109375 C 1.171875 -0.109375 0.953125 -0.109375 0.734375 -0.234375 C 0.984375 -0.296875 1.203125 -0.5 1.203125 -0.78125 C 1.203125 -1.046875 0.984375 -1.125 0.84375 -1.125 C 0.53125 -1.125 0.296875 -0.875 0.296875 -0.546875 C 0.296875 -0.09375 0.78125 0.109375 1.21875 0.109375 C 1.890625 0.109375 2.25 -0.59375 2.265625 -0.640625 C 2.390625 -0.28125 2.75 0.109375 3.34375 0.109375 C 4.375 0.109375 4.9375 -1.171875 4.9375 -1.421875 C 4.9375 -1.53125 4.859375 -1.53125 4.828125 -1.53125 C 4.734375 -1.53125 4.71875 -1.484375 4.6875 -1.421875 C 4.359375 -0.34375 3.6875 -0.109375 3.375 -0.109375 C 2.984375 -0.109375 2.828125 -0.421875 2.828125 -0.765625 C 2.828125 -0.984375 2.875 -1.203125 2.984375 -1.640625 Z M 3.328125 -3.015625 "/>
</g>
<g id="glyph-4-1">
<path d="M 4.84375 -3.796875 C 4.890625 -3.9375 4.890625 -3.953125 4.890625 -4.03125 C 4.890625 -4.203125 4.75 -4.296875 4.59375 -4.296875 C 4.5 -4.296875 4.34375 -4.234375 4.25 -4.09375 C 4.234375 -4.03125 4.140625 -3.734375 4.109375 -3.546875 C 4.03125 -3.296875 3.96875 -3.015625 3.90625 -2.75 L 3.453125 -0.953125 C 3.421875 -0.8125 2.984375 -0.109375 2.328125 -0.109375 C 1.828125 -0.109375 1.71875 -0.546875 1.71875 -0.921875 C 1.71875 -1.375 1.890625 -2 2.21875 -2.875 C 2.375 -3.28125 2.421875 -3.390625 2.421875 -3.59375 C 2.421875 -4.03125 2.109375 -4.40625 1.609375 -4.40625 C 0.65625 -4.40625 0.296875 -2.953125 0.296875 -2.875 C 0.296875 -2.765625 0.390625 -2.765625 0.40625 -2.765625 C 0.515625 -2.765625 0.515625 -2.796875 0.5625 -2.953125 C 0.84375 -3.890625 1.234375 -4.1875 1.578125 -4.1875 C 1.65625 -4.1875 1.828125 -4.1875 1.828125 -3.875 C 1.828125 -3.625 1.71875 -3.359375 1.65625 -3.171875 C 1.25 -2.109375 1.078125 -1.546875 1.078125 -1.078125 C 1.078125 -0.1875 1.703125 0.109375 2.296875 0.109375 C 2.6875 0.109375 3.015625 -0.0625 3.296875 -0.34375 C 3.171875 0.171875 3.046875 0.671875 2.65625 1.203125 C 2.390625 1.53125 2.015625 1.828125 1.5625 1.828125 C 1.421875 1.828125 0.96875 1.796875 0.796875 1.40625 C 0.953125 1.40625 1.09375 1.40625 1.21875 1.28125 C 1.328125 1.203125 1.421875 1.0625 1.421875 0.875 C 1.421875 0.5625 1.15625 0.53125 1.0625 0.53125 C 0.828125 0.53125 0.5 0.6875 0.5 1.171875 C 0.5 1.671875 0.9375 2.046875 1.5625 2.046875 C 2.578125 2.046875 3.609375 1.140625 3.890625 0.015625 Z M 4.84375 -3.796875 "/>
</g>
<g id="glyph-4-2">
<path d="M 4.5 -4.296875 C 4.5 -4.34375 4.46875 -4.390625 4.40625 -4.390625 C 4.296875 -4.390625 3.890625 -4 3.734375 -3.703125 C 3.515625 -4.25 3.125 -4.40625 2.796875 -4.40625 C 1.625 -4.40625 0.40625 -2.9375 0.40625 -1.484375 C 0.40625 -0.515625 0.984375 0.109375 1.71875 0.109375 C 2.140625 0.109375 2.53125 -0.125 2.890625 -0.484375 C 2.796875 -0.140625 2.46875 1.203125 2.4375 1.296875 C 2.359375 1.578125 2.28125 1.609375 1.71875 1.625 C 1.59375 1.625 1.5 1.625 1.5 1.828125 C 1.5 1.828125 1.5 1.9375 1.625 1.9375 C 1.9375 1.9375 2.296875 1.90625 2.625 1.90625 C 2.953125 1.90625 3.3125 1.9375 3.65625 1.9375 C 3.703125 1.9375 3.828125 1.9375 3.828125 1.734375 C 3.828125 1.625 3.734375 1.625 3.5625 1.625 C 3.09375 1.625 3.09375 1.5625 3.09375 1.46875 C 3.09375 1.390625 3.109375 1.328125 3.125 1.25 Z M 1.75 -0.109375 C 1.140625 -0.109375 1.109375 -0.875 1.109375 -1.046875 C 1.109375 -1.53125 1.390625 -2.609375 1.5625 -3.03125 C 1.875 -3.765625 2.390625 -4.1875 2.796875 -4.1875 C 3.453125 -4.1875 3.59375 -3.375 3.59375 -3.3125 C 3.59375 -3.25 3.046875 -1.0625 3.015625 -1.03125 C 2.859375 -0.75 2.296875 -0.109375 1.75 -0.109375 Z M 1.75 -0.109375 "/>
</g>
<g id="glyph-5-0">
<path d="M 3.59375 -2.21875 C 3.59375 -2.984375 3.5 -3.546875 3.1875 -4.03125 C 2.96875 -4.34375 2.53125 -4.625 1.984375 -4.625 C 0.359375 -4.625 0.359375 -2.71875 0.359375 -2.21875 C 0.359375 -1.71875 0.359375 0.140625 1.984375 0.140625 C 3.59375 0.140625 3.59375 -1.71875 3.59375 -2.21875 Z M 1.984375 -0.0625 C 1.65625 -0.0625 1.234375 -0.25 1.09375 -0.8125 C 1 -1.21875 1 -1.796875 1 -2.3125 C 1 -2.828125 1 -3.359375 1.09375 -3.734375 C 1.25 -4.28125 1.6875 -4.4375 1.984375 -4.4375 C 2.359375 -4.4375 2.71875 -4.203125 2.84375 -3.796875 C 2.953125 -3.421875 2.96875 -2.921875 2.96875 -2.3125 C 2.96875 -1.796875 2.96875 -1.28125 2.875 -0.84375 C 2.734375 -0.203125 2.265625 -0.0625 1.984375 -0.0625 Z M 1.984375 -0.0625 "/>
</g>
<g id="glyph-6-0">
<path d="M 1.171875 -2.171875 C 1.171875 -3.796875 1.984375 -4.21875 2.515625 -4.21875 C 2.609375 -4.21875 3.234375 -4.203125 3.578125 -3.84375 C 3.171875 -3.8125 3.109375 -3.515625 3.109375 -3.390625 C 3.109375 -3.125 3.296875 -2.9375 3.5625 -2.9375 C 3.828125 -2.9375 4.03125 -3.09375 4.03125 -3.40625 C 4.03125 -4.078125 3.265625 -4.46875 2.5 -4.46875 C 1.25 -4.46875 0.34375 -3.390625 0.34375 -2.15625 C 0.34375 -0.875 1.328125 0.109375 2.484375 0.109375 C 3.8125 0.109375 4.140625 -1.09375 4.140625 -1.1875 C 4.140625 -1.28125 4.03125 -1.28125 4 -1.28125 C 3.921875 -1.28125 3.890625 -1.25 3.875 -1.1875 C 3.59375 -0.265625 2.9375 -0.140625 2.578125 -0.140625 C 2.046875 -0.140625 1.171875 -0.5625 1.171875 -2.171875 Z M 1.171875 -2.171875 "/>
</g>
<g id="glyph-6-1">
<path d="M 3.890625 -0.78125 L 3.890625 0.109375 L 5.328125 0 L 5.328125 -0.3125 C 4.640625 -0.3125 4.5625 -0.375 4.5625 -0.875 L 4.5625 -4.40625 L 3.09375 -4.296875 L 3.09375 -3.984375 C 3.78125 -3.984375 3.875 -3.921875 3.875 -3.421875 L 3.875 -1.65625 C 3.875 -0.78125 3.390625 -0.109375 2.65625 -0.109375 C 1.828125 -0.109375 1.78125 -0.578125 1.78125 -1.09375 L 1.78125 -4.40625 L 0.3125 -4.296875 L 0.3125 -3.984375 C 1.09375 -3.984375 1.09375 -3.953125 1.09375 -3.078125 L 1.09375 -1.578125 C 1.09375 -0.796875 1.09375 0.109375 2.609375 0.109375 C 3.171875 0.109375 3.609375 -0.171875 3.890625 -0.78125 Z M 3.890625 -0.78125 "/>
</g>
<g id="glyph-6-2">
<path d="M 2.078125 -1.9375 C 2.296875 -1.890625 3.109375 -1.734375 3.109375 -1.015625 C 3.109375 -0.515625 2.765625 -0.109375 1.984375 -0.109375 C 1.140625 -0.109375 0.78125 -0.671875 0.59375 -1.53125 C 0.5625 -1.65625 0.5625 -1.6875 0.453125 -1.6875 C 0.328125 -1.6875 0.328125 -1.625 0.328125 -1.453125 L 0.328125 -0.125 C 0.328125 0.046875 0.328125 0.109375 0.4375 0.109375 C 0.484375 0.109375 0.5 0.09375 0.6875 -0.09375 C 0.703125 -0.109375 0.703125 -0.125 0.890625 -0.3125 C 1.328125 0.09375 1.78125 0.109375 1.984375 0.109375 C 3.125 0.109375 3.59375 -0.5625 3.59375 -1.28125 C 3.59375 -1.796875 3.296875 -2.109375 3.171875 -2.21875 C 2.84375 -2.546875 2.453125 -2.625 2.03125 -2.703125 C 1.46875 -2.8125 0.8125 -2.9375 0.8125 -3.515625 C 0.8125 -3.875 1.0625 -4.28125 1.921875 -4.28125 C 3.015625 -4.28125 3.078125 -3.375 3.09375 -3.078125 C 3.09375 -2.984375 3.1875 -2.984375 3.203125 -2.984375 C 3.34375 -2.984375 3.34375 -3.03125 3.34375 -3.21875 L 3.34375 -4.234375 C 3.34375 -4.390625 3.34375 -4.46875 3.234375 -4.46875 C 3.1875 -4.46875 3.15625 -4.46875 3.03125 -4.34375 C 3 -4.3125 2.90625 -4.21875 2.859375 -4.1875 C 2.484375 -4.46875 2.078125 -4.46875 1.921875 -4.46875 C 0.703125 -4.46875 0.328125 -3.796875 0.328125 -3.234375 C 0.328125 -2.890625 0.484375 -2.609375 0.75 -2.390625 C 1.078125 -2.140625 1.359375 -2.078125 2.078125 -1.9375 Z M 2.078125 -1.9375 "/>
</g>
<g id="glyph-6-3">
<path d="M 1.71875 -3.75 L 1.71875 -4.40625 L 0.28125 -4.296875 L 0.28125 -3.984375 C 0.984375 -3.984375 1.0625 -3.921875 1.0625 -3.484375 L 1.0625 1.171875 C 1.0625 1.625 0.953125 1.625 0.28125 1.625 L 0.28125 1.9375 C 0.625 1.921875 1.140625 1.90625 1.390625 1.90625 C 1.671875 1.90625 2.171875 1.921875 2.515625 1.9375 L 2.515625 1.625 C 1.859375 1.625 1.75 1.625 1.75 1.171875 L 1.75 -0.59375 C 1.796875 -0.421875 2.21875 0.109375 2.96875 0.109375 C 4.15625 0.109375 5.1875 -0.875 5.1875 -2.15625 C 5.1875 -3.421875 4.234375 -4.40625 3.109375 -4.40625 C 2.328125 -4.40625 1.90625 -3.96875 1.71875 -3.75 Z M 1.75 -1.140625 L 1.75 -3.359375 C 2.03125 -3.875 2.515625 -4.15625 3.03125 -4.15625 C 3.765625 -4.15625 4.359375 -3.28125 4.359375 -2.15625 C 4.359375 -0.953125 3.671875 -0.109375 2.9375 -0.109375 C 2.53125 -0.109375 2.15625 -0.3125 1.890625 -0.71875 C 1.75 -0.921875 1.75 -0.9375 1.75 -1.140625 Z M 1.75 -1.140625 "/>
</g>
</g>
<clipPath id="clip-0">
<path clip-rule="nonzero" d="M 16.417969 5.667969 L 136.71875 5.667969 L 136.71875 120.09375 L 16.417969 120.09375 Z M 16.417969 5.667969 "/>
</clipPath>
<clipPath id="clip-1">
<path clip-rule="nonzero" d="M 30 6 L 136.71875 6 L 136.71875 113 L 30 113 Z M 30 6 "/>
</clipPath>
<clipPath id="clip-2">
<path clip-rule="nonzero" d="M 29 112 L 136.71875 112 L 136.71875 113 L 29 113 Z M 29 112 "/>
</clipPath>
<clipPath id="clip-3">
<path clip-rule="nonzero" d="M 48 115 L 59 115 L 59 120.09375 L 48 120.09375 Z M 48 115 "/>
</clipPath>
<clipPath id="clip-4">
<path clip-rule="nonzero" d="M 96 115 L 107 115 L 107 120.09375 L 96 120.09375 Z M 96 115 "/>
</clipPath>
<clipPath id="clip-5">
<path clip-rule="nonzero" d="M 125 115 L 128 115 L 128 120.09375 L 125 120.09375 Z M 125 115 "/>
</clipPath>
<clipPath id="clip-6">
<path clip-rule="nonzero" d="M 16.417969 110 L 27 110 L 27 115 L 16.417969 115 Z M 16.417969 110 "/>
</clipPath>
<clipPath id="clip-7">
<path clip-rule="nonzero" d="M 16.417969 63 L 27 63 L 27 69 L 16.417969 69 Z M 16.417969 63 "/>
</clipPath>
<clipPath id="clip-8">
<path clip-rule="nonzero" d="M 16.417969 17 L 27 17 L 27 23 L 16.417969 23 Z M 16.417969 17 "/>
</clipPath>
<clipPath id="clip-9">
<path clip-rule="nonzero" d="M 42 5.667969 L 128 5.667969 L 128 90 L 42 90 Z M 42 5.667969 "/>
</clipPath>
</defs>
<g clip-path="url(#clip-0)">
<path fill-rule="nonzero" fill="rgb(100%, 100%, 100%)" fill-opacity="1" d="M -47.089844 126.808594 L 204.703125 126.808594 L 204.703125 -3.703125 L -47.089844 -3.703125 Z M -47.089844 126.808594 "/>
<path fill-rule="nonzero" fill="rgb(100%, 100%, 100%)" fill-opacity="1" d="M -47.089844 126.808594 L 204.703125 126.808594 L 204.703125 -3.703125 L -47.089844 -3.703125 Z M -47.089844 126.808594 "/>
</g>
<g clip-path="url(#clip-1)">
<path fill-rule="nonzero" fill="rgb(100%, 100%, 100%)" fill-opacity="1" d="M 30.023438 112.542969 L 136.40625 112.542969 L 136.40625 6.160156 L 30.023438 6.160156 Z M 30.023438 112.542969 "/>
</g>
<g clip-path="url(#clip-2)">
<path fill="none" stroke-width="5.0025" stroke-linecap="square" stroke-linejoin="round" stroke="rgb(14.892578%, 14.892578%, 14.892578%)" stroke-opacity="1" stroke-miterlimit="10" d="M 486.307949 269.937136 L 4288.8176 269.937136 " transform="matrix(0.027977, 0, 0, -0.027977, 16.418, 120.095)"/>
</g>
<path fill="none" stroke-width="5.0025" stroke-linecap="square" stroke-linejoin="round" stroke="rgb(14.892578%, 14.892578%, 14.892578%)" stroke-opacity="1" stroke-miterlimit="10" d="M 486.307949 269.937136 L 486.307949 308.054384 " transform="matrix(0.027977, 0, 0, -0.027977, 16.418, 120.095)"/>
<path fill="none" stroke-width="5.0025" stroke-linecap="square" stroke-linejoin="round" stroke="rgb(14.892578%, 14.892578%, 14.892578%)" stroke-opacity="1" stroke-miterlimit="10" d="M 1350.43853 269.937136 L 1350.43853 308.054384 " transform="matrix(0.027977, 0, 0, -0.027977, 16.418, 120.095)"/>
<path fill="none" stroke-width="5.0025" stroke-linecap="square" stroke-linejoin="round" stroke="rgb(14.892578%, 14.892578%, 14.892578%)" stroke-opacity="1" stroke-miterlimit="10" d="M 2214.708734 269.937136 L 2214.708734 308.054384 " transform="matrix(0.027977, 0, 0, -0.027977, 16.418, 120.095)"/>
<path fill="none" stroke-width="5.0025" stroke-linecap="square" stroke-linejoin="round" stroke="rgb(14.892578%, 14.892578%, 14.892578%)" stroke-opacity="1" stroke-miterlimit="10" d="M 3078.839314 269.937136 L 3078.839314 308.054384 " transform="matrix(0.027977, 0, 0, -0.027977, 16.418, 120.095)"/>
<path fill="none" stroke-width="5.0025" stroke-linecap="square" stroke-linejoin="round" stroke="rgb(14.892578%, 14.892578%, 14.892578%)" stroke-opacity="1" stroke-miterlimit="10" d="M 3943.109519 269.937136 L 3943.109519 308.054384 " transform="matrix(0.027977, 0, 0, -0.027977, 16.418, 120.095)"/>
<g fill="rgb(14.892578%, 14.892578%, 14.892578%)" fill-opacity="1">
<use xlink:href="#glyph-0-0" x="26.979317" y="119.997081"/>
<use xlink:href="#glyph-0-1" x="29.028885" y="119.997081"/>
</g>
<g clip-path="url(#clip-3)">
<g fill="rgb(14.892578%, 14.892578%, 14.892578%)" fill-opacity="1">
<use xlink:href="#glyph-0-0" x="48.21948" y="119.997081"/>
<use xlink:href="#glyph-0-2" x="50.269047" y="119.997081"/>
<use xlink:href="#glyph-0-3" x="53.691147" y="119.997081"/>
<use xlink:href="#glyph-0-4" x="55.402197" y="119.997081"/>
</g>
</g>
<g fill="rgb(14.892578%, 14.892578%, 14.892578%)" fill-opacity="1">
<use xlink:href="#glyph-0-0" x="75.334944" y="119.997081"/>
<use xlink:href="#glyph-0-2" x="77.384511" y="119.997081"/>
</g>
<g clip-path="url(#clip-4)">
<g fill="rgb(14.892578%, 14.892578%, 14.892578%)" fill-opacity="1">
<use xlink:href="#glyph-0-0" x="96.575106" y="119.997081"/>
<use xlink:href="#glyph-0-5" x="98.624673" y="119.997081"/>
<use xlink:href="#glyph-0-3" x="102.046773" y="119.997081"/>
<use xlink:href="#glyph-0-4" x="103.757823" y="119.997081"/>
</g>
</g>
<g clip-path="url(#clip-5)">
<g fill="rgb(14.892578%, 14.892578%, 14.892578%)" fill-opacity="1">
<use xlink:href="#glyph-0-5" x="124.739666" y="119.997081"/>
</g>
</g>
<path fill="none" stroke-width="5.0025" stroke-linecap="square" stroke-linejoin="round" stroke="rgb(14.892578%, 14.892578%, 14.892578%)" stroke-opacity="1" stroke-miterlimit="10" d="M 486.307949 269.937136 L 486.307949 4072.446787 " transform="matrix(0.027977, 0, 0, -0.027977, 16.418, 120.095)"/>
<path fill="none" stroke-width="5.0025" stroke-linecap="square" stroke-linejoin="round" stroke="rgb(14.892578%, 14.892578%, 14.892578%)" stroke-opacity="1" stroke-miterlimit="10" d="M 486.307949 269.937136 L 524.285574 269.937136 " transform="matrix(0.027977, 0, 0, -0.027977, 16.418, 120.095)"/>
<path fill="none" stroke-width="5.0025" stroke-linecap="square" stroke-linejoin="round" stroke="rgb(14.892578%, 14.892578%, 14.892578%)" stroke-opacity="1" stroke-miterlimit="10" d="M 486.307949 1096.648586 L 524.285574 1096.648586 " transform="matrix(0.027977, 0, 0, -0.027977, 16.418, 120.095)"/>
<path fill="none" stroke-width="5.0025" stroke-linecap="square" stroke-linejoin="round" stroke="rgb(14.892578%, 14.892578%, 14.892578%)" stroke-opacity="1" stroke-miterlimit="10" d="M 486.307949 1923.220413 L 524.285574 1923.220413 " transform="matrix(0.027977, 0, 0, -0.027977, 16.418, 120.095)"/>
<path fill="none" stroke-width="5.0025" stroke-linecap="square" stroke-linejoin="round" stroke="rgb(14.892578%, 14.892578%, 14.892578%)" stroke-opacity="1" stroke-miterlimit="10" d="M 486.307949 2749.931864 L 524.285574 2749.931864 " transform="matrix(0.027977, 0, 0, -0.027977, 16.418, 120.095)"/>
<path fill="none" stroke-width="5.0025" stroke-linecap="square" stroke-linejoin="round" stroke="rgb(14.892578%, 14.892578%, 14.892578%)" stroke-opacity="1" stroke-miterlimit="10" d="M 486.307949 3576.503691 L 524.285574 3576.503691 " transform="matrix(0.027977, 0, 0, -0.027977, 16.418, 120.095)"/>
<g clip-path="url(#clip-6)">
<g fill="rgb(14.892578%, 14.892578%, 14.892578%)" fill-opacity="1">
<use xlink:href="#glyph-0-0" x="16.271121" y="114.639485"/>
<use xlink:href="#glyph-0-1" x="18.320688" y="114.639485"/>
<use xlink:href="#glyph-0-3" x="21.742788" y="114.639485"/>
<use xlink:href="#glyph-0-4" x="23.453838" y="114.639485"/>
</g>
</g>
<g fill="rgb(14.892578%, 14.892578%, 14.892578%)" fill-opacity="1">
<use xlink:href="#glyph-0-0" x="22.146291" y="91.512885"/>
<use xlink:href="#glyph-0-1" x="24.195858" y="91.512885"/>
</g>
<g clip-path="url(#clip-7)">
<g fill="rgb(14.892578%, 14.892578%, 14.892578%)" fill-opacity="1">
<use xlink:href="#glyph-0-0" x="16.271121" y="68.386174"/>
<use xlink:href="#glyph-0-2" x="18.320688" y="68.386174"/>
<use xlink:href="#glyph-0-3" x="21.742788" y="68.386174"/>
<use xlink:href="#glyph-0-4" x="23.453838" y="68.386174"/>
</g>
</g>
<g fill="rgb(14.892578%, 14.892578%, 14.892578%)" fill-opacity="1">
<use xlink:href="#glyph-0-0" x="22.146291" y="45.259574"/>
<use xlink:href="#glyph-0-2" x="24.195858" y="45.259574"/>
</g>
<g clip-path="url(#clip-8)">
<g fill="rgb(14.892578%, 14.892578%, 14.892578%)" fill-opacity="1">
<use xlink:href="#glyph-0-0" x="16.271121" y="22.132863"/>
<use xlink:href="#glyph-0-5" x="18.320688" y="22.132863"/>
<use xlink:href="#glyph-0-3" x="21.742788" y="22.132863"/>
<use xlink:href="#glyph-0-4" x="23.453838" y="22.132863"/>
</g>
</g>
<path fill="none" stroke-width="20.0025" stroke-linecap="butt" stroke-linejoin="round" stroke="rgb(10.205078%, 59.959412%, 10.205078%)" stroke-opacity="1" stroke-miterlimit="10" d="M 3943.109519 1096.648586 L 3840.346535 1154.033894 L 3740.65527 1211.000331 L 3644.035726 1267.68752 L 3550.348277 1323.955839 L 3459.732548 1379.805286 L 3372.328162 1435.235863 L 3287.716249 1490.247569 L 3206.315679 1544.700781 L 3127.847205 1598.595498 L 3052.45045 1652.071344 L 2980.125416 1704.849072 L 2910.732477 1757.068306 L 2844.550881 1808.729045 L 2781.301381 1859.552043 L 2720.983978 1909.676922 L 2663.877918 1958.96406 L 2609.56433 2007.553079 L 2558.322461 2055.164734 L 2510.012689 2101.938646 L 2464.774636 2147.59557 L 2422.329056 2192.275128 L 2382.815572 2235.837697 L 2346.09456 2278.283277 L 2312.305644 2319.332621 L 2281.3092 2359.125353 L 2252.825982 2397.521848 L 2227.135236 2434.382484 L 2204.097339 2469.70726 L 2183.433043 2503.216928 L 2165.281973 2535.051113 L 2149.36488 2565.070192 L 2135.681765 2593.134539 L 2124.093005 2619.244156 L 2114.458975 2643.119795 L 2106.640053 2664.761456 L 2100.496613 2684.169139 L 2095.74941 2701.203221 L 2092.398443 2715.724077 L 2090.024842 2727.731708 L 2088.628606 2737.226114 L 2087.790864 2744.067672 L 2087.511617 2748.25638 L 2087.511617 2749.931864 L 2087.511617 2748.814875 L 2087.232369 2745.045037 L 2086.534251 2738.622351 L 2085.277639 2729.546815 L 2083.043661 2717.958055 L 2079.832318 2703.856069 L 2075.364362 2687.240859 L 2069.50017 2668.252046 L 2061.960494 2646.889633 L 2052.605712 2623.432864 L 2041.435822 2597.742119 L 2028.031955 2569.957018 L 2012.533733 2540.356811 L 1994.801533 2508.801873 L 1974.556109 2475.431828 L 1951.937082 2440.525923 L 1926.665207 2403.804911 L 1898.740483 2365.687663 L 1868.162911 2326.174179 L 1834.792866 2285.264458 L 1798.630348 2243.098125 L 1759.535735 2199.814803 L 1717.648649 2155.274869 L 1672.829467 2109.757569 L 1625.078189 2063.262903 L 1574.255192 2015.651249 L 1520.639722 1967.341477 L 1463.812909 1918.054339 L 1404.193623 1868.069084 L 1341.362995 1817.38571 L 1275.60027 1765.864594 L 1206.905449 1713.784984 L 1134.999285 1661.007256 L 1060.161025 1607.810657 L 982.251046 1553.91594 L 901.269346 1499.462728 L 817.215927 1444.590646 L 730.230412 1389.299693 L 640.173178 1333.450245 L 547.044224 1277.32155 L 485.749455 1241.159032 " transform="matrix(0.027977, 0, 0, -0.027977, 16.418, 120.095)"/>
<path fill="none" stroke-width="20.0025" stroke-linecap="butt" stroke-linejoin="round" stroke="rgb(10.205078%, 59.959412%, 10.205078%)" stroke-opacity="1" stroke-miterlimit="10" d="M 3943.109519 1096.648586 L 3837.274815 1038.844408 L 3728.508016 980.900606 L 3616.80912 922.537933 L 3502.038505 863.896013 L 3384.19617 804.974845 L 3263.421739 745.774431 L 3139.575589 686.434393 L 3012.797342 626.815107 L 2883.087 566.916574 L 2750.304938 506.878418 L 2614.451156 446.561014 L 2475.804902 386.103987 L 2334.086929 325.367713 L 2201.165243 269.518265 " transform="matrix(0.027977, 0, 0, -0.027977, 16.418, 120.095)"/>
<path fill-rule="nonzero" fill="rgb(0%, 0%, 0%)" fill-opacity="1" stroke-width="7.5" stroke-linecap="butt" stroke-linejoin="miter" stroke="rgb(0%, 0%, 0%)" stroke-opacity="1" stroke-miterlimit="10" d="M 3964.332309 1100.418424 C 3964.332309 1114.241162 3953.162419 1125.411052 3939.339681 1125.411052 C 3925.516942 1125.411052 3914.347053 1114.241162 3914.347053 1100.418424 C 3914.347053 1086.595686 3925.516942 1075.425796 3939.339681 1075.425796 C 3953.162419 1075.425796 3964.332309 1086.595686 3964.332309 1100.418424 " transform="matrix(0.027977, 0, 0, -0.027977, 16.418, 120.095)"/>
<path fill="none" stroke-width="20.0025" stroke-linecap="butt" stroke-linejoin="round" stroke="rgb(80.076599%, 10.205078%, 10.205078%)" stroke-opacity="1" stroke-miterlimit="10" d="M 3943.109519 1096.648586 L 3835.459708 1156.547119 L 3730.741993 1216.306028 L 3629.095998 1275.78569 L 3530.3821 1334.986105 L 3434.73992 1393.907272 L 3342.169461 1452.549192 L 3252.531097 1511.051489 L 3165.824829 1569.134914 L 3082.190281 1626.939093 L 3001.627453 1684.464024 L 2924.136344 1741.570084 L 2849.577331 1798.396897 L 2778.090038 1854.665216 L 2709.674465 1910.654287 L 2644.190987 1966.224488 L 2581.779229 2021.375818 L 2522.439191 2075.968653 L 2466.170873 2130.002994 L 2412.974274 2183.618463 L 2362.709771 2236.535815 L 2315.516987 2288.894672 L 2271.395923 2340.695035 L 2230.206956 2391.657656 L 2192.089708 2442.061783 L 2157.044179 2491.628168 L 2124.930747 2540.356811 L 2095.889034 2588.247712 L 2069.779417 2635.161249 L 2046.601896 2681.237043 L 2026.356471 2726.195848 L 2008.903519 2770.037665 L 1994.522286 2812.762492 L 1982.793902 2854.230707 L 1973.997614 2894.302686 L 1967.854175 2933.118052 L 1964.363584 2970.257935 L 1963.525843 3006.001582 L 1965.201326 3040.069745 L 1969.250411 3072.462424 L 1975.673098 3102.900374 L 1984.469386 3131.523215 L 1995.220404 3158.051703 L 2008.065777 3182.485837 L 2022.586634 3204.825616 L 2038.922597 3224.791793 L 2056.79442 3242.384369 L 2075.922856 3257.603344 L 2096.307905 3270.309093 L 2117.530695 3280.501617 L 2139.591227 3288.041293 L 2162.070629 3292.92812 L 2184.968903 3295.162097 L 2207.867177 3294.88285 L 2230.625827 3291.811131 L 2253.105229 3286.086562 L 2274.886514 3277.709145 L 2295.830057 3266.678879 L 2315.935858 3253.275012 L 2334.645423 3237.357919 L 2352.098375 3218.927601 L 2367.875844 3198.263306 L 2381.97783 3175.365032 L 2394.125085 3150.23278 L 2404.317609 3123.006175 L 2412.415779 3093.824838 L 2418.140347 3062.828395 L 2421.491314 3029.877221 L 2422.46868 2995.390187 L 2420.793196 2959.227669 L 2416.464864 2921.389668 L 2409.483683 2882.295055 L 2399.849653 2841.664582 L 2387.283528 2799.917119 L 2371.924929 2756.773421 L 2353.773859 2712.652357 L 2332.551069 2667.274681 L 2308.535806 2621.059263 L 2281.448824 2573.86648 L 2251.569369 2525.696331 L 2218.478572 2476.688441 L 2182.455678 2426.842808 L 2143.500688 2376.299058 L 2101.473979 2325.05719 L 2056.37555 2273.117203 L 2008.205401 2220.479099 L 1957.103156 2167.2825 L 1902.929192 2113.66703 L 1845.683508 2059.353442 L 1785.505728 2004.620983 L 1722.116605 1949.469654 L 1655.795385 1893.75983 L 1586.402447 1837.631135 L 1513.937788 1781.083569 L 1438.541034 1724.256756 L 1360.07256 1667.011072 L 1278.532366 1609.48614 L 1194.060076 1551.542338 L 1106.516067 1493.319289 L 1015.900338 1434.816993 L 922.352513 1376.035449 L 825.872592 1316.974658 L 726.181328 1257.63462 L 623.697591 1198.154958 L 518.142135 1138.396049 L 485.749455 1120.524225 " transform="matrix(0.027977, 0, 0, -0.027977, 16.418, 120.095)"/>
<path fill="none" stroke-width="20.0025" stroke-linecap="butt" stroke-linejoin="round" stroke="rgb(80.076599%, 10.205078%, 10.205078%)" stroke-opacity="1" stroke-miterlimit="10" d="M 3943.109519 1096.648586 L 3830.712505 1158.50185 L 3721.387211 1220.21549 L 3614.994013 1281.789506 L 3511.672535 1343.363522 L 3411.143529 1404.658291 L 3313.686242 1465.813436 L 3219.021428 1526.689334 L 3127.567958 1587.565232 L 3038.906959 1648.161883 L 2953.317681 1708.61891 L 2870.660498 1768.79669 L 2791.075035 1828.834846 L 2714.282044 1888.733379 L 2640.700397 1948.352665 L 2570.050845 2007.692703 L 2502.33339 2066.753494 L 2437.687654 2125.674661 L 2375.974014 2184.176958 L 2317.332094 2242.539631 L 2261.761894 2300.483433 L 2209.123789 2358.147988 L 2159.557404 2415.533295 L 2112.923115 2472.499732 L 2069.50017 2529.047298 L 2029.00932 2585.175993 L 1991.450567 2641.025441 L 1957.103156 2696.316394 L 1925.687842 2751.188476 L 1897.344247 2805.641688 L 1872.072372 2859.536405 L 1849.872216 2912.733004 L 1830.604157 2965.510732 L 1814.407817 3017.590342 L 1801.283197 3068.971834 L 1791.230296 3119.794831 L 1784.109492 3169.780087 L 1779.920783 3218.927601 L 1778.943418 3267.376997 L 1780.758525 3314.849028 L 1785.645352 3361.343693 L 1793.324651 3406.860993 L 1804.075669 3451.400928 L 1817.758784 3494.68425 L 1834.094747 3536.850583 L 1853.362807 3577.760303 L 1875.423339 3617.273787 L 1900.136719 3655.391035 L 1927.363325 3691.972424 L 1957.382403 3726.878329 L 1989.775083 3760.248374 L 2024.541364 3791.663688 L 2061.681247 3821.403519 L 2101.055108 3849.048996 L 2142.383699 3874.739742 L 2185.667021 3898.19651 L 2230.76545 3919.4193 L 2277.399739 3938.408112 L 2325.430264 3955.023323 L 2374.857025 3969.125308 L 2425.261152 3980.714069 L 2476.642644 3989.64998 L 2528.443007 3996.072667 L 2580.801864 3999.702881 L 2633.439969 4000.81987 L 2685.938449 3999.28401 L 2738.157683 3994.955678 L 2789.958046 3988.114121 L 2841.199914 3978.619714 L 2891.324794 3966.47246 L 2940.472308 3951.951603 L 2988.363209 3934.917522 L 3034.718251 3915.370215 L 3079.397809 3893.728554 L 3122.401884 3869.852915 L 3163.311604 3843.743298 L 3202.266594 3815.678951 L 3238.847982 3785.659872 L 3273.195393 3753.825687 L 3305.169201 3720.176395 L 3334.629785 3684.851619 L 3361.43752 3647.990984 L 3385.592406 3609.594488 L 3407.094444 3569.801757 L 3425.804009 3528.612789 L 3441.581478 3486.306832 L 3454.706098 3442.60464 L 3464.758998 3397.925081 L 3472.019427 3352.268158 L 3476.208135 3305.494245 L 3477.604371 3257.882591 L 3475.928888 3209.293572 L 3471.181685 3160.006434 L 3463.502386 3109.741931 L 3452.751367 3058.918933 L 3439.068252 3007.397818 L 3422.173795 2955.178584 L 3402.347241 2902.261232 L 3379.588591 2848.92501 L 3353.618597 2794.890669 L 3324.716508 2740.437458 L 3292.742699 2685.425752 L 3257.697171 2629.995175 L 3219.719546 2574.145727 L 3178.530579 2517.877408 L 3134.409515 2461.190219 L 3087.356355 2404.223782 L 3037.091852 2346.838474 L 2983.895253 2289.034296 L 2927.766558 2230.95087 L 2868.42652 2172.727821 L 2806.154386 2114.085901 L 2740.950155 2055.164734 L 2672.674206 1995.964319 L 2601.46616 1936.624281 L 2527.186394 1876.865372 L 2449.974533 1817.106462 L 2369.690951 1756.928682 L 2286.475274 1696.750903 L 2200.187878 1636.154252 L 2111.108008 1575.557601 L 2018.816796 1514.681703 L 1923.733111 1453.666181 L 1825.577707 1392.511036 L 1724.62983 1331.216267 L 1620.610233 1269.642251 L 1513.658541 1208.068235 L 1403.635129 1146.354595 L 1290.819244 1084.361708 L 1174.93164 1022.368821 L 1056.251564 960.23631 L 934.499768 897.964176 L 809.955499 835.552418 L 682.339511 773.14066 L 551.791427 710.589279 L 485.749455 679.453212 " transform="matrix(0.027977, 0, 0, -0.027977, 16.418, 120.095)"/>
<g clip-path="url(#clip-9)">
<path fill="none" stroke-width="20.0025" stroke-linecap="butt" stroke-linejoin="round" stroke="rgb(80.076599%, 10.205078%, 10.205078%)" stroke-opacity="1" stroke-miterlimit="10" d="M 3943.109519 1096.648586 L 3814.097294 1162.550935 L 3687.877542 1228.592907 L 3564.589886 1294.495255 L 3443.955079 1360.397603 L 3326.252368 1426.299952 L 3211.342129 1492.2023 L 3099.224363 1558.244272 L 2989.899069 1624.14662 L 2883.505871 1690.048969 L 2779.765522 1755.951317 L 2678.957268 1821.853666 L 2580.941488 1887.756014 L 2485.718179 1953.658362 L 2393.287343 2019.421087 L 2303.788603 2085.323435 L 2216.942712 2151.225784 L 2133.028917 2217.128132 L 2051.907594 2282.890857 L 1973.578743 2348.793205 L 1898.181989 2414.695553 L 1825.438083 2480.458278 L 1755.626273 2546.360627 L 1688.606936 2612.123351 L 1624.380071 2677.886076 L 1563.085302 2743.788424 L 1504.443382 2809.551149 L 1448.733558 2875.313874 L 1395.816206 2941.076599 L 1345.691327 3006.839323 L 1298.35892 3072.602048 L 1253.958609 3138.364773 L 1212.35077 3204.127498 L 1173.535404 3269.890222 L 1137.51251 3335.652947 L 1104.282089 3401.415672 L 1073.983763 3467.038773 L 1046.47791 3532.801498 L 1021.76453 3598.564222 L 999.843622 3664.187324 L 980.854809 3729.810425 L 964.658469 3795.573149 L 951.254602 3861.19625 L 940.643207 3926.819352 L 932.824284 3992.442453 L 927.937458 4058.065554 L 927.518587 4073.005281 " transform="matrix(0.027977, 0, 0, -0.027977, 16.418, 120.095)"/>
</g>
<path fill="none" stroke-width="24.9975" stroke-linecap="butt" stroke-linejoin="round" stroke="rgb(10.205078%, 59.959412%, 10.205078%)" stroke-opacity="1" stroke-miterlimit="10" d="M 3943.109519 1096.648586 L 3840.346535 1154.033894 L 3740.65527 1211.000331 L 3644.035726 1267.68752 L 3550.348277 1323.955839 L 3459.732548 1379.805286 L 3372.328162 1435.235863 L 3287.716249 1490.247569 L 3206.315679 1544.700781 L 3127.847205 1598.595498 L 3052.45045 1652.071344 L 2980.125416 1704.849072 L 2910.732477 1757.068306 L 2844.550881 1808.729045 L 2781.301381 1859.552043 L 2720.983978 1909.676922 L 2663.877918 1958.96406 L 2609.56433 2007.553079 L 2558.322461 2055.164734 L 2510.012689 2101.938646 L 2464.774636 2147.59557 L 2422.329056 2192.275128 L 2382.815572 2235.837697 L 2346.09456 2278.283277 L 2312.305644 2319.332621 L 2281.3092 2359.125353 L 2252.825982 2397.521848 L 2227.135236 2434.382484 L 2204.097339 2469.70726 L 2183.433043 2503.216928 L 2165.281973 2535.051113 L 2149.36488 2565.070192 L 2135.681765 2593.134539 L 2124.093005 2619.244156 L 2114.458975 2643.119795 L 2106.640053 2664.761456 L 2100.496613 2684.169139 L 2095.74941 2701.203221 L 2092.398443 2715.724077 L 2090.024842 2727.731708 L 2088.628606 2737.226114 L 2087.790864 2744.067672 L 2087.511617 2748.25638 L 2087.511617 2749.931864 L 2087.511617 2748.814875 L 2087.232369 2745.045037 L 2086.534251 2738.622351 L 2085.277639 2729.546815 L 2083.043661 2717.958055 L 2079.832318 2703.856069 L 2075.364362 2687.240859 L 2069.50017 2668.252046 L 2061.960494 2646.889633 L 2052.605712 2623.432864 L 2041.435822 2597.742119 L 2028.031955 2569.957018 L 2012.533733 2540.356811 L 1994.801533 2508.801873 L 1974.556109 2475.431828 L 1951.937082 2440.525923 L 1926.665207 2403.804911 L 1898.740483 2365.687663 L 1868.162911 2326.174179 L 1834.792866 2285.264458 L 1798.630348 2243.098125 L 1759.535735 2199.814803 L 1717.648649 2155.274869 L 1672.829467 2109.757569 L 1625.078189 2063.262903 L 1574.255192 2015.651249 L 1520.639722 1967.341477 L 1463.812909 1918.054339 L 1404.193623 1868.069084 L 1341.362995 1817.38571 L 1275.60027 1765.864594 L 1206.905449 1713.784984 L 1134.999285 1661.007256 L 1060.161025 1607.810657 L 982.251046 1553.91594 L 901.269346 1499.462728 L 817.215927 1444.590646 L 730.230412 1389.299693 L 640.173178 1333.450245 L 547.044224 1277.32155 L 485.749455 1241.159032 " transform="matrix(0.027977, 0, 0, -0.027977, 16.418, 120.095)"/>
<path fill-rule="nonzero" fill="rgb(0%, 0%, 0%)" fill-opacity="1" stroke-width="7.5" stroke-linecap="butt" stroke-linejoin="miter" stroke="rgb(0%, 0%, 0%)" stroke-opacity="1" stroke-miterlimit="10" d="M 3964.332309 1100.418424 C 3964.332309 1114.241162 3953.162419 1125.411052 3939.339681 1125.411052 C 3925.516942 1125.411052 3914.347053 1114.241162 3914.347053 1100.418424 C 3914.347053 1086.595686 3925.516942 1075.425796 3939.339681 1075.425796 C 3953.162419 1075.425796 3964.332309 1086.595686 3964.332309 1100.418424 " transform="matrix(0.027977, 0, 0, -0.027977, 16.418, 120.095)"/>
<path fill="none" stroke-width="5.0025" stroke-linecap="butt" stroke-linejoin="bevel" stroke="rgb(0%, 0%, 0%)" stroke-opacity="1" stroke-dasharray="75 45" stroke-miterlimit="10" d="M 2646.704212 2749.931864 L 2646.704212 1096.648586 " transform="matrix(0.027977, 0, 0, -0.027977, 16.418, 120.095)"/>
<g fill="rgb(29.998779%, 79.998779%, 29.998779%)" fill-opacity="1">
<use xlink:href="#glyph-1-0" x="62.767" y="58.939"/>
</g>
<g fill="rgb(29.998779%, 79.998779%, 29.998779%)" fill-opacity="1">
<use xlink:href="#glyph-2-0" x="89.707" y="105.537"/>
</g>
<g fill="rgb(79.998779%, 9.999084%, 9.999084%)" fill-opacity="1">
<use xlink:href="#glyph-2-0" x="65.648" y="80.307"/>
</g>
<g fill="rgb(79.998779%, 9.999084%, 9.999084%)" fill-opacity="1">
<use xlink:href="#glyph-3-0" x="60.118" y="40.581"/>
</g>
<g fill="rgb(79.998779%, 9.999084%, 9.999084%)" fill-opacity="1">
<use xlink:href="#glyph-1-0" x="60.36" y="66.737"/>
</g>
<g fill="rgb(0%, 0%, 0%)" fill-opacity="1">
<use xlink:href="#glyph-4-0" x="79.735" y="128.102"/>
</g>
<g fill="rgb(0%, 0%, 0%)" fill-opacity="1">
<use xlink:href="#glyph-4-1" x="8.99" y="64.059"/>
</g>
<g fill="rgb(0%, 0%, 0%)" fill-opacity="1">
<use xlink:href="#glyph-4-2" x="128.646" y="93.875"/>
</g>
<g fill="rgb(0%, 0%, 0%)" fill-opacity="1">
<use xlink:href="#glyph-5-0" x="133.094" y="95.37"/>
</g>
<path fill="none" stroke-width="0.19925" stroke-linecap="butt" stroke-linejoin="miter" stroke="rgb(0%, 0%, 0%)" stroke-opacity="1" stroke-miterlimit="10" d="M 72.828 90.723 L 61.101438 78.992531 " transform="matrix(1, 0, 0, -1, 16.422, 120.223)"/>
<path fill-rule="nonzero" fill="rgb(0%, 0%, 0%)" fill-opacity="1" d="M 75.367188 43.386719 C 76.125 42.867188 77.523438 42.1875 78.660156 41.890625 L 76.863281 40.09375 C 76.5625 41.230469 75.886719 42.628906 75.367188 43.386719 "/>
<g fill="rgb(0%, 0%, 0%)" fill-opacity="1">
<use xlink:href="#glyph-6-0" x="89.951" y="30.679"/>
<use xlink:href="#glyph-6-1" x="94.378379" y="30.679"/>
<use xlink:href="#glyph-6-2" x="99.9136" y="30.679"/>
<use xlink:href="#glyph-6-3" x="103.842849" y="30.679"/>
</g>
</svg>
