<?xml version="1.0" encoding="UTF-8" standalone="no"?>
<svg
   width="104.37503pt"
   height="108.033pt"
   viewBox="0 0 104.37503 108.033"
   version="1.1"
   id="svg6929"
   sodipodi:docname="zermelo-courants-fort.svg"
   inkscape:version="1.2 (dc2aeda, 2022-05-15)"
   xmlns:inkscape="http://www.inkscape.org/namespaces/inkscape"
   xmlns:sodipodi="http://sodipodi.sourceforge.net/DTD/sodipodi-0.dtd"
   xmlns:xlink="http://www.w3.org/1999/xlink"
   xmlns="http://www.w3.org/2000/svg"
   xmlns:svg="http://www.w3.org/2000/svg">
  <sodipodi:namedview
     id="namedview6931"
     pagecolor="#ffffff"
     bordercolor="#000000"
     borderopacity="0.25"
     inkscape:showpageshadow="2"
     inkscape:pageopacity="0.0"
     inkscape:pagecheckerboard="0"
     inkscape:deskcolor="#d1d1d1"
     inkscape:document-units="pt"
     showgrid="false"
     inkscape:zoom="5.8007336"
     inkscape:cx="53.35532"
     inkscape:cy="69.904951"
     inkscape:window-width="1463"
     inkscape:window-height="1099"
     inkscape:window-x="0"
     inkscape:window-y="25"
     inkscape:window-maximized="0"
     inkscape:current-layer="svg6929" />
  <defs
     id="defs6329">
    <g
       id="g6306">
      <g
         id="glyph-0-0">
        <path
           d="m 1.015625,-1.125 h -0.84375 v 0.265625 h 0.84375 z m 0,0"
           id="path6243" />
      </g>
      <g
         id="glyph-0-1">
        <path
           d="M 0.796875,-1.203125 H 0.96875 C 1.3125,-1.203125 1.5,-1.03125 1.5,-0.71875 1.5,-0.390625 1.296875,-0.203125 0.96875,-0.203125 0.625,-0.203125 0.453125,-0.375 0.4375,-0.75 H 0.109375 c 0.015625,0.203125 0.0625,0.34375 0.109375,0.453125 0.140625,0.25 0.390625,0.375 0.734375,0.375 0.53125,0 0.859375,-0.3125 0.859375,-0.796875 0,-0.34375 -0.125,-0.515625 -0.421875,-0.625 C 1.625,-1.4375 1.75,-1.625 1.75,-1.890625 c 0,-0.4375 -0.296875,-0.703125 -0.78125,-0.703125 -0.515625,0 -0.796875,0.28125 -0.796875,0.828125 h 0.3125 c 0,-0.15625 0.015625,-0.25 0.0625,-0.328125 0.0625,-0.140625 0.21875,-0.234375 0.421875,-0.234375 0.28125,0 0.453125,0.171875 0.453125,0.453125 0,0.1875 -0.0625,0.296875 -0.203125,0.359375 C 1.125,-1.484375 1.015625,-1.46875 0.796875,-1.46875 Z m 0,0"
           id="path6246" />
      </g>
      <g
         id="glyph-0-2">
        <path
           d="M 1.8125,-0.3125 H 0.484375 C 0.515625,-0.53125 0.625,-0.671875 0.9375,-0.859375 L 1.296875,-1.0625 C 1.65625,-1.25 1.84375,-1.515625 1.84375,-1.84375 1.84375,-2.0625 1.75,-2.25 1.59375,-2.390625 1.453125,-2.53125 1.265625,-2.59375 1.015625,-2.59375 c -0.3125,0 -0.5625,0.109375 -0.703125,0.328125 -0.09375,0.140625 -0.125,0.296875 -0.140625,0.5625 H 0.5 C 0.5,-1.875 0.53125,-1.984375 0.578125,-2.0625 0.65625,-2.21875 0.8125,-2.328125 1.015625,-2.328125 c 0.28125,0 0.5,0.21875 0.5,0.5 0,0.203125 -0.125,0.390625 -0.34375,0.515625 L 0.84375,-1.125 C 0.3125,-0.8125 0.15625,-0.578125 0.125,0 h 1.6875 z m 0,0"
           id="path6249" />
      </g>
      <g
         id="glyph-0-3">
        <path
           d="M 0.9375,-1.84375 V 0 H 1.25 V -2.59375 H 1.03125 c -0.109375,0.390625 -0.171875,0.453125 -0.671875,0.515625 v 0.234375 z m 0,0"
           id="path6252" />
      </g>
      <g
         id="glyph-0-4">
        <path
           d="m 0.984375,-2.59375 c -0.234375,0 -0.453125,0.109375 -0.578125,0.28125 -0.171875,0.234375 -0.25,0.578125 -0.25,1.0625 0,0.875 0.28125,1.328125 0.828125,1.328125 0.546875,0 0.84375,-0.453125 0.84375,-1.3125 0,-0.5 -0.078125,-0.84375 -0.25,-1.078125 C 1.4375,-2.5 1.234375,-2.59375 0.984375,-2.59375 Z m 0,0.28125 c 0.34375,0 0.515625,0.34375 0.515625,1.046875 0,0.734375 -0.171875,1.09375 -0.515625,1.09375 -0.34375,0 -0.5,-0.359375 -0.5,-1.078125 0,-0.71875 0.15625,-1.0625 0.5,-1.0625 z m 0,0"
           id="path6255" />
      </g>
      <g
         id="glyph-0-5">
        <path
           d="M 1.171875,-0.625 V 0 h 0.3125 V -0.625 H 1.875 V -0.90625 H 1.484375 v -1.6875 H 1.25 l -1.15625,1.625 V -0.625 Z m 0,-0.28125 H 0.375 L 1.171875,-2.0625 Z m 0,0"
           id="path6258" />
      </g>
      <g
         id="glyph-0-6">
        <path
           d="m 1.703125,-2.546875 h -1.3125 l -0.1875,1.390625 H 0.5 c 0.140625,-0.1875 0.265625,-0.234375 0.46875,-0.234375 0.34375,0 0.546875,0.21875 0.546875,0.609375 0,0.359375 -0.203125,0.578125 -0.546875,0.578125 -0.28125,0 -0.453125,-0.140625 -0.53125,-0.421875 H 0.125 c 0.046875,0.203125 0.078125,0.3125 0.15625,0.40625 0.140625,0.1875 0.40625,0.296875 0.6875,0.296875 0.515625,0 0.875,-0.375 0.875,-0.90625 0,-0.5 -0.328125,-0.84375 -0.828125,-0.84375 -0.171875,0 -0.3125,0.046875 -0.46875,0.140625 L 0.65625,-2.234375 h 1.046875 z m 0,0"
           id="path6261" />
      </g>
      <g
         id="glyph-1-0">
        <path
           d="M 2.390625,-2.25 H 3.125 c 0.53125,0 0.625,0.09375 0.625,0.3125 0,0.109375 0,0.125 -0.046875,0.328125 -0.015625,0.03125 -0.03125,0.0625 -0.03125,0.078125 0,0.0625 0.0625,0.109375 0.125,0.109375 0.09375,0 0.09375,-0.046875 0.140625,-0.171875 l 0.375,-1.46875 c 0,-0.03125 0.015625,-0.125 0.015625,-0.140625 0,-0.078125 -0.046875,-0.109375 -0.109375,-0.109375 -0.09375,0 -0.109375,0.046875 -0.140625,0.171875 C 3.9375,-2.59375 3.734375,-2.5 3.140625,-2.5 h -0.6875 l 0.4375,-1.75 c 0.046875,-0.203125 0.0625,-0.234375 0.34375,-0.234375 H 4.3125 c 0.921875,0 1.09375,0.21875 1.09375,0.8125 0,0.21875 -0.03125,0.375 -0.03125,0.421875 0,0.0625 0.03125,0.125 0.125,0.125 0.109375,0 0.109375,-0.0625 0.125,-0.1875 L 5.75,-4.515625 c 0.015625,-0.21875 -0.03125,-0.21875 -0.203125,-0.21875 h -3.71875 c -0.140625,0 -0.21875,0 -0.21875,0.15625 0,0.09375 0.078125,0.09375 0.21875,0.09375 0,0 0.140625,0 0.265625,0.015625 C 2.234375,-4.453125 2.25,-4.4375 2.25,-4.375 c 0,0.046875 -0.015625,0.125 -0.03125,0.15625 L 1.3125,-0.578125 C 1.234375,-0.296875 1.234375,-0.25 0.6875,-0.25 c -0.109375,0 -0.203125,0 -0.203125,0.140625 C 0.484375,-0.03125 0.53125,0 0.59375,0 0.796875,0 1.3125,-0.03125 1.515625,-0.03125 l 0.53125,0.015625 C 2.234375,-0.015625 2.421875,0 2.59375,0 2.640625,0 2.75,0 2.75,-0.15625 2.75,-0.25 2.671875,-0.25 2.515625,-0.25 c -0.015625,0 -0.1875,0 -0.375,-0.015625 C 2,-0.28125 1.9375,-0.28125 1.9375,-0.390625 c 0,-0.015625 0,-0.046875 0.015625,-0.125 z m 0,0"
           id="path6264" />
      </g>
      <g
         id="glyph-1-1">
        <path
           d="m 3.546875,-2.875 c 0,-0.03125 0.015625,-0.0625 0.015625,-0.09375 0,-0.046875 -0.03125,-0.109375 -0.09375,-0.109375 -0.0625,0 -0.359375,0.234375 -0.5,0.46875 -0.0625,-0.140625 -0.296875,-0.46875 -0.75,-0.46875 -0.890625,0 -1.796875,0.984375 -1.796875,1.984375 0,0.6875 0.453125,1.15625 1.0625,1.15625 0.390625,0 0.71875,-0.25 0.875,-0.375 C 2.34375,-0.296875 2.125,0.578125 2.109375,0.703125 2,1.09375 2,1.09375 1.5625,1.09375 c -0.078125,0 -0.171875,0 -0.171875,0.15625 0,0.046875 0.03125,0.109375 0.09375,0.109375 0.234375,0 0.5,-0.03125 0.734375,-0.03125 0.234375,0 0.53125,0.03125 0.75,0.03125 0.0625,0 0.125,-0.03125 0.125,-0.15625 C 3.09375,1.09375 3,1.09375 2.921875,1.09375 c -0.15625,0 -0.34375,0 -0.34375,-0.078125 0,-0.015625 0,-0.03125 0.03125,-0.15625 z M 2.5,-0.875 C 2.453125,-0.765625 2.453125,-0.75 2.375,-0.640625 2.09375,-0.3125 1.765625,-0.125 1.5,-0.125 c -0.265625,0 -0.515625,-0.1875 -0.515625,-0.671875 0,-0.375 0.203125,-1.140625 0.375,-1.421875 0.3125,-0.5625 0.671875,-0.65625 0.859375,-0.65625 0.484375,0 0.625,0.53125 0.625,0.609375 0,0.03125 -0.015625,0.078125 -0.015625,0.09375 z m 0,0"
           id="path6267" />
      </g>
      <g
         id="glyph-2-0">
        <path
           d="M 3,-1.59375 C 3,-1.953125 3,-3.3125 1.6875,-3.3125 c -1.296875,0 -1.296875,1.359375 -1.296875,1.71875 0,0.359375 0,1.703125 1.296875,1.703125 C 3,0.109375 3,-1.234375 3,-1.59375 Z M 1.6875,-0.0625 C 1.515625,-0.0625 1.09375,-0.125 0.96875,-0.625 0.890625,-0.890625 0.890625,-1.25 0.890625,-1.65625 c 0,-0.375 0,-0.71875 0.078125,-1 0.125,-0.421875 0.515625,-0.5 0.71875,-0.5 0.375,0 0.640625,0.1875 0.734375,0.546875 C 2.5,-2.359375 2.5,-1.953125 2.5,-1.65625 c 0,0.34375 0,0.75 -0.078125,1.046875 C 2.296875,-0.125 1.890625,-0.0625 1.6875,-0.0625 Z m 0,0"
           id="path6270" />
      </g>
      <g
         id="glyph-3-0">
        <path
           d="m 2.65625,1.984375 c 0.0625,0 0.15625,0 0.15625,-0.09375 0,-0.03125 0,-0.03125 -0.109375,-0.140625 -1.09375,-1.03125 -1.359375,-2.5 -1.359375,-3.734375 0,-2.296875 0.9375,-3.375 1.34375,-3.75 0.125,-0.09375 0.125,-0.109375 0.125,-0.140625 0,-0.046875 -0.03125,-0.09375 -0.109375,-0.09375 -0.125,0 -0.53125,0.40625 -0.59375,0.46875 -1.0625,1.125 -1.28125,2.546875 -1.28125,3.515625 0,1.78125 0.734375,3.21875 1.828125,3.96875 z m 0,0"
           id="path6273" />
      </g>
      <g
         id="glyph-3-1">
        <path
           d="m 2.9375,-3.15625 c -0.234375,0.0625 -0.265625,0.25 -0.265625,0.34375 0,0.21875 0.15625,0.375 0.375,0.375 0.21875,0 0.375,-0.140625 0.375,-0.390625 0,-0.484375 -0.53125,-0.71875 -1.28125,-0.71875 -1.109375,0 -1.859375,0.875 -1.859375,1.828125 0,1.015625 0.828125,1.796875 1.828125,1.796875 1.125,0 1.40625,-0.9375 1.40625,-1.03125 0,-0.09375 -0.109375,-0.09375 -0.125,-0.09375 -0.0625,0 -0.09375,0 -0.125,0.078125 -0.046875,0.171875 -0.28125,0.796875 -1.078125,0.796875 -0.484375,0 -1.203125,-0.375 -1.203125,-1.5625 0,-1.140625 0.59375,-1.578125 1.171875,-1.578125 0.078125,0 0.5,0 0.78125,0.15625 z m 0,0"
           id="path6276" />
      </g>
      <g
         id="glyph-3-2">
        <path
           d="m 2.46875,-1.984375 c 0,-0.765625 -0.140625,-1.671875 -0.625,-2.609375 -0.390625,-0.734375 -1.125,-1.375 -1.265625,-1.375 -0.078125,0 -0.09375,0.046875 -0.09375,0.09375 0,0.03125 0,0.046875 0.09375,0.140625 1.109375,1.0625 1.359375,2.515625 1.359375,3.75 C 1.9375,0.296875 1,1.375 0.59375,1.75 0.484375,1.84375 0.484375,1.859375 0.484375,1.890625 c 0,0.046875 0.015625,0.09375 0.09375,0.09375 0.125,0 0.53125,-0.40625 0.59375,-0.46875 1.0625,-1.125 1.296875,-2.546875 1.296875,-3.5 z m 0,0"
           id="path6279" />
      </g>
      <g
         id="glyph-3-3">
        <path
           d="m 5.640625,-5.40625 c 0,-0.125 0,-0.203125 -0.109375,-0.203125 -0.0625,0 -0.0625,0 -0.140625,0.109375 l -0.40625,0.59375 c -0.28125,-0.3125 -0.8125,-0.703125 -1.578125,-0.703125 -1.59375,0 -2.9375,1.28125 -2.9375,2.890625 0,1.609375 1.328125,2.890625 2.953125,2.890625 1.328125,0 2.21875,-1.0625 2.21875,-2.03125 0,-0.078125 0,-0.15625 -0.140625,-0.15625 -0.078125,0 -0.109375,0.046875 -0.109375,0.125 -0.0625,1.21875 -1.0625,1.796875 -1.90625,1.796875 -0.671875,0 -2.1875,-0.421875 -2.1875,-2.625 0,-2.15625 1.4375,-2.625 2.1875,-2.625 0.75,0 1.671875,0.53125 1.890625,1.90625 0,0.0625 0.015625,0.109375 0.125,0.109375 0.140625,0 0.140625,-0.046875 0.140625,-0.203125 z m 0,0"
           id="path6282" />
      </g>
      <g
         id="glyph-3-4">
        <path
           d="m 3.984375,-1.703125 c 0,-0.984375 -0.828125,-1.84375 -1.875,-1.84375 -1.046875,0 -1.875,0.859375 -1.875,1.84375 0,1 0.859375,1.78125 1.875,1.78125 1.03125,0 1.875,-0.78125 1.875,-1.78125 z m -1.875,1.53125 C 1.6875,-0.171875 1.34375,-0.375 1.171875,-0.65625 0.96875,-0.984375 0.953125,-1.375 0.953125,-1.765625 c 0,-0.3125 0,-0.78125 0.234375,-1.125 0.21875,-0.28125 0.546875,-0.4375 0.921875,-0.4375 0.421875,0 0.765625,0.203125 0.9375,0.46875 0.21875,0.34375 0.234375,0.765625 0.234375,1.09375 0,0.359375 -0.015625,0.796875 -0.25,1.140625 -0.203125,0.3125 -0.5625,0.453125 -0.921875,0.453125 z m 0,0"
           id="path6285" />
      </g>
      <g
         id="glyph-3-5">
        <path
           d="m 2.65625,-3.421875 v 0.265625 c 0.546875,0 0.609375,0.046875 0.609375,0.4375 v 1.390625 c 0,0.6875 -0.40625,1.1875 -1.015625,1.1875 -0.6875,0 -0.71875,-0.34375 -0.71875,-0.75 v -2.625 l -1.203125,0.09375 v 0.265625 c 0.609375,0 0.609375,0.015625 0.609375,0.71875 v 1.203125 c 0,0.578125 0,1.3125 1.265625,1.3125 0.75,0 1.046875,-0.578125 1.078125,-0.640625 H 3.296875 V 0.078125 L 4.484375,0 V -0.265625 C 3.9375,-0.265625 3.875,-0.3125 3.875,-0.703125 v -2.8125 z m 0,0"
           id="path6288" />
      </g>
      <g
         id="glyph-3-6">
        <path
           d="m 1.46875,-1.8125 c 0,-0.609375 0.25,-1.46875 1.015625,-1.484375 -0.046875,0.03125 -0.140625,0.09375 -0.140625,0.28125 0,0.25 0.203125,0.359375 0.359375,0.359375 0.1875,0 0.359375,-0.125 0.359375,-0.359375 0,-0.28125 -0.25,-0.5 -0.609375,-0.5 -0.515625,0 -0.875,0.390625 -1.03125,0.84375 H 1.40625 v -0.84375 l -1.125,0.09375 v 0.265625 c 0.546875,0 0.609375,0.046875 0.609375,0.4375 V -0.625 c 0,0.359375 -0.109375,0.359375 -0.609375,0.359375 V 0 c 0.3125,-0.03125 0.75,-0.03125 0.9375,-0.03125 0.46875,0 0.484375,0 1,0.03125 V -0.265625 H 2.0625 c -0.578125,0 -0.59375,-0.078125 -0.59375,-0.375 z m 0,0"
           id="path6291" />
      </g>
      <g
         id="glyph-3-7">
        <path
           d="m 3.34375,-2.375 c 0,-0.78125 -0.75,-1.171875 -1.484375,-1.171875 -0.65625,0 -1.25,0.25 -1.25,0.78125 0,0.234375 0.171875,0.375 0.375,0.375 0.234375,0 0.375,-0.15625 0.375,-0.375 0,-0.1875 -0.109375,-0.328125 -0.296875,-0.359375 0.296875,-0.203125 0.734375,-0.203125 0.78125,-0.203125 0.453125,0 0.890625,0.3125 0.890625,0.96875 V -2.125 C 2.28125,-2.09375 1.75,-2.078125 1.1875,-1.84375 c -0.703125,0.3125 -0.84375,0.765625 -0.84375,1.03125 0,0.6875 0.8125,0.890625 1.359375,0.890625 0.578125,0 0.9375,-0.328125 1.125,-0.640625 0.03125,0.296875 0.234375,0.609375 0.59375,0.609375 0.078125,0 0.75,-0.03125 0.75,-0.765625 v -0.4375 h -0.25 v 0.4375 c 0,0.328125 -0.109375,0.453125 -0.28125,0.453125 -0.296875,0 -0.296875,-0.359375 -0.296875,-0.453125 z m -0.609375,1.25 c 0,0.78125 -0.640625,0.984375 -0.96875,0.984375 C 1.359375,-0.140625 1,-0.421875 1,-0.8125 1,-1.328125 1.5,-1.875 2.734375,-1.90625 Z m 0,0"
           id="path6294" />
      </g>
      <g
         id="glyph-3-8">
        <path
           d="m 3.875,-2.421875 c 0,-0.65625 -0.3125,-1.09375 -1.140625,-1.09375 -0.796875,0 -1.15625,0.578125 -1.25,0.765625 v -0.765625 l -1.15625,0.09375 v 0.265625 c 0.546875,0 0.609375,0.046875 0.609375,0.4375 V -0.625 c 0,0.359375 -0.09375,0.359375 -0.609375,0.359375 V 0 c 0.34375,-0.03125 0.6875,-0.03125 0.90625,-0.03125 0.234375,0 0.5625,0 0.90625,0.03125 v -0.265625 c -0.5,0 -0.609375,0 -0.609375,-0.359375 v -1.4375 c 0,-0.84375 0.640625,-1.234375 1.125,-1.234375 0.484375,0 0.609375,0.34375 0.609375,0.84375 V -0.625 c 0,0.359375 -0.09375,0.359375 -0.609375,0.359375 V 0 C 3,-0.03125 3.359375,-0.03125 3.5625,-0.03125 c 0.234375,0 0.578125,0 0.921875,0.03125 v -0.265625 c -0.515625,0 -0.609375,0 -0.609375,-0.359375 z m 0,0"
           id="path6297" />
      </g>
      <g
         id="glyph-3-9">
        <path
           d="m 1.484375,-3.171875 h 1.1875 V -3.4375 h -1.1875 v -1.46875 h -0.25 c 0,0.734375 -0.328125,1.484375 -1.078125,1.515625 v 0.21875 H 0.875 V -1 c 0,0.9375 0.71875,1.078125 1.078125,1.078125 C 2.5,0.078125 2.8125,-0.390625 2.8125,-1 v -0.4375 h -0.25 v 0.421875 c 0,0.546875 -0.25,0.84375 -0.546875,0.84375 -0.53125,0 -0.53125,-0.6875 -0.53125,-0.8125 z m 0,0"
           id="path6300" />
      </g>
      <g
         id="glyph-3-10">
        <path
           d="m 1.515625,-3.171875 h 0.96875 V -3.4375 H 1.5 v -0.890625 c 0,-0.703125 0.390625,-1.0625 0.734375,-1.0625 0.125,0 0.203125,0.03125 0.234375,0.046875 -0.140625,0.0625 -0.1875,0.203125 -0.1875,0.3125 0,0.203125 0.15625,0.359375 0.359375,0.359375 C 2.859375,-4.671875 3,-4.828125 3,-5.03125 3,-5.375 2.671875,-5.609375 2.25,-5.609375 c -0.59375,0 -1.3125,0.4375 -1.3125,1.28125 V -3.4375 H 0.28125 v 0.265625 H 0.9375 V -0.625 c 0,0.359375 -0.09375,0.359375 -0.609375,0.359375 V 0 c 0.3125,-0.03125 0.75,-0.03125 0.953125,-0.03125 0.46875,0 0.484375,0 1,0.03125 V -0.265625 H 2.125 c -0.59375,0 -0.609375,-0.078125 -0.609375,-0.375 z m 0,0"
           id="path6303" />
      </g>
    </g>
    <clipPath
       id="clip-0">
      <path
         clip-rule="nonzero"
         d="M 5.667969,13.148438 H 108.78125 V 117.03125 H 5.667969 Z m 0,0"
         id="path6308" />
    </clipPath>
    <clipPath
       id="clip-1">
      <path
         clip-rule="nonzero"
         d="m 10,112 h 98.78125 v 1 H 10 Z m 0,0"
         id="path6311" />
    </clipPath>
    <clipPath
       id="clip-2">
      <path
         clip-rule="nonzero"
         d="m 107,111 h 1.78125 v 2 H 107 Z m 0,0"
         id="path6314" />
    </clipPath>
    <clipPath
       id="clip-3">
      <path
         clip-rule="nonzero"
         d="m 106,114 h 2.78125 v 3 H 106 Z m 0,0"
         id="path6317" />
    </clipPath>
    <clipPath
       id="clip-4">
      <path
         clip-rule="nonzero"
         d="M 5.667969,110 H 8 v 4 H 5.667969 Z m 0,0"
         id="path6320" />
    </clipPath>
    <clipPath
       id="clip-5">
      <path
         clip-rule="nonzero"
         d="M 6,13.148438 H 9 V 16 H 6 Z m 0,0"
         id="path6323" />
    </clipPath>
    <clipPath
       id="clip-6">
      <path
         clip-rule="nonzero"
         d="m 10,95 h 98.78125 v 2 H 10 Z m 0,0"
         id="path6326" />
    </clipPath>
  </defs>
  <g
     clip-path="url(#clip-0)"
     id="g6335"
     transform="translate(-5.667969,-8.99825)">
    <path
       fill-rule="nonzero"
       fill="#ffffff"
       fill-opacity="1"
       d="M -60.25,125.23828 H 170.59766 V 5.582031 H -60.25 Z m 0,0"
       id="path6331" />
    <path
       fill-rule="nonzero"
       fill="#ffffff"
       fill-opacity="1"
       d="M -60.25,125.23828 H 170.59766 V 5.582031 H -60.25 Z m 0,0"
       id="path6333" />
  </g>
  <path
     fill-rule="nonzero"
     fill="#ffffff"
     fill-opacity="1"
     d="M 4.777343,103.158 H 102.3125 V 5.62675 H 4.777343 Z m 0,0"
     id="path6337" />
  <g
     clip-path="url(#clip-1)"
     id="g6341"
     transform="translate(-5.667969,-8.99825)">
    <path
       fill="none"
       stroke-width="5.0025"
       stroke-linecap="square"
       stroke-linejoin="round"
       stroke="#262626"
       stroke-opacity="1"
       stroke-miterlimit="10"
       d="M 186.21101,190.04873 H 3988.7512"
       transform="matrix(0.02565,0,0,-0.02565,5.669,117.031)"
       id="path6339" />
  </g>
  <path
     fill="none"
     stroke-width="0.128314"
     stroke-linecap="square"
     stroke-linejoin="round"
     stroke="#262626"
     stroke-opacity="1"
     stroke-miterlimit="10"
     d="m 4.7773434,103.158 v -0.97266"
     id="path6343" />
  <path
     fill="none"
     stroke-width="0.128314"
     stroke-linecap="square"
     stroke-linejoin="round"
     stroke="#262626"
     stroke-opacity="1"
     stroke-miterlimit="10"
     d="m 21.035156,103.158 v -0.97266"
     id="path6345" />
  <path
     fill="none"
     stroke-width="0.128314"
     stroke-linecap="square"
     stroke-linejoin="round"
     stroke="#262626"
     stroke-opacity="1"
     stroke-miterlimit="10"
     d="m 37.289062,103.158 v -0.97266"
     id="path6347" />
  <path
     fill="none"
     stroke-width="0.128314"
     stroke-linecap="square"
     stroke-linejoin="round"
     stroke="#262626"
     stroke-opacity="1"
     stroke-miterlimit="10"
     d="m 53.546876,103.158 v -0.97266"
     id="path6349" />
  <path
     fill="none"
     stroke-width="0.128314"
     stroke-linecap="square"
     stroke-linejoin="round"
     stroke="#262626"
     stroke-opacity="1"
     stroke-miterlimit="10"
     d="m 69.800781,103.158 v -0.97266"
     id="path6351" />
  <path
     fill="none"
     stroke-width="0.128314"
     stroke-linecap="square"
     stroke-linejoin="round"
     stroke="#262626"
     stroke-opacity="1"
     stroke-miterlimit="10"
     d="m 86.058594,103.158 v -0.97266"
     id="path6353" />
  <g
     clip-path="url(#clip-2)"
     id="g6357"
     transform="translate(-5.667969,-8.99825)">
    <path
       fill="none"
       stroke-width="5.0025"
       stroke-linecap="square"
       stroke-linejoin="round"
       stroke="#262626"
       stroke-opacity="1"
       stroke-miterlimit="10"
       d="m 3988.7512,190.04873 v 37.92032"
       transform="matrix(0.02565,0,0,-0.02565,5.669,117.031)"
       id="path6355" />
  </g>
  <g
     fill="#262626"
     fill-opacity="1"
     id="g6363"
     transform="translate(-5.667969,-8.99825)">
    <use
       xlink:href="#glyph-0-0"
       x="8.6187496"
       y="116.85145"
       id="use6359" />
    <use
       xlink:href="#glyph-0-1"
       x="9.8145704"
       y="116.85145"
       id="use6361" />
  </g>
  <g
     fill="#262626"
     fill-opacity="1"
     id="g6369"
     transform="translate(-5.667969,-8.99825)">
    <use
       xlink:href="#glyph-0-0"
       x="24.874363"
       y="116.85145"
       id="use6365" />
    <use
       xlink:href="#glyph-0-2"
       x="26.070183"
       y="116.85145"
       id="use6367" />
  </g>
  <g
     fill="#262626"
     fill-opacity="1"
     id="g6375"
     transform="translate(-5.667969,-8.99825)">
    <use
       xlink:href="#glyph-0-0"
       x="41.129974"
       y="116.85145"
       id="use6371" />
    <use
       xlink:href="#glyph-0-3"
       x="42.325794"
       y="116.85145"
       id="use6373" />
  </g>
  <g
     fill="#262626"
     fill-opacity="1"
     id="g6379"
     transform="translate(-5.667969,-8.99825)">
    <use
       xlink:href="#glyph-0-4"
       x="57.962742"
       y="116.85145"
       id="use6377" />
  </g>
  <g
     fill="#262626"
     fill-opacity="1"
     id="g6383"
     transform="translate(-5.667969,-8.99825)">
    <use
       xlink:href="#glyph-0-3"
       x="74.218384"
       y="116.85145"
       id="use6381" />
  </g>
  <g
     fill="#262626"
     fill-opacity="1"
     id="g6387"
     transform="translate(-5.667969,-8.99825)">
    <use
       xlink:href="#glyph-0-2"
       x="90.474037"
       y="116.85145"
       id="use6385" />
  </g>
  <g
     clip-path="url(#clip-3)"
     id="g6393"
     transform="translate(-5.667969,-8.99825)">
    <g
       fill="#262626"
       fill-opacity="1"
       id="g6391">
      <use
         xlink:href="#glyph-0-1"
         x="106.72968"
         y="116.85145"
         id="use6389" />
    </g>
  </g>
  <path
     fill="none"
     stroke-width="0.128314"
     stroke-linecap="square"
     stroke-linejoin="round"
     stroke="#262626"
     stroke-opacity="1"
     stroke-miterlimit="10"
     d="M 4.7773434,103.158 V 5.6267512"
     id="path6395" />
  <path
     fill="none"
     stroke-width="0.128314"
     stroke-linecap="square"
     stroke-linejoin="round"
     stroke="#262626"
     stroke-opacity="1"
     stroke-miterlimit="10"
     d="M 4.7773434,103.158 H 5.7539061"
     id="path6397" />
  <path
     fill="none"
     stroke-width="0.128314"
     stroke-linecap="square"
     stroke-linejoin="round"
     stroke="#262626"
     stroke-opacity="1"
     stroke-miterlimit="10"
     d="M 4.7773434,86.904094 H 5.7539061"
     id="path6399" />
  <path
     fill="none"
     stroke-width="0.128314"
     stroke-linecap="square"
     stroke-linejoin="round"
     stroke="#262626"
     stroke-opacity="1"
     stroke-miterlimit="10"
     d="M 4.7773434,70.646282 H 5.7539061"
     id="path6401" />
  <path
     fill="none"
     stroke-width="0.128314"
     stroke-linecap="square"
     stroke-linejoin="round"
     stroke="#262626"
     stroke-opacity="1"
     stroke-miterlimit="10"
     d="M 4.7773434,54.392375 H 5.7539061"
     id="path6403" />
  <path
     fill="none"
     stroke-width="0.128314"
     stroke-linecap="square"
     stroke-linejoin="round"
     stroke="#262626"
     stroke-opacity="1"
     stroke-miterlimit="10"
     d="M 4.7773434,38.134563 H 5.7539061"
     id="path6405" />
  <path
     fill="none"
     stroke-width="0.128314"
     stroke-linecap="square"
     stroke-linejoin="round"
     stroke="#262626"
     stroke-opacity="1"
     stroke-miterlimit="10"
     d="M 4.7773434,21.880656 H 5.7539061"
     id="path6407" />
  <path
     fill="none"
     stroke-width="0.128314"
     stroke-linecap="square"
     stroke-linejoin="round"
     stroke="#262626"
     stroke-opacity="1"
     stroke-miterlimit="10"
     d="M 4.7773434,5.6267512 H 5.7539061"
     id="path6409" />
  <g
     clip-path="url(#clip-4)"
     id="g6417"
     transform="translate(-5.667969,-8.99825)">
    <g
       fill="#262626"
       fill-opacity="1"
       id="g6415">
      <use
         xlink:href="#glyph-0-0"
         x="5.5599871"
         y="113.40794"
         id="use6411" />
      <use
         xlink:href="#glyph-0-3"
         x="6.7558079"
         y="113.40794"
         id="use6413" />
    </g>
  </g>
  <g
     fill="#262626"
     fill-opacity="1"
     id="g6421"
     transform="translate(-5.667969,-8.99825)">
    <use
       xlink:href="#glyph-0-4"
       x="6.7142372"
       y="97.152252"
       id="use6419" />
  </g>
  <g
     fill="#262626"
     fill-opacity="1"
     id="g6425"
     transform="translate(-5.667969,-8.99825)">
    <use
       xlink:href="#glyph-0-3"
       x="6.7142372"
       y="80.896561"
       id="use6423" />
  </g>
  <g
     fill="#262626"
     fill-opacity="1"
     id="g6429"
     transform="translate(-5.667969,-8.99825)">
    <use
       xlink:href="#glyph-0-2"
       x="6.7142372"
       y="64.640877"
       id="use6427" />
  </g>
  <g
     fill="#262626"
     fill-opacity="1"
     id="g6433"
     transform="translate(-5.667969,-8.99825)">
    <use
       xlink:href="#glyph-0-1"
       x="6.7142372"
       y="48.385185"
       id="use6431" />
  </g>
  <g
     fill="#262626"
     fill-opacity="1"
     id="g6437"
     transform="translate(-5.667969,-8.99825)">
    <use
       xlink:href="#glyph-0-5"
       x="6.7142372"
       y="32.129501"
       id="use6435" />
  </g>
  <g
     clip-path="url(#clip-5)"
     id="g6443"
     transform="translate(-5.667969,-8.99825)">
    <g
       fill="#262626"
       fill-opacity="1"
       id="g6441">
      <use
         xlink:href="#glyph-0-6"
         x="6.7142372"
         y="15.873812"
         id="use6439" />
    </g>
  </g>
  <path
     fill="none"
     stroke-width="0.513064"
     stroke-linecap="butt"
     stroke-linejoin="round"
     stroke="#000000"
     stroke-opacity="1"
     stroke-miterlimit="10"
     d="m 69.800781,54.392375 -0.0078,-0.511718 -0.02344,-0.507813 -0.03906,-0.511718 -0.05859,-0.507813 -0.07031,-0.503907 -0.08984,-0.503905 L 69.41018,50.8455 69.289086,50.349406 69.156273,49.857219 69.00393,49.368938 68.839867,48.884563 68.660179,48.407999 68.464867,47.935344 68.253929,47.470499 68.031272,47.01347 l -0.242188,-0.453125 -0.25,-0.441409 -0.26953,-0.437499 -0.28125,-0.42578 -0.292969,-0.417969 -0.304686,-0.410156 -0.320315,-0.398437 -0.332029,-0.38672 -0.343751,-0.378907 -0.355468,-0.367187 -0.367187,-0.355468 -0.375001,-0.343751 -0.390626,-0.328125 -0.398437,-0.320312 -0.40625,-0.308593 L 62.683616,40.947063 62.25393,40.665813 61.820311,40.400187 61.374999,40.14628 60.925781,39.907999 60.468749,39.685344 60,39.474407 l -0.468751,-0.195312 -0.480468,-0.179689 -0.480468,-0.167969 -0.488281,-0.148436 -0.492188,-0.13672 -0.5,-0.117187 -0.500001,-0.105468 -0.500001,-0.08594 -0.507811,-0.07422 -0.507813,-0.05468 -0.507811,-0.03906 -0.51172,-0.02344 -0.507811,-0.01172 -0.51172,0.01172 -0.511718,0.02344 -0.507813,0.03906 -0.507814,0.05468 -0.503904,0.07422 -0.503908,0.08594 -0.5,0.105468 -0.496094,0.117187 -0.492185,0.13672 -0.488284,0.148436 -0.484374,0.167969 -0.476562,0.179689 -0.472655,0.195312 -0.464845,0.210937 -0.460938,0.222655 -0.449219,0.238281 -0.445312,0.253907 -0.433593,0.265626 -0.425782,0.28125 -0.417969,0.292969 -0.410157,0.308593 -0.398437,0.320312 -0.386719,0.328125 -0.378905,0.343751 -0.367187,0.355468 -0.355471,0.367187 -0.343748,0.378907 -0.332032,0.38672 -0.320312,0.398437 -0.304689,0.410156 -0.292969,0.417969 -0.281249,0.42578 -0.265624,0.437499 -0.253907,0.441409 -0.238281,0.453125 -0.226564,0.457029 -0.210937,0.464845 -0.195312,0.472655 -0.179686,0.476564 -0.164063,0.484375 -0.152346,0.488281 -0.13281,0.492187 -0.121094,0.496094 -0.101563,0.500001 -0.08984,0.503905 -0.07031,0.503907 -0.05469,0.507813 -0.04297,0.511718 -0.02344,0.507813 -0.0078,0.511718 0.0078,0.51172 0.02344,0.507811 0.04297,0.51172 0.05469,0.507811 0.07031,0.503907 0.08984,0.503907 0.101563,0.499998 0.121094,0.496094 0.13281,0.492188 0.152346,0.488281 0.164063,0.484374 0.179686,0.476565 0.195312,0.472655 0.210937,0.464844 0.226564,0.457032 0.238281,0.453125 0.253907,0.441406 0.265624,0.437499 0.281249,0.425783 0.292969,0.417966 0.304689,0.410157 0.320312,0.398439 0.332032,0.386717 0.343748,0.378907 0.355471,0.367188 0.367187,0.351561 0.378905,0.343751 0.386719,0.332032 0.398437,0.320312 0.410157,0.308592 0.417969,0.29297 0.425782,0.281249 0.433593,0.265627 0.445312,0.253906 0.449219,0.238281 0.460938,0.222655 0.464845,0.210938 0.472655,0.195314 0.476562,0.179686 0.484374,0.167969 0.488284,0.148437 0.492185,0.13672 0.496094,0.117187 0.5,0.10547 0.503908,0.08594 0.503904,0.07422 0.507814,0.05469 0.507813,0.03906 0.511718,0.02344 0.51172,0.0078 0.507811,-0.0078 0.51172,-0.02344 0.507811,-0.03906 0.507813,-0.05469 0.507811,-0.07422 0.500001,-0.08594 0.500001,-0.10547 0.5,-0.117187 0.492188,-0.13672 0.488281,-0.148437 0.480468,-0.167969 0.480468,-0.179686 L 60,69.310343 l 0.468749,-0.210938 0.457032,-0.222655 0.449218,-0.238281 0.445312,-0.253906 0.433596,-0.265627 0.429686,-0.281249 0.417969,-0.29297 0.40625,-0.308592 0.398437,-0.320312 0.390626,-0.332032 0.375001,-0.343751 0.367187,-0.351561 0.355468,-0.367188 0.343751,-0.378907 0.332029,-0.386717 0.320315,-0.398439 0.304686,-0.410157 0.292969,-0.417966 0.28125,-0.425783 0.26953,-0.437499 0.25,-0.441406 0.242188,-0.453125 0.222657,-0.457032 0.210938,-0.464844 0.195312,-0.472655 0.179688,-0.476565 0.164063,-0.484374 0.152343,-0.488281 0.132813,-0.492188 0.121094,-0.496094 0.101561,-0.499998 0.08984,-0.503907 0.07031,-0.503907 0.05859,-0.507811 0.03906,-0.51172 0.02344,-0.507811 0.0078,-0.51172"
     id="path6445" />
  <path
     fill-rule="nonzero"
     fill="#e6e6e6"
     fill-opacity="1"
     d="m 69.730469,52.861125 0.0625,1.019531 -0.02344,-0.507812"
     id="path6447" />
  <path
     fill-rule="nonzero"
     fill="#e6e6e6"
     fill-opacity="1"
     d="M 69.730469,52.861125 69.671875,52.353312 69.511719,51.3455"
     id="path6449" />
  <path
     fill-rule="nonzero"
     fill="#e6e6e6"
     fill-opacity="1"
     d="m 69.511719,51.3455 0.160156,1.007812 -0.07031,-0.503906"
     id="path6451" />
  <path
     fill-rule="nonzero"
     fill="#e6e6e6"
     fill-opacity="1"
     d="m 69.730469,52.861125 -0.21875,-1.515625 0.28125,2.535156"
     id="path6453" />
  <path
     fill-rule="nonzero"
     fill="#e6e6e6"
     fill-opacity="1"
     d="m 68.660156,48.408 0.75,2.4375 -0.40625,-1.476562"
     id="path6455" />
  <path
     fill-rule="nonzero"
     fill="#e6e6e6"
     fill-opacity="1"
     d="M 69.410156,50.8455 69.289062,50.349406 69.003906,49.368938"
     id="path6457" />
  <path
     fill-rule="nonzero"
     fill="#e6e6e6"
     fill-opacity="1"
     d="m 68.660156,48.408 0.34375,0.960938 -0.164063,-0.484376"
     id="path6459" />
  <path
     fill-rule="nonzero"
     fill="#e6e6e6"
     fill-opacity="1"
     d="m 69.15625,49.857219 -0.152344,-0.488281 0.285156,0.980468"
     id="path6461" />
  <path
     fill-rule="nonzero"
     fill="#e6e6e6"
     fill-opacity="1"
     d="m 69.511719,51.3455 -0.101563,-0.5 -0.75,-2.4375"
     id="path6463" />
  <path
     fill-rule="nonzero"
     fill="#e6e6e6"
     fill-opacity="1"
     d="M 67.789062,46.560344 68.660156,48.408 68.03125,47.013469"
     id="path6465" />
  <path
     fill-rule="nonzero"
     fill="#e6e6e6"
     fill-opacity="1"
     d="M 68.660156,48.408 68.464843,47.935344 68.03125,47.013469"
     id="path6467" />
  <path
     fill-rule="nonzero"
     fill="#e6e6e6"
     fill-opacity="1"
     d="M 68.464843,47.935344 68.253906,47.4705 68.03125,47.013469"
     id="path6469" />
  <path
     fill-rule="nonzero"
     fill="#e6e6e6"
     fill-opacity="1"
     d="M 69.511719,51.3455 68.660156,48.408 67.789062,46.560344"
     id="path6471" />
  <path
     fill-rule="nonzero"
     fill="#e6e6e6"
     fill-opacity="1"
     d="m 69.511719,51.3455 -1.722657,-4.785156 2.003907,7.320312"
     id="path6473" />
  <path
     fill-rule="nonzero"
     fill="#e6e6e6"
     fill-opacity="1"
     d="m 67.789062,46.560344 -0.25,-0.441406 -0.269531,-0.4375"
     id="path6475" />
  <path
     fill-rule="nonzero"
     fill="#e6e6e6"
     fill-opacity="1"
     d="m 62.683593,40.947062 4.585938,4.734376 -3.761719,-4.132813"
     id="path6477" />
  <path
     fill-rule="nonzero"
     fill="#e6e6e6"
     fill-opacity="1"
     d="M 67.269531,45.681438 66.070312,44.029094 65.738281,43.642375"
     id="path6479" />
  <path
     fill-rule="nonzero"
     fill="#e6e6e6"
     fill-opacity="1"
     d="m 66.988281,45.255656 -0.292969,-0.417968 0.574219,0.84375"
     id="path6481" />
  <path
     fill-rule="nonzero"
     fill="#e6e6e6"
     fill-opacity="1"
     d="m 66.695312,44.837688 -0.625,-0.808594 1.199219,1.652344"
     id="path6483" />
  <path
     fill-rule="nonzero"
     fill="#e6e6e6"
     fill-opacity="1"
     d="m 66.390625,44.427531 -0.320313,-0.398437 0.625,0.808594"
     id="path6485" />
  <path
     fill-rule="nonzero"
     fill="#e6e6e6"
     fill-opacity="1"
     d="m 63.507812,41.548625 2.230469,2.09375 -1.066406,-1.101563"
     id="path6487" />
  <path
     fill-rule="nonzero"
     fill="#e6e6e6"
     fill-opacity="1"
     d="M 65.738281,43.642375 65.039062,42.896281 64.671875,42.540812"
     id="path6489" />
  <path
     fill-rule="nonzero"
     fill="#e6e6e6"
     fill-opacity="1"
     d="m 65.394531,43.263469 -0.355469,-0.367188 0.699219,0.746094"
     id="path6491" />
  <path
     fill-rule="nonzero"
     fill="#e6e6e6"
     fill-opacity="1"
     d="m 67.269531,45.681438 -1.53125,-2.039063 -2.230469,-2.09375"
     id="path6493" />
  <path
     fill-rule="nonzero"
     fill="#e6e6e6"
     fill-opacity="1"
     d="m 64.671875,42.540812 -0.375,-0.34375 -0.789063,-0.648437"
     id="path6495" />
  <path
     fill-rule="nonzero"
     fill="#e6e6e6"
     fill-opacity="1"
     d="M 64.296875,42.197062 63.90625,41.868938 63.507812,41.548625"
     id="path6497" />
  <path
     fill-rule="nonzero"
     fill="#e6e6e6"
     fill-opacity="1"
     d="M 67.789062,46.560344 67.269531,45.681438 62.683593,40.947062"
     id="path6499" />
  <path
     fill-rule="nonzero"
     fill="#e6e6e6"
     fill-opacity="1"
     d="m 63.507812,41.548625 -0.40625,-0.308594 -0.417969,-0.292969"
     id="path6501" />
  <path
     fill-rule="nonzero"
     fill="#e6e6e6"
     fill-opacity="1"
     d="m 54.566406,38.169719 8.117187,2.777343 -6.09375,-2.523437"
     id="path6503" />
  <path
     fill-rule="nonzero"
     fill="#e6e6e6"
     fill-opacity="1"
     d="M 62.683593,40.947062 60.925781,39.908 59.53125,39.279094"
     id="path6505" />
  <path
     fill-rule="nonzero"
     fill="#e6e6e6"
     fill-opacity="1"
     d="M 60.925781,39.908 61.820312,40.400188 61.375,40.146281"
     id="path6507" />
  <path
     fill-rule="nonzero"
     fill="#e6e6e6"
     fill-opacity="1"
     d="M 62.253906,40.665812 61.820312,40.400188 60.925781,39.908"
     id="path6509" />
  <path
     fill-rule="nonzero"
     fill="#e6e6e6"
     fill-opacity="1"
     d="M 62.253906,40.665812 60.925781,39.908 l 1.757812,1.039062"
     id="path6511" />
  <path
     fill-rule="nonzero"
     fill="#e6e6e6"
     fill-opacity="1"
     d="m 56.589843,38.423625 2.941407,0.855469 -1.941407,-0.632813"
     id="path6513" />
  <path
     fill-rule="nonzero"
     fill="#e6e6e6"
     fill-opacity="1"
     d="M 60.46875,39.685344 60,39.474406 60.925781,39.908"
     id="path6515" />
  <path
     fill-rule="nonzero"
     fill="#e6e6e6"
     fill-opacity="1"
     d="M 60,39.474406 59.53125,39.279094 60.925781,39.908"
     id="path6517" />
  <path
     fill-rule="nonzero"
     fill="#e6e6e6"
     fill-opacity="1"
     d="M 59.53125,39.279094 58.570312,38.931438 57.589843,38.646281"
     id="path6519" />
  <path
     fill-rule="nonzero"
     fill="#e6e6e6"
     fill-opacity="1"
     d="m 59.050781,39.099406 -0.480469,-0.167968 0.960938,0.347656"
     id="path6521" />
  <path
     fill-rule="nonzero"
     fill="#e6e6e6"
     fill-opacity="1"
     d="M 62.683593,40.947062 59.53125,39.279094 56.589843,38.423625"
     id="path6523" />
  <path
     fill-rule="nonzero"
     fill="#e6e6e6"
     fill-opacity="1"
     d="m 58.082031,38.783 -0.492188,-0.136719 0.980469,0.285157"
     id="path6525" />
  <path
     fill-rule="nonzero"
     fill="#e6e6e6"
     fill-opacity="1"
     d="M 67.789062,46.560344 62.683593,40.947062 54.566406,38.169719"
     id="path6527" />
  <path
     fill-rule="nonzero"
     fill="#e6e6e6"
     fill-opacity="1"
     d="m 57.089843,38.529094 -0.5,-0.105469 1,0.222656"
     id="path6529" />
  <path
     fill-rule="nonzero"
     fill="#e6e6e6"
     fill-opacity="1"
     d="m 39.300781,46.560344 4.691406,20.984375 2.171875,1.332031"
     id="path6531" />
  <path
     fill-rule="nonzero"
     fill="#e6e6e6"
     fill-opacity="1"
     d="m 56.089843,38.337688 -1.523437,-0.167969 2.023437,0.253906"
     id="path6533" />
  <path
     fill-rule="nonzero"
     fill="#e6e6e6"
     fill-opacity="1"
     d="m 55.582031,38.263469 -0.507812,-0.05469 -0.507813,-0.03906"
     id="path6535" />
  <path
     fill-rule="nonzero"
     fill="#e6e6e6"
     fill-opacity="1"
     d="m 55.582031,38.263469 -1.015625,-0.09375 1.523437,0.167969"
     id="path6537" />
  <path
     fill-rule="nonzero"
     fill="#e6e6e6"
     fill-opacity="1"
     d="m 54.566406,38.169719 -0.511719,-0.02344 -1.53125,0.02344"
     id="path6539" />
  <path
     fill-rule="nonzero"
     fill="#e6e6e6"
     fill-opacity="1"
     d="m 54.054687,38.146281 h -1.019531 l -0.511719,0.02344"
     id="path6541" />
  <path
     fill-rule="nonzero"
     fill="#e6e6e6"
     fill-opacity="1"
     d="m 53.546875,38.134562 -0.511719,0.01172 h 1.019531"
     id="path6543" />
  <path
     fill-rule="nonzero"
     fill="#e6e6e6"
     fill-opacity="1"
     d="m 37.296875,53.880656 0.28125,3.558594 1.722656,-10.878906"
     id="path6545" />
  <path
     fill-rule="nonzero"
     fill="#e6e6e6"
     fill-opacity="1"
     d="M 52.523437,38.169719 51.003906,38.337688 50.5,38.423628"
     id="path6547" />
  <path
     fill-rule="nonzero"
     fill="#e6e6e6"
     fill-opacity="1"
     d="m 52.015625,38.208781 -0.507813,0.05469 1.015625,-0.09375"
     id="path6549" />
  <path
     fill-rule="nonzero"
     fill="#e6e6e6"
     fill-opacity="1"
     d="m 51.507812,38.263469 -0.503906,0.07422 1.519531,-0.167969"
     id="path6551" />
  <path
     fill-rule="nonzero"
     fill="#e6e6e6"
     fill-opacity="1"
     d="M 44.410156,40.947062 50.5,38.423625 47.5625,39.279094"
     id="path6553" />
  <path
     fill-rule="nonzero"
     fill="#e6e6e6"
     fill-opacity="1"
     d="m 47.5625,39.279094 1.941406,-0.632813 -0.980469,0.285157"
     id="path6555" />
  <path
     fill-rule="nonzero"
     fill="#e6e6e6"
     fill-opacity="1"
     d="M 50,38.529094 49.503906,38.646281 50.5,38.423625"
     id="path6557" />
  <path
     fill-rule="nonzero"
     fill="#e6e6e6"
     fill-opacity="1"
     d="M 50.5,38.423625 49.503906,38.646281 47.5625,39.279094"
     id="path6559" />
  <path
     fill-rule="nonzero"
     fill="#e6e6e6"
     fill-opacity="1"
     d="m 49.011719,38.783 -0.488282,0.148438 0.980469,-0.285157"
     id="path6561" />
  <path
     fill-rule="nonzero"
     fill="#e6e6e6"
     fill-opacity="1"
     d="M 44.410156,40.947062 47.5625,39.279094 46.164062,39.908"
     id="path6563" />
  <path
     fill-rule="nonzero"
     fill="#e6e6e6"
     fill-opacity="1"
     d="M 48.039062,39.099406 47.5625,39.279094 48.523437,38.931438"
     id="path6565" />
  <path
     fill-rule="nonzero"
     fill="#e6e6e6"
     fill-opacity="1"
     d="M 52.523437,38.169719 50.5,38.423625 44.410156,40.947062"
     id="path6567" />
  <path
     fill-rule="nonzero"
     fill="#e6e6e6"
     fill-opacity="1"
     d="M 47.089843,39.474406 46.625,39.685344 46.164062,39.908"
     id="path6569" />
  <path
     fill-rule="nonzero"
     fill="#e6e6e6"
     fill-opacity="1"
     d="M 47.089843,39.474406 46.164062,39.908 47.5625,39.279094"
     id="path6571" />
  <path
     fill-rule="nonzero"
     fill="#e6e6e6"
     fill-opacity="1"
     d="m 46.164062,39.908 -1.328125,0.757812 -0.425781,0.28125"
     id="path6573" />
  <path
     fill-rule="nonzero"
     fill="#e6e6e6"
     fill-opacity="1"
     d="M 45.714843,40.146281 45.269531,40.400188 46.164062,39.908"
     id="path6575" />
  <path
     fill-rule="nonzero"
     fill="#e6e6e6"
     fill-opacity="1"
     d="M 45.269531,40.400188 44.835937,40.665812 46.164062,39.908"
     id="path6577" />
  <path
     fill-rule="nonzero"
     fill="#e6e6e6"
     fill-opacity="1"
     d="m 39.300781,46.560344 5.109375,-5.613282 -4.589844,4.734376"
     id="path6579" />
  <path
     fill-rule="nonzero"
     fill="#e6e6e6"
     fill-opacity="1"
     d="m 39.820312,45.681438 3.761719,-4.132813 -2.230469,2.09375"
     id="path6581" />
  <path
     fill-rule="nonzero"
     fill="#e6e6e6"
     fill-opacity="1"
     d="m 43.992187,41.240031 -0.410156,0.308594 0.828125,-0.601563"
     id="path6583" />
  <path
     fill-rule="nonzero"
     fill="#e6e6e6"
     fill-opacity="1"
     d="m 41.351562,43.642375 1.066407,-1.101563 -0.367188,0.355469"
     id="path6585" />
  <path
     fill-rule="nonzero"
     fill="#e6e6e6"
     fill-opacity="1"
     d="m 43.183593,41.868938 -0.386718,0.328124 0.785156,-0.648437"
     id="path6587" />
  <path
     fill-rule="nonzero"
     fill="#e6e6e6"
     fill-opacity="1"
     d="m 42.796875,42.197062 -0.378906,0.34375 1.164062,-0.992187"
     id="path6589" />
  <path
     fill-rule="nonzero"
     fill="#e6e6e6"
     fill-opacity="1"
     d="m 43.582031,41.548625 -1.164062,0.992187 -1.066407,1.101563"
     id="path6591" />
  <path
     fill-rule="nonzero"
     fill="#e6e6e6"
     fill-opacity="1"
     d="m 42.050781,42.896281 -0.355469,0.367188 -0.34375,0.378906"
     id="path6593" />
  <path
     fill-rule="nonzero"
     fill="#e6e6e6"
     fill-opacity="1"
     d="m 39.820312,45.681438 1.53125,-2.039063 -0.332031,0.386719"
     id="path6595" />
  <path
     fill-rule="nonzero"
     fill="#e6e6e6"
     fill-opacity="1"
     d="m 39.820312,45.681438 1.199219,-1.652344 -0.625,0.808594"
     id="path6597" />
  <path
     fill-rule="nonzero"
     fill="#e6e6e6"
     fill-opacity="1"
     d="m 44.410156,40.947062 -0.828125,0.601563 -3.761719,4.132813"
     id="path6599" />
  <path
     fill-rule="nonzero"
     fill="#e6e6e6"
     fill-opacity="1"
     d="m 40.699219,44.427531 -0.304688,0.410157 0.625,-0.808594"
     id="path6601" />
  <path
     fill-rule="nonzero"
     fill="#e6e6e6"
     fill-opacity="1"
     d="m 52.523437,38.169719 -8.113281,2.777343 -5.109375,5.613282"
     id="path6603" />
  <path
     fill-rule="nonzero"
     fill="#e6e6e6"
     fill-opacity="1"
     d="m 40.101562,45.255656 -0.28125,0.425782 0.574219,-0.84375"
     id="path6605" />
  <path
     fill-rule="nonzero"
     fill="#e6e6e6"
     fill-opacity="1"
     d="m 39.820312,45.681438 -0.265625,0.4375 -0.253906,0.441406"
     id="path6607" />
  <path
     fill-rule="nonzero"
     fill="#e6e6e6"
     fill-opacity="1"
     d="m 37.296875,54.904094 0.28125,2.535156 -0.28125,-3.558594"
     id="path6609" />
  <path
     fill-rule="nonzero"
     fill="#e6e6e6"
     fill-opacity="1"
     d="m 37.679687,50.8455 0.75,-2.4375 -0.34375,0.960938"
     id="path6611" />
  <path
     fill-rule="nonzero"
     fill="#e6e6e6"
     fill-opacity="1"
     d="M 39.0625,47.013469 38.835937,47.4705 38.625,47.935344"
     id="path6613" />
  <path
     fill-rule="nonzero"
     fill="#e6e6e6"
     fill-opacity="1"
     d="M 39.0625,47.013469 38.625,47.935344 38.429687,48.408"
     id="path6615" />
  <path
     fill-rule="nonzero"
     fill="#e6e6e6"
     fill-opacity="1"
     d="M 39.0625,47.013469 38.429687,48.408 39.300781,46.560344"
     id="path6617" />
  <path
     fill-rule="nonzero"
     fill="#e6e6e6"
     fill-opacity="1"
     d="m 37.679687,50.8455 0.40625,-1.476562 -0.285156,0.980468"
     id="path6619" />
  <path
     fill-rule="nonzero"
     fill="#e6e6e6"
     fill-opacity="1"
     d="M 38.25,48.884562 38.085937,49.368938 38.429687,48.408"
     id="path6621" />
  <path
     fill-rule="nonzero"
     fill="#e6e6e6"
     fill-opacity="1"
     d="m 37.578125,51.3455 0.851562,-2.9375 -0.75,2.4375"
     id="path6623" />
  <path
     fill-rule="nonzero"
     fill="#e6e6e6"
     fill-opacity="1"
     d="m 37.933593,49.857219 -0.132812,0.492187 0.285156,-0.980468"
     id="path6625" />
  <path
     fill-rule="nonzero"
     fill="#e6e6e6"
     fill-opacity="1"
     d="M 39.300781,46.560344 38.429687,48.408 37.578125,51.3455"
     id="path6627" />
  <path
     fill-rule="nonzero"
     fill="#e6e6e6"
     fill-opacity="1"
     d="m 39.300781,46.560344 -1.722656,4.785156 -0.28125,2.535156"
     id="path6629" />
  <path
     fill-rule="nonzero"
     fill="#e6e6e6"
     fill-opacity="1"
     d="m 37.578125,51.3455 -0.214844,1.515625 -0.06641,1.019531"
     id="path6631" />
  <path
     fill-rule="nonzero"
     fill="#e6e6e6"
     fill-opacity="1"
     d="m 37.488281,51.849406 -0.07031,0.503906 0.160156,-1.007812"
     id="path6633" />
  <path
     fill-rule="nonzero"
     fill="#e6e6e6"
     fill-opacity="1"
     d="m 37.417969,52.353312 -0.05469,0.507813 0.214844,-1.515625"
     id="path6635" />
  <path
     fill-rule="nonzero"
     fill="#e6e6e6"
     fill-opacity="1"
     d="m 37.363281,52.861125 -0.04297,0.511719 -0.02344,0.507812"
     id="path6637" />
  <path
     fill-rule="nonzero"
     fill="#e6e6e6"
     fill-opacity="1"
     d="m 37.578125,57.43925 2.523437,6.089844 3.890625,4.015625"
     id="path6639" />
  <path
     fill-rule="nonzero"
     fill="#e6e6e6"
     fill-opacity="1"
     d="m 37.296875,53.880656 -0.0078,0.511719 0.0078,0.511719"
     id="path6641" />
  <path
     fill-rule="nonzero"
     fill="#e6e6e6"
     fill-opacity="1"
     d="m 39.0625,61.771281 1.039062,1.757813 -2.523437,-6.089844"
     id="path6643" />
  <path
     fill-rule="nonzero"
     fill="#e6e6e6"
     fill-opacity="1"
     d="m 37.296875,54.904094 0.02344,0.507812 0.04297,0.511719"
     id="path6645" />
  <path
     fill-rule="nonzero"
     fill="#e6e6e6"
     fill-opacity="1"
     d="m 37.578125,57.43925 -0.214844,-1.515625 0.05469,0.507813"
     id="path6647" />
  <path
     fill-rule="nonzero"
     fill="#e6e6e6"
     fill-opacity="1"
     d="m 37.578125,57.43925 -0.160156,-1.007812 0.07031,0.503906"
     id="path6649" />
  <path
     fill-rule="nonzero"
     fill="#e6e6e6"
     fill-opacity="1"
     d="m 37.296875,54.904094 0.06641,1.019531 0.214844,1.515625"
     id="path6651" />
  <path
     fill-rule="nonzero"
     fill="#e6e6e6"
     fill-opacity="1"
     d="m 40.101562,63.529094 1.59375,1.992187 2.296875,2.023438"
     id="path6653" />
  <path
     fill-rule="nonzero"
     fill="#e6e6e6"
     fill-opacity="1"
     d="M 38.429687,60.37675 39.0625,61.771281 38.085937,59.415812"
     id="path6655" />
  <path
     fill-rule="nonzero"
     fill="#e6e6e6"
     fill-opacity="1"
     d="m 38.085937,59.415812 -0.285156,-0.980468 0.132812,0.492187"
     id="path6657" />
  <path
     fill-rule="nonzero"
     fill="#e6e6e6"
     fill-opacity="1"
     d="m 37.679687,57.93925 0.121094,0.496094 0.285156,0.980468"
     id="path6659" />
  <path
     fill-rule="nonzero"
     fill="#e6e6e6"
     fill-opacity="1"
     d="m 38.625,60.849406 0.4375,0.921875 -0.632813,-1.394531"
     id="path6661" />
  <path
     fill-rule="nonzero"
     fill="#e6e6e6"
     fill-opacity="1"
     d="M 38.085937,59.415812 38.25,59.900188 38.429687,60.37675"
     id="path6663" />
  <path
     fill-rule="nonzero"
     fill="#e6e6e6"
     fill-opacity="1"
     d="M 38.835937,61.31425 39.0625,61.771281 38.625,60.849406"
     id="path6665" />
  <path
     fill-rule="nonzero"
     fill="#e6e6e6"
     fill-opacity="1"
     d="m 39.0625,61.771281 -1.382813,-3.832031 0.40625,1.476562"
     id="path6667" />
  <path
     fill-rule="nonzero"
     fill="#e6e6e6"
     fill-opacity="1"
     d="m 37.578125,57.43925 0.101562,0.5 1.382813,3.832031"
     id="path6669" />
  <path
     fill-rule="nonzero"
     fill="#e6e6e6"
     fill-opacity="1"
     d="M 37.578125,57.43925 43.992187,67.544719 39.300781,46.560344"
     id="path6671" />
  <path
     fill-rule="nonzero"
     fill="#e6e6e6"
     fill-opacity="1"
     d="m 39.0625,61.771281 0.238281,0.453125 0.800781,1.304688"
     id="path6673" />
  <path
     fill-rule="nonzero"
     fill="#e6e6e6"
     fill-opacity="1"
     d="m 40.101562,63.529094 -0.546875,-0.863282 0.265625,0.4375"
     id="path6675" />
  <path
     fill-rule="nonzero"
     fill="#e6e6e6"
     fill-opacity="1"
     d="m 39.300781,62.224406 0.253906,0.441406 0.546875,0.863282"
     id="path6677" />
  <path
     fill-rule="nonzero"
     fill="#e6e6e6"
     fill-opacity="1"
     d="M 39.300781,46.560344 46.164062,68.87675 52.523437,38.169719"
     id="path6679" />
  <path
     fill-rule="nonzero"
     fill="#e6e6e6"
     fill-opacity="1"
     d="m 41.695312,65.521281 -0.996093,-1.164062 0.652343,0.785156"
     id="path6681" />
  <path
     fill-rule="nonzero"
     fill="#e6e6e6"
     fill-opacity="1"
     d="m 40.394531,63.947062 0.304688,0.410157 -0.597657,-0.828125"
     id="path6683" />
  <path
     fill-rule="nonzero"
     fill="#e6e6e6"
     fill-opacity="1"
     d="m 40.699219,64.357219 0.320312,0.398437 0.332031,0.386719"
     id="path6685" />
  <path
     fill-rule="nonzero"
     fill="#e6e6e6"
     fill-opacity="1"
     d="m 40.101562,63.529094 0.597657,0.828125 0.996093,1.164062"
     id="path6687" />
  <path
     fill-rule="nonzero"
     fill="#e6e6e6"
     fill-opacity="1"
     d="M 46.164062,68.87675 47.5625,69.505656 52.523437,38.169719"
     id="path6689" />
  <path
     fill-rule="nonzero"
     fill="#e6e6e6"
     fill-opacity="1"
     d="m 43.183593,66.915812 0.808594,0.628907 -1.195312,-0.960938"
     id="path6691" />
  <path
     fill-rule="nonzero"
     fill="#e6e6e6"
     fill-opacity="1"
     d="m 42.050781,65.888469 0.367188,0.351562 -0.722657,-0.71875"
     id="path6693" />
  <path
     fill-rule="nonzero"
     fill="#e6e6e6"
     fill-opacity="1"
     d="m 43.582031,67.236125 0.410156,0.308594 -0.808594,-0.628907"
     id="path6695" />
  <path
     fill-rule="nonzero"
     fill="#e6e6e6"
     fill-opacity="1"
     d="m 43.992187,67.544719 -1.574218,-1.304688 0.378906,0.34375"
     id="path6697" />
  <path
     fill-rule="nonzero"
     fill="#e6e6e6"
     fill-opacity="1"
     d="m 41.695312,65.521281 0.722657,0.71875 1.574218,1.304688"
     id="path6699" />
  <path
     fill-rule="nonzero"
     fill="#e6e6e6"
     fill-opacity="1"
     d="m 46.164062,68.87675 -2.171875,-1.332031 1.277344,0.839843"
     id="path6701" />
  <path
     fill-rule="nonzero"
     fill="#e6e6e6"
     fill-opacity="1"
     d="m 43.992187,67.544719 0.84375,0.574219 0.433594,0.265624"
     id="path6703" />
  <path
     fill-rule="nonzero"
     fill="#e6e6e6"
     fill-opacity="1"
     d="m 44.410156,67.837688 0.425781,0.28125 -0.84375,-0.574219"
     id="path6705" />
  <path
     fill-rule="nonzero"
     fill="#e6e6e6"
     fill-opacity="1"
     d="m 46.625,69.099406 0.9375,0.40625 -1.398438,-0.628906"
     id="path6707" />
  <path
     fill-rule="nonzero"
     fill="#e6e6e6"
     fill-opacity="1"
     d="m 45.269531,68.384562 0.445312,0.253907 0.449219,0.238281"
     id="path6709" />
  <path
     fill-rule="nonzero"
     fill="#e6e6e6"
     fill-opacity="1"
     d="M 47.5625,69.505656 54.566406,38.169719 H 52.523437"
     id="path6711" />
  <path
     fill-rule="nonzero"
     fill="#e6e6e6"
     fill-opacity="1"
     d="m 49.503906,70.138469 h 8.085937 L 47.5625,69.505656"
     id="path6713" />
  <path
     fill-rule="nonzero"
     fill="#e6e6e6"
     fill-opacity="1"
     d="m 55.582031,70.521281 0.507812,-0.07422 1.5,-0.308593"
     id="path6715" />
  <path
     fill-rule="nonzero"
     fill="#e6e6e6"
     fill-opacity="1"
     d="M 47.089843,69.310344 47.5625,69.505656 46.625,69.099406"
     id="path6717" />
  <path
     fill-rule="nonzero"
     fill="#e6e6e6"
     fill-opacity="1"
     d="m 49.503906,70.138469 -0.980469,-0.285157 0.488282,0.148438"
     id="path6719" />
  <path
     fill-rule="nonzero"
     fill="#e6e6e6"
     fill-opacity="1"
     d="M 48.039062,69.685344 48.523437,69.853312 47.5625,69.505656"
     id="path6721" />
  <path
     fill-rule="nonzero"
     fill="#e6e6e6"
     fill-opacity="1"
     d="m 47.5625,69.505656 0.960937,0.347656 0.980469,0.285157"
     id="path6723" />
  <path
     fill-rule="nonzero"
     fill="#e6e6e6"
     fill-opacity="1"
     d="m 55.582031,70.521281 2.007812,-0.382812 h -8.085937"
     id="path6725" />
  <path
     fill-rule="nonzero"
     fill="#e6e6e6"
     fill-opacity="1"
     d="m 49.503906,70.138469 1.5,0.308593 0.503906,0.07422"
     id="path6727" />
  <path
     fill-rule="nonzero"
     fill="#e6e6e6"
     fill-opacity="1"
     d="m 50,70.255656 1.003906,0.191406 -1.5,-0.308593"
     id="path6729" />
  <path
     fill-rule="nonzero"
     fill="#e6e6e6"
     fill-opacity="1"
     d="m 50.5,70.361125 0.503906,0.08594 L 50,70.255659"
     id="path6731" />
  <path
     fill-rule="nonzero"
     fill="#e6e6e6"
     fill-opacity="1"
     d="m 49.503906,70.138469 2.003906,0.382812 h 4.074219"
     id="path6733" />
  <path
     fill-rule="nonzero"
     fill="#e6e6e6"
     fill-opacity="1"
     d="m 51.507812,70.521281 1.015625,0.09375 1.023438,0.03125"
     id="path6735" />
  <path
     fill-rule="nonzero"
     fill="#e6e6e6"
     fill-opacity="1"
     d="m 52.015625,70.575969 0.507812,0.03906 -1.015625,-0.09375"
     id="path6737" />
  <path
     fill-rule="nonzero"
     fill="#e6e6e6"
     fill-opacity="1"
     d="m 55.074219,70.575969 0.507812,-0.05469 -1.015625,0.09375"
     id="path6739" />
  <path
     fill-rule="nonzero"
     fill="#e6e6e6"
     fill-opacity="1"
     d="m 53.035156,70.638469 0.511719,0.0078 -1.023438,-0.03125"
     id="path6741" />
  <path
     fill-rule="nonzero"
     fill="#e6e6e6"
     fill-opacity="1"
     d="m 55.582031,70.521281 -2.035156,0.125 1.019531,-0.03125"
     id="path6743" />
  <path
     fill-rule="nonzero"
     fill="#e6e6e6"
     fill-opacity="1"
     d="m 54.054687,70.638469 0.511719,-0.02344 -1.019531,0.03125"
     id="path6745" />
  <path
     fill-rule="nonzero"
     fill="#e6e6e6"
     fill-opacity="1"
     d="m 51.507812,70.521281 2.039063,0.125 2.035156,-0.125"
     id="path6747" />
  <path
     fill-rule="nonzero"
     fill="#e6e6e6"
     fill-opacity="1"
     d="M 57.589843,70.138469 59.53125,69.505656 H 47.5625"
     id="path6749" />
  <path
     fill-rule="nonzero"
     fill="#e6e6e6"
     fill-opacity="1"
     d="M 59.53125,69.505656 54.566406,38.169719 47.5625,69.505656"
     id="path6751" />
  <path
     fill-rule="nonzero"
     fill="#e6e6e6"
     fill-opacity="1"
     d="m 56.089843,70.447062 1,-0.191406 0.5,-0.117187"
     id="path6753" />
  <path
     fill-rule="nonzero"
     fill="#e6e6e6"
     fill-opacity="1"
     d="m 56.589843,70.361125 0.5,-0.105469 -1,0.191406"
     id="path6755" />
  <path
     fill-rule="nonzero"
     fill="#e6e6e6"
     fill-opacity="1"
     d="M 60.925781,68.87675 54.566406,38.169719 59.53125,69.505656"
     id="path6757" />
  <path
     fill-rule="nonzero"
     fill="#e6e6e6"
     fill-opacity="1"
     d="m 57.589843,70.138469 0.492188,-0.136719 0.488281,-0.148438"
     id="path6759" />
  <path
     fill-rule="nonzero"
     fill="#e6e6e6"
     fill-opacity="1"
     d="m 57.589843,70.138469 0.980469,-0.285157 0.960938,-0.347656"
     id="path6761" />
  <path
     fill-rule="nonzero"
     fill="#e6e6e6"
     fill-opacity="1"
     d="m 60.925781,68.87675 -1.394531,0.628906 0.9375,-0.40625"
     id="path6763" />
  <path
     fill-rule="nonzero"
     fill="#e6e6e6"
     fill-opacity="1"
     d="m 59.050781,69.685344 0.480469,-0.179688 -0.960938,0.347656"
     id="path6765" />
  <path
     fill-rule="nonzero"
     fill="#e6e6e6"
     fill-opacity="1"
     d="M 67.789062,46.560344 54.566406,38.169719 60.925781,68.87675"
     id="path6767" />
  <path
     fill-rule="nonzero"
     fill="#e6e6e6"
     fill-opacity="1"
     d="m 60,69.310344 0.46875,-0.210938 -0.9375,0.40625"
     id="path6769" />
  <path
     fill-rule="nonzero"
     fill="#e6e6e6"
     fill-opacity="1"
     d="M 67.789062,46.560344 60.925781,68.87675 63.101562,67.544719"
     id="path6771" />
  <path
     fill-rule="nonzero"
     fill="#e6e6e6"
     fill-opacity="1"
     d="m 60.925781,68.87675 0.894531,-0.492188 1.28125,-0.839843"
     id="path6773" />
  <path
     fill-rule="nonzero"
     fill="#e6e6e6"
     fill-opacity="1"
     d="m 61.375,68.638469 0.445312,-0.253907 -0.894531,0.492188"
     id="path6775" />
  <path
     fill-rule="nonzero"
     fill="#e6e6e6"
     fill-opacity="1"
     d="m 69.511719,57.43925 -6.410157,10.105469 3.886719,-4.015625"
     id="path6777" />
  <path
     fill-rule="nonzero"
     fill="#e6e6e6"
     fill-opacity="1"
     d="m 62.253906,68.118938 0.429687,-0.28125 0.417969,-0.292969"
     id="path6779" />
  <path
     fill-rule="nonzero"
     fill="#e6e6e6"
     fill-opacity="1"
     d="m 62.253906,68.118938 0.847656,-0.574219 -1.28125,0.839843"
     id="path6781" />
  <path
     fill-rule="nonzero"
     fill="#e6e6e6"
     fill-opacity="1"
     d="m 63.101562,67.544719 1.195313,-0.960938 0.375,-0.34375"
     id="path6783" />
  <path
     fill-rule="nonzero"
     fill="#e6e6e6"
     fill-opacity="1"
     d="m 63.507812,67.236125 0.398438,-0.320313 -0.804688,0.628907"
     id="path6785" />
  <path
     fill-rule="nonzero"
     fill="#e6e6e6"
     fill-opacity="1"
     d="m 63.90625,66.915812 0.390625,-0.332031 -1.195313,0.960938"
     id="path6787" />
  <path
     fill-rule="nonzero"
     fill="#e6e6e6"
     fill-opacity="1"
     d="m 63.101562,67.544719 1.570313,-1.304688 0.722656,-0.71875"
     id="path6789" />
  <path
     fill-rule="nonzero"
     fill="#e6e6e6"
     fill-opacity="1"
     d="m 64.671875,66.240031 0.367187,-0.351562 0.355469,-0.367188"
     id="path6791" />
  <path
     fill-rule="nonzero"
     fill="#e6e6e6"
     fill-opacity="1"
     d="m 63.101562,67.544719 2.292969,-2.023438 1.59375,-1.992187"
     id="path6793" />
  <path
     fill-rule="nonzero"
     fill="#e6e6e6"
     fill-opacity="1"
     d="m 65.394531,65.521281 0.34375,-0.378906 0.652344,-0.785156"
     id="path6795" />
  <path
     fill-rule="nonzero"
     fill="#e6e6e6"
     fill-opacity="1"
     d="m 65.738281,65.142375 0.332031,-0.386719 0.320313,-0.398437"
     id="path6797" />
  <path
     fill-rule="nonzero"
     fill="#e6e6e6"
     fill-opacity="1"
     d="m 65.394531,65.521281 0.996094,-1.164062 0.597656,-0.828125"
     id="path6799" />
  <path
     fill-rule="nonzero"
     fill="#e6e6e6"
     fill-opacity="1"
     d="m 66.390625,64.357219 0.304687,-0.410157 0.292969,-0.417968"
     id="path6801" />
  <path
     fill-rule="nonzero"
     fill="#e6e6e6"
     fill-opacity="1"
     d="m 67.789062,46.560344 -4.6875,20.984375 6.410157,-10.105469"
     id="path6803" />
  <path
     fill-rule="nonzero"
     fill="#e6e6e6"
     fill-opacity="1"
     d="m 66.988281,63.529094 0.550781,-0.863282 0.25,-0.441406"
     id="path6805" />
  <path
     fill-rule="nonzero"
     fill="#e6e6e6"
     fill-opacity="1"
     d="m 67.269531,63.103312 0.269531,-0.4375 -0.550781,0.863282"
     id="path6807" />
  <path
     fill-rule="nonzero"
     fill="#e6e6e6"
     fill-opacity="1"
     d="m 66.988281,63.529094 0.800781,-1.304688 0.242188,-0.453125"
     id="path6809" />
  <path
     fill-rule="nonzero"
     fill="#e6e6e6"
     fill-opacity="1"
     d="M 69.511719,57.43925 68.03125,61.771281 69.410156,57.93925"
     id="path6811" />
  <path
     fill-rule="nonzero"
     fill="#e6e6e6"
     fill-opacity="1"
     d="m 68.03125,61.771281 0.433593,-0.921875 0.195313,-0.472656"
     id="path6813" />
  <path
     fill-rule="nonzero"
     fill="#e6e6e6"
     fill-opacity="1"
     d="m 68.253906,61.31425 0.210937,-0.464844 -0.433593,0.921875"
     id="path6815" />
  <path
     fill-rule="nonzero"
     fill="#e6e6e6"
     fill-opacity="1"
     d="m 69.003906,59.415812 -0.34375,0.960938 0.179687,-0.476562"
     id="path6817" />
  <path
     fill-rule="nonzero"
     fill="#e6e6e6"
     fill-opacity="1"
     d="m 68.03125,61.771281 0.628906,-1.394531 0.34375,-0.960938"
     id="path6819" />
  <path
     fill-rule="nonzero"
     fill="#e6e6e6"
     fill-opacity="1"
     d="m 69.410156,57.93925 -0.40625,1.476562 0.285156,-0.980468"
     id="path6821" />
  <path
     fill-rule="nonzero"
     fill="#e6e6e6"
     fill-opacity="1"
     d="m 69.003906,59.415812 0.152344,-0.488281 0.132812,-0.492187"
     id="path6823" />
  <path
     fill-rule="nonzero"
     fill="#e6e6e6"
     fill-opacity="1"
     d="m 68.03125,61.771281 0.972656,-2.355469 0.40625,-1.476562"
     id="path6825" />
  <path
     fill-rule="nonzero"
     fill="#e6e6e6"
     fill-opacity="1"
     d="M 66.988281,63.529094 68.03125,61.771281 69.511719,57.43925"
     id="path6827" />
  <path
     fill-rule="nonzero"
     fill="#e6e6e6"
     fill-opacity="1"
     d="m 67.789062,46.560344 1.722657,10.878906 0.28125,-3.558594"
     id="path6829" />
  <path
     fill-rule="nonzero"
     fill="#e6e6e6"
     fill-opacity="1"
     d="m 69.511719,57.43925 0.160156,-1.007812 0.05859,-0.507813"
     id="path6831" />
  <path
     fill-rule="nonzero"
     fill="#e6e6e6"
     fill-opacity="1"
     d="m 69.601562,56.935344 0.07031,-0.503906 -0.160156,1.007812"
     id="path6833" />
  <path
     fill-rule="nonzero"
     fill="#e6e6e6"
     fill-opacity="1"
     d="m 69.511719,57.43925 0.21875,-1.515625 0.0625,-1.019531"
     id="path6835" />
  <path
     fill-rule="nonzero"
     fill="#e6e6e6"
     fill-opacity="1"
     d="m 69.730469,55.923625 0.03906,-0.511719 0.02344,-0.507812"
     id="path6837" />
  <path
     fill-rule="nonzero"
     fill="#e6e6e6"
     fill-opacity="1"
     d="m 69.511719,57.43925 0.28125,-2.535156 v -1.023438"
     id="path6839" />
  <path
     fill-rule="nonzero"
     fill="#e6e6e6"
     fill-opacity="1"
     d="m 69.792969,54.904094 0.0078,-0.511719 -0.0078,-0.511719"
     id="path6841" />
  <path
     fill="none"
     stroke-width="0.128314"
     stroke-linecap="square"
     stroke-linejoin="miter"
     stroke="#000000"
     stroke-opacity="1"
     stroke-miterlimit="10"
     d="m 69.800781,54.392375 -0.0078,-0.511718 -0.02344,-0.507813 -0.03906,-0.511718 -0.05859,-0.507813 -0.07031,-0.503907 -0.08984,-0.503905 L 69.41018,50.8455 69.289086,50.349406 69.156273,49.857219 69.00393,49.368938 68.839867,48.884563 68.660179,48.407999 68.464867,47.935344 68.253929,47.470499 68.031272,47.01347 l -0.242188,-0.453125 -0.25,-0.441409 -0.26953,-0.437499 -0.28125,-0.42578 -0.292969,-0.417969 -0.304686,-0.410156 -0.320315,-0.398437 -0.332029,-0.38672 -0.343751,-0.378907 -0.355468,-0.367187 -0.367187,-0.355468 -0.375001,-0.343751 -0.390626,-0.328125 -0.398437,-0.320312 -0.40625,-0.308593 L 62.683616,40.947063 62.25393,40.665813 61.820311,40.400187 61.374999,40.14628 60.925781,39.907999 60.468749,39.685344 60,39.474407 l -0.468751,-0.195312 -0.480468,-0.179689 -0.480468,-0.167969 -0.488281,-0.148436 -0.492188,-0.13672 -0.5,-0.117187 -0.500001,-0.105468 -0.500001,-0.08594 -0.507811,-0.07422 -0.507813,-0.05468 -0.507811,-0.03906 -0.51172,-0.02344 -0.507811,-0.01172 -0.51172,0.01172 -0.511718,0.02344 -0.507813,0.03906 -0.507814,0.05468 -0.503904,0.07422 -0.503908,0.08594 -0.5,0.105468 -0.496094,0.117187 -0.492185,0.13672 -0.488284,0.148436 -0.484374,0.167969 -0.476562,0.179689 -0.472655,0.195312 -0.464845,0.210937 -0.460938,0.222655 -0.449219,0.238281 -0.445312,0.253907 -0.433593,0.265626 -0.425782,0.28125 -0.417969,0.292969 -0.410157,0.308593 -0.398437,0.320312 -0.386719,0.328125 -0.378905,0.343751 -0.367187,0.355468 -0.355471,0.367187 -0.343748,0.378907 -0.332032,0.38672 -0.320312,0.398437 -0.304689,0.410156 -0.292969,0.417969 -0.281249,0.42578 -0.265624,0.437499 -0.253907,0.441409 -0.238281,0.453125 -0.226564,0.457029 -0.210937,0.464845 -0.195312,0.472655 -0.179686,0.476564 -0.164063,0.484375 -0.152346,0.488281 -0.13281,0.492187 -0.121094,0.496094 -0.101563,0.500001 -0.08984,0.503905 -0.07031,0.503907 -0.05469,0.507813 -0.04297,0.511718 -0.02344,0.507813 -0.0078,0.511718 0.0078,0.51172 0.02344,0.507811 0.04297,0.51172 0.05469,0.507811 0.07031,0.503907 0.08984,0.503907 0.101563,0.499998 0.121094,0.496094 0.13281,0.492188 0.152346,0.488281 0.164063,0.484374 0.179686,0.476565 0.195312,0.472655 0.210937,0.464844 0.226564,0.457032 0.238281,0.453125 0.253907,0.441406 0.265624,0.437499 0.281249,0.425783 0.292969,0.417966 0.304689,0.410157 0.320312,0.398439 0.332032,0.386717 0.343748,0.378907 0.355471,0.367188 0.367187,0.351561 0.378905,0.343751 0.386719,0.332032 0.398437,0.320312 0.410157,0.308592 0.417969,0.29297 0.425782,0.281249 0.433593,0.265627 0.445312,0.253906 0.449219,0.238281 0.460938,0.222655 0.464845,0.210938 0.472655,0.195314 0.476562,0.179686 0.484374,0.167969 0.488284,0.148437 0.492185,0.13672 0.496094,0.117187 0.5,0.10547 0.503908,0.08594 0.503904,0.07422 0.507814,0.05469 0.507813,0.03906 0.511718,0.02344 0.51172,0.0078 0.507811,-0.0078 0.51172,-0.02344 0.507811,-0.03906 0.507813,-0.05469 0.507811,-0.07422 0.500001,-0.08594 0.500001,-0.10547 0.5,-0.117187 0.492188,-0.13672 0.488281,-0.148437 0.480468,-0.167969 0.480468,-0.179686 L 60,69.310343 l 0.468749,-0.210938 0.457032,-0.222655 0.449218,-0.238281 0.445312,-0.253906 0.433596,-0.265627 0.429686,-0.281249 0.417969,-0.29297 0.40625,-0.308592 0.398437,-0.320312 0.390626,-0.332032 0.375001,-0.343751 0.367187,-0.351561 0.355468,-0.367188 0.343751,-0.378907 0.332029,-0.386717 0.320315,-0.398439 0.304686,-0.410157 0.292969,-0.417966 0.28125,-0.425783 0.26953,-0.437499 0.25,-0.441406 0.242188,-0.453125 0.222657,-0.457032 0.210938,-0.464844 0.195312,-0.472655 0.179688,-0.476565 0.164063,-0.484374 0.152343,-0.488281 0.132813,-0.492188 0.121094,-0.496094 0.101561,-0.499998 0.08984,-0.503907 0.07031,-0.503907 0.05859,-0.507811 0.03906,-0.51172 0.02344,-0.507811 0.0078,-0.51172"
     id="path6843" />
  <g
     clip-path="url(#clip-6)"
     id="g6847"
     transform="translate(-5.667969,-8.99825)">
    <path
       fill="none"
       stroke-width="9.9975"
       stroke-linecap="butt"
       stroke-linejoin="bevel"
       stroke="#000000"
       stroke-opacity="1"
       stroke-dasharray="75, 45"
       stroke-miterlimit="10"
       d="M 186.21101,823.72929 H 3988.7512"
       transform="matrix(0.02565,0,0,-0.02565,5.669,117.031)"
       id="path6845" />
  </g>
  <path
     fill="none"
     stroke-width="0.256436"
     stroke-linecap="butt"
     stroke-linejoin="bevel"
     stroke="#000000"
     stroke-opacity="1"
     stroke-dasharray="75, 45"
     stroke-miterlimit="10"
     d="M 4.7773434,103.158 V 5.6267512"
     id="path6849" />
  <path
     fill="none"
     stroke-width="0.513064"
     stroke-linecap="butt"
     stroke-linejoin="round"
     stroke="#cc1a1a"
     stroke-opacity="1"
     stroke-miterlimit="10"
     d="m 41.007812,47.361125 -0.132813,-2.886718 1.472656,2.484375"
     id="path6851" />
  <path
     fill="none"
     stroke-width="0.513064"
     stroke-linecap="butt"
     stroke-linejoin="round"
     stroke="#cc1a1a"
     stroke-opacity="1"
     stroke-miterlimit="10"
     d="M 53.546876,86.904094 40.874999,44.474407"
     id="path6853" />
  <path
     fill="none"
     stroke-width="0.513064"
     stroke-linecap="butt"
     stroke-linejoin="round"
     stroke="#1a1a99"
     stroke-opacity="1"
     stroke-miterlimit="10"
     d="m 56.816407,71.075968 0.515624,-1.023437 0.02734,1.148438"
     id="path6855" />
  <path
     fill="none"
     stroke-width="0.513064"
     stroke-linecap="butt"
     stroke-linejoin="round"
     stroke="#1a1a99"
     stroke-opacity="1"
     stroke-miterlimit="10"
     d="M 53.546876,86.904094 57.332031,70.052531"
     id="path6857" />
  <path
     fill="none"
     stroke-width="0.513064"
     stroke-linecap="butt"
     stroke-linejoin="round"
     stroke="#1a991a"
     stroke-opacity="1"
     stroke-miterlimit="10"
     d="m 41.285155,66.392376 -0.410156,-1.433594 1.039063,1.074217"
     id="path6859" />
  <path
     fill="none"
     stroke-width="0.513064"
     stroke-linecap="butt"
     stroke-linejoin="round"
     stroke="#1a991a"
     stroke-opacity="1"
     stroke-miterlimit="10"
     d="M 53.546876,86.904094 40.874999,64.958782"
     id="path6861" />
  <path
     fill="none"
     stroke-width="0.256436"
     stroke-linecap="butt"
     stroke-linejoin="bevel"
     stroke="#000000"
     stroke-opacity="1"
     stroke-dasharray="75, 45"
     stroke-miterlimit="10"
     d="M 39.46875,62.52128 11.3125,13.75175"
     id="path6863" />
  <path
     fill="none"
     stroke-width="0.513064"
     stroke-linecap="butt"
     stroke-linejoin="round"
     stroke="#1a991a"
     stroke-opacity="1"
     stroke-miterlimit="10"
     d="m 65.17578,66.032999 1.039064,-1.074217 -0.410156,1.433594"
     id="path6865" />
  <path
     fill="none"
     stroke-width="0.513064"
     stroke-linecap="butt"
     stroke-linejoin="round"
     stroke="#1a991a"
     stroke-opacity="1"
     stroke-miterlimit="10"
     d="M 53.546876,86.904094 66.214844,64.958782"
     id="path6867" />
  <path
     fill="none"
     stroke-width="0.256436"
     stroke-linecap="butt"
     stroke-linejoin="bevel"
     stroke="#000000"
     stroke-opacity="1"
     stroke-dasharray="75, 45"
     stroke-miterlimit="10"
     d="M 67.624999,62.52128 95.777344,13.75175"
     id="path6869" />
  <path
     fill-rule="nonzero"
     fill="#cc1a1a"
     fill-opacity="1"
     stroke-width="0.192375"
     stroke-linecap="butt"
     stroke-linejoin="miter"
     stroke="#cc1a1a"
     stroke-opacity="1"
     stroke-miterlimit="10"
     d="m 54.089843,86.806437 c 0,-0.351562 -0.285157,-0.640624 -0.640625,-0.640624 -0.355467,0 -0.640624,0.289062 -0.640624,0.640624 0,0.355469 0.285157,0.640625 0.640624,0.640625 0.355468,0 0.640625,-0.285156 0.640625,-0.640625"
     id="path6871" />
  <path
     fill="none"
     stroke-width="0.3985"
     stroke-linecap="butt"
     stroke-linejoin="miter"
     stroke="#000000"
     stroke-opacity="1"
     stroke-miterlimit="10"
     d="M 92.804687,31.033 V 4.55253"
     id="path6873" />
  <path
     fill-rule="nonzero"
     fill="#000000"
     fill-opacity="1"
     d="M 92.804687,0.96659399 C 92.605469,2.029094 92.007812,3.755656 91.308593,4.950969 h 2.988282 C 93.601562,3.755656 93.003906,2.029094 92.804687,0.96659399"
     id="path6875" />
  <g
     fill="#000000"
     fill-opacity="1"
     id="g6879"
     transform="translate(-5.667969,-8.99825)">
    <use
       xlink:href="#glyph-1-0"
       x="101.99"
       y="26.885"
       id="use6877" />
  </g>
  <g
     fill="#000000"
     fill-opacity="1"
     id="g6883"
     transform="translate(-5.667969,-8.99825)">
    <use
       xlink:href="#glyph-2-0"
       x="107.043"
       y="27.882"
       id="use6881" />
  </g>
  <g
     fill="#000000"
     fill-opacity="1"
     id="g6887"
     transform="translate(-5.667969,-8.99825)">
    <use
       xlink:href="#glyph-1-1"
       x="54.692001"
       y="102.25"
       id="use6885" />
  </g>
  <g
     fill="#000000"
     fill-opacity="1"
     id="g6891"
     transform="translate(-5.667969,-8.99825)">
    <use
       xlink:href="#glyph-2-0"
       x="58.344002"
       y="103.246"
       id="use6889" />
  </g>
  <g
     fill="#000000"
     fill-opacity="1"
     id="g6899"
     transform="translate(-5.667969,-8.99825)">
    <use
       xlink:href="#glyph-3-0"
       x="27.344999"
       y="14.967"
       id="use6893" />
    <use
       xlink:href="#glyph-3-1"
       x="30.638245"
       y="14.967"
       id="use6895" />
    <use
       xlink:href="#glyph-3-2"
       x="34.401726"
       y="14.967"
       id="use6897" />
  </g>
  <g
     fill="#000000"
     fill-opacity="1"
     id="g6913"
     transform="translate(-5.667969,-8.99825)">
    <use
       xlink:href="#glyph-3-3"
       x="40.516388"
       y="14.967"
       id="use6901" />
    <use
       xlink:href="#glyph-3-4"
       x="46.632641"
       y="14.967"
       id="use6903" />
    <use
       xlink:href="#glyph-3-5"
       x="50.867157"
       y="14.967"
       id="use6905" />
    <use
       xlink:href="#glyph-3-6"
       x="55.571907"
       y="14.967"
       id="use6907" />
    <use
       xlink:href="#glyph-3-7"
       x="58.872326"
       y="14.967"
       id="use6909" />
    <use
       xlink:href="#glyph-3-8"
       x="63.106838"
       y="14.967"
       id="use6911" />
  </g>
  <g
     fill="#000000"
     fill-opacity="1"
     id="g6917"
     transform="translate(-5.667969,-8.99825)">
    <use
       xlink:href="#glyph-3-9"
       x="67.58046"
       y="14.967"
       id="use6915" />
  </g>
  <g
     fill="#000000"
     fill-opacity="1"
     id="g6927"
     transform="translate(-5.667969,-8.99825)">
    <use
       xlink:href="#glyph-3-10"
       x="73.695114"
       y="14.967"
       id="use6919" />
    <use
       xlink:href="#glyph-3-4"
       x="76.283005"
       y="14.967"
       id="use6921" />
    <use
       xlink:href="#glyph-3-6"
       x="80.517525"
       y="14.967"
       id="use6923" />
    <use
       xlink:href="#glyph-3-9"
       x="83.81794"
       y="14.967"
       id="use6925" />
  </g>
</svg>
